<svg width="40" height="40" viewBox="0 0 40 40" fill="none" xmlns="http://www.w3.org/2000/svg">
<rect width="40" height="40" rx="8" fill="#1577EA"/>
<path d="M24.4981 15.7214L21.4231 11.8476C21.6569 11.5755 21.8077 11.242 21.8577 10.8867C21.9076 10.5314 21.8546 10.1693 21.7049 9.84324C21.5551 9.5172 21.315 9.24097 21.013 9.04732C20.711 8.85367 20.3597 8.75073 20.0009 8.75073C19.6422 8.75073 19.2909 8.85367 18.9889 9.04732C18.6869 9.24097 18.4467 9.5172 18.297 9.84324C18.1473 10.1693 18.0943 10.5314 18.1442 10.8867C18.1941 11.242 18.3449 11.5755 18.5788 11.8476L15.5038 15.7214C15.3723 15.8877 15.1885 16.0045 14.9821 16.0529C14.7758 16.1012 14.5591 16.0782 14.3675 15.9876L9.65938 13.7676C9.67813 13.6601 9.6875 13.5501 9.6875 13.4376C9.68748 13.0596 9.57319 12.6904 9.35962 12.3785C9.14605 12.0665 8.84318 11.8264 8.49075 11.6897C8.13831 11.553 7.75278 11.5259 7.38471 11.6122C7.01665 11.6984 6.68325 11.8939 6.42826 12.173C6.17327 12.4521 6.0086 12.8017 5.95585 13.1761C5.90309 13.5504 5.96473 13.932 6.13266 14.2706C6.30059 14.6093 6.56697 14.8893 6.89687 15.074C7.22676 15.2586 7.60475 15.3391 7.98125 15.3051L10.4188 27.4926C10.5252 28.0231 10.8119 28.5004 11.2303 28.8435C11.6486 29.1866 12.1727 29.3744 12.7138 29.3751H27.2825C27.8244 29.3752 28.3497 29.1875 28.7688 28.8439C29.1879 28.5004 29.475 28.0222 29.5813 27.4907L32.0188 15.3051C32.0738 15.3101 32.1294 15.3126 32.1856 15.3126C32.5706 15.3124 32.9461 15.1937 33.2612 14.9726C33.5763 14.7516 33.8158 14.4389 33.9471 14.077C34.0784 13.7152 34.0951 13.3217 33.995 12.95C33.8949 12.5783 33.6828 12.2465 33.3876 11.9995C33.0923 11.7525 32.7282 11.6024 32.3447 11.5695C31.9612 11.5366 31.5768 11.6225 31.2438 11.8156C30.9108 12.0088 30.6454 12.2997 30.4834 12.6489C30.3215 12.9981 30.271 13.3887 30.3388 13.7676L25.6325 15.9876C25.4411 16.0777 25.2249 16.1005 25.0189 16.0521C24.813 16.0038 24.6294 15.8872 24.4981 15.7214ZM20 23.7501C19.5027 23.7501 19.0258 23.5526 18.6742 23.2009C18.3225 22.8493 18.125 22.3724 18.125 21.8751C18.125 21.3778 18.3225 20.9009 18.6742 20.5493C19.0258 20.1977 19.5027 20.0001 20 20.0001C20.4973 20.0001 20.9742 20.1977 21.3258 20.5493C21.6775 20.9009 21.875 21.3778 21.875 21.8751C21.875 22.3724 21.6775 22.8493 21.3258 23.2009C20.9742 23.5526 20.4973 23.7501 20 23.7501Z" fill="#FBFBFB"/>
</svg>
