<svg width="1512" height="573" viewBox="0 0 1512 573" fill="none" xmlns="http://www.w3.org/2000/svg">
<path d="M3.15632 6.74783C0.187171 14.1601 4.68916 22.3809 9.17735 28.8903C14.7525 36.9731 20.6035 44.8405 26.721 52.4755C31.616 58.5878 36.9085 64.7268 43.8626 67.9343C47.2362 69.4908 50.9108 70.3042 54.1466 72.156C62.6656 77.0338 66.2828 87.7673 72.8577 95.2765C74.6893 97.3704 76.7852 99.2465 78.2284 101.655C79.7957 104.272 80.492 107.351 81.71 110.166C87.6207 123.851 103.997 128.588 113.058 140.205C123.584 153.701 122.487 173.984 132.061 188.247C135.821 193.849 141.01 198.172 145.622 203.016C154.079 211.903 160.62 222.588 166.714 233.411C177.941 253.353 187.889 274.096 196.468 295.447C203.436 312.782 219.265 323.341 231.332 337.226C235.968 342.559 240.621 347.914 245.928 352.501C253.07 358.679 261.27 363.361 268.617 369.267C284.566 382.092 296.056 400.323 312.198 412.879C311.665 408.643 311.787 404.317 312.559 400.122C315.004 402.334 317.509 404.586 320.501 405.849C323.493 407.113 327.117 407.229 329.767 405.297C331.132 404.302 332.185 402.816 333.706 402.114C339.343 399.512 343.799 409.066 349.94 409.522C352.16 388.965 354.382 368.41 356.604 347.853C356.953 344.624 357.3 341.334 356.687 338.149C356.262 335.938 355.379 333.818 355.253 331.569C354.977 326.616 358.369 322.196 358.771 317.253C359.224 311.678 355.869 306.643 352.677 302.172C348.012 295.633 341.935 288.393 334.202 289.131C328.147 289.71 323.038 295.251 316.969 294.864C316.183 294.813 315.372 294.648 314.744 294.152C312.97 292.753 313.632 289.722 315.011 287.894C316.39 286.067 318.345 284.587 318.973 282.348C320.338 277.471 314.889 273.844 312.184 269.632C307.997 263.111 310.392 253.762 306.552 247.006C300.436 236.245 283.766 239.237 275.398 230.317C273.884 228.702 273.863 226.34 273.47 224.108C272.843 220.537 272.213 216.911 272.547 213.299C272.88 209.685 274.309 206.023 277.083 203.871C278.352 202.888 279.866 202.237 280.946 201.031C282.925 198.821 282.909 195.238 281.684 192.488C280.459 189.738 278.262 187.627 276.118 185.594C275.178 184.701 274.153 183.766 272.898 183.597C271.122 183.357 269.55 184.694 268.13 185.843C262.171 190.678 254.782 193.529 247.267 193.895C249.772 191.573 252.277 189.252 254.785 186.93C256.276 185.548 257.908 183.803 257.655 181.728C257.43 179.869 255.711 178.581 253.989 178.109C252.268 177.637 250.45 177.744 248.701 177.395C244.287 176.511 240.84 172.849 238.314 168.935C235.788 165.018 233.858 160.651 230.859 157.121C224.321 149.423 213.543 146.661 207.565 138.472C204.546 134.335 202.972 129.067 199.403 125.448C197.902 123.926 195.978 122.718 193.896 122.667C191.812 122.619 189.622 124.001 189.155 126.138C188.891 127.354 189.185 128.629 189.061 129.869C188.937 131.108 188.094 132.473 186.915 132.369C186.23 132.309 185.681 131.774 185.189 131.27C181.032 126.993 176.874 122.718 172.719 118.44C161.751 107.155 154.698 92.0545 143.782 80.7133C132.866 69.3746 119.521 60.0935 104.519 56.7675C102.701 56.3632 100.649 55.9008 99.6673 54.2402C98.47 52.2092 99.5225 49.573 99.3157 47.191C99.0744 44.3927 97.1118 42.1438 95.255 40.1249C86.9152 31.0617 77.4884 21.432 65.5497 20.3669C60.3262 19.9021 54.4017 18.5804 49.1689 18.2705C44.7979 18.0115 40.3695 17.7428 36.1984 16.3436C32.5881 15.1333 29.2811 13.1144 25.9282 11.2577C22.0007 9.08386 17.9699 7.11097 13.8586 5.35352C10.2207 3.79941 4.67536 2.95454 3.15632 6.74783Z" fill="black" stroke="black" stroke-width="0.25" stroke-miterlimit="10" stroke-linecap="round" stroke-linejoin="round"/>
<path d="M356.831 415.575C352.136 418.2 355.032 427.057 350.824 430.475C349.967 431.172 348.91 431.535 348.009 432.167C344.493 434.636 343.971 440.637 340.03 442.237C339.256 440.402 337.394 439.03 335.498 439.241C333.602 439.451 331.978 441.504 332.407 443.46C332.986 446.106 336.208 446.783 338.782 446.924C347.407 447.398 356.029 447.873 364.654 448.35C366.038 448.425 367.497 448.529 368.641 449.35C371.693 451.538 370.347 456.684 372.066 460.127C373.72 463.441 377.73 464.38 381.242 464.944C391.997 466.675 402.78 468.13 413.565 469.57C422.658 470.785 429.422 478.967 439.43 478.819C443.651 478.757 447.756 477.461 451.913 476.697C482.443 471.073 511.188 493.896 542.063 496.743C556.477 498.072 571.088 494.988 585.417 497.108C604.978 500.006 622.804 512.429 642.557 512.768C642.639 509.534 638.505 508.36 636.621 505.806C633.298 501.298 637.96 495.147 638.494 489.466C639.176 482.179 632.452 476.157 625.633 474.736C618.815 473.315 611.81 475.053 604.875 475.532C597.939 476.014 590.158 474.811 585.759 469.139C584.451 467.452 583.502 465.433 581.935 464.012C580.198 462.436 577.706 461.581 576.755 459.383C575.755 457.074 576.927 454.259 576.128 451.865C574.62 447.35 568.514 448.122 564.019 447.43C557.355 446.403 551.961 440.354 545.234 440.025C541.838 439.858 538.551 441.194 535.182 441.678C531.813 442.162 527.856 441.489 526.034 438.466C525.135 436.977 524.862 435.074 523.68 433.825C521.378 431.388 517.273 433.024 515.159 435.643C513.045 438.263 511.843 441.698 509.308 443.864C506.091 446.617 501.566 446.667 497.422 446.585C482.179 446.287 466.936 445.99 451.695 445.694C450.458 445.67 449.165 445.629 448.089 444.987C446.117 443.808 445.6 441.143 444.872 438.882C442.599 431.831 436.173 426.476 429.137 425.769C424.763 425.329 420.211 426.522 416.028 425.106C408.925 422.7 404.329 413.285 396.887 413.859C394.215 414.065 391.829 415.607 389.352 416.682C379.888 420.785 369.142 418.078 359.249 415.326L356.831 415.575Z" fill="black" stroke="black" stroke-width="0.25" stroke-miterlimit="10" stroke-linecap="round" stroke-linejoin="round"/>
<path d="M643.817 492.497C642.674 493.637 642.284 495.535 642.877 497.07C643.876 499.66 646.887 500.476 649.429 501.277C653.786 502.652 658.405 505.738 658.796 510.512C658.984 512.814 658.131 515.046 657.428 517.234C657.233 517.844 657.189 518.752 657.784 518.9C658.007 518.955 658.235 518.864 658.444 518.764C662.493 516.845 664.607 512.11 668.144 509.282C670.042 507.764 672.308 506.833 674.239 505.363C676.169 503.894 677.824 501.596 677.573 499.101C677.445 497.815 676.822 496.636 676.054 495.629C673.929 492.841 670.55 491.161 667.156 491.199C664.391 491.231 661.739 492.327 658.998 492.703C655.038 493.245 646.843 489.476 643.817 492.497Z" fill="black" stroke="black" stroke-width="0.25" stroke-miterlimit="10" stroke-linecap="round" stroke-linejoin="round"/>
<path d="M693.184 499.166C691.656 501.621 691.589 504.729 691.061 507.612C690.532 510.495 689.13 513.635 686.435 514.375C685.929 514.513 685.306 514.642 685.141 515.162C684.989 515.639 685.346 516.121 685.695 516.462C688.485 519.183 692.481 519.979 696.268 520.33C699.63 520.643 703.655 520.355 705.426 517.329C706.837 514.92 706.176 511.759 707.012 509.069C707.52 507.44 708.554 506.06 709.347 504.564C710.142 503.068 710.705 501.27 710.172 499.65C709.715 498.263 708.51 497.261 707.205 496.743C702.832 495.002 696.085 494.501 693.184 499.166Z" fill="black" stroke="black" stroke-width="0.25" stroke-miterlimit="10" stroke-linecap="round" stroke-linejoin="round"/>
<path d="M714.743 514.581C714.253 515.958 713.568 517.323 713.607 518.795C713.676 521.318 715.857 523.23 718.084 524.162C722.522 526.019 727.527 525.353 732.197 524.3C741.853 522.124 751.195 518.398 759.802 513.295C761.121 512.511 762.67 511.671 764.076 512.264C764.722 512.535 765.227 513.075 765.751 513.559C768.479 516.079 772.243 517.309 775.847 516.859C777.122 516.699 778.506 516.241 779.152 515.07C779.517 514.409 779.597 513.598 780.002 512.964C781.751 510.238 786.742 513.487 788.684 510.911C789.456 509.887 789.291 508.413 788.997 507.144C788.346 504.334 787.255 501.639 785.777 499.202C785.536 498.802 785.265 498.391 784.858 498.187C783.359 497.432 782.309 499.807 781.008 500.891C779.623 502.044 777.276 501.48 776.504 499.807C776.155 499.052 776.097 498.151 775.626 497.471C774.764 496.222 772.942 496.29 771.607 496.924C770.272 497.558 769.12 498.618 767.707 499.03C765.117 499.785 762.442 498.171 760.431 496.292C758.42 494.414 756.6 492.14 754.084 491.146C751.567 490.151 748.051 491.182 747.516 493.959C747.068 496.282 748.932 498.454 750.979 499.441C753.027 500.429 755.341 500.683 757.375 501.702C759.409 502.722 761.219 504.966 760.679 507.268C760.473 508.151 759.942 508.916 759.31 509.536C756.382 512.409 751.678 512.09 748.005 510.412C744.333 508.735 741.205 505.948 737.574 504.179C733.277 502.082 726.872 501.073 722.177 502.262C716.59 503.675 716.448 509.773 714.743 514.581Z" fill="black" stroke="black" stroke-width="0.25" stroke-miterlimit="10" stroke-linecap="round" stroke-linejoin="round"/>
<path d="M796.153 535.923C793.966 536.131 791.727 536.708 790.02 538.162C788.312 539.617 787.271 542.113 787.951 544.314C788.891 547.354 792.375 548.477 795.386 548.898C801.338 549.731 807.559 549.625 813.049 552.191C817.448 554.246 820.998 557.85 824.468 561.363C826.679 563.602 828.989 565.892 831.87 566.998C837.609 569.199 844.742 565.359 846.408 559.17C846.746 557.918 846.877 556.56 846.477 555.333C845.535 552.45 842.267 551.443 839.578 550.319C835.269 548.518 831.459 545.415 828.72 541.474C827.385 539.552 826.281 537.417 824.624 535.797C820.302 531.571 816.34 535.296 811.626 535.993C806.495 536.744 801.297 535.437 796.153 535.923Z" fill="black" stroke="black" stroke-width="0.25" stroke-miterlimit="10" stroke-linecap="round" stroke-linejoin="round"/>
<path d="M813.396 510.442C813.4 511.88 813.701 513.371 814.549 514.496C815.868 516.242 818.167 516.733 820.276 516.907C828.127 517.563 836.372 515.566 843.705 518.59C846.337 519.674 848.8 521.393 851.613 521.681C857.892 522.325 863.614 515.69 869.75 517.237C871.356 517.641 872.82 518.595 874.459 518.82C877.561 519.246 880.349 517.036 883.212 515.709C888.162 513.417 893.861 513.71 898.982 511.875C903.382 510.296 907.138 507.224 910.803 504.208C913.048 502.359 915.381 500.396 916.511 497.641C917.644 494.886 917.091 491.114 914.567 489.718C914.154 489.488 913.673 489.33 913.223 489.456C911.605 489.906 912.453 492.431 912.517 494.191C912.612 496.704 910.325 498.585 908.107 499.512C905.887 500.439 903.385 500.96 901.712 502.753C900.124 504.455 899.384 507.205 897.247 507.997C894.096 509.163 891.547 505.176 888.507 503.729C884.361 501.754 879.76 504.714 875.366 505.956C867.036 508.314 858.432 504.327 850.434 500.921C841.359 497.062 813.343 492.39 813.396 510.442Z" fill="black" stroke="black" stroke-width="0.25" stroke-miterlimit="10" stroke-linecap="round" stroke-linejoin="round"/>
<path d="M472.95 132.703C469.262 138.053 465.576 143.4 461.887 148.75C460.761 150.384 459.584 152.166 459.571 154.187C459.557 156.209 461.331 158.336 463.172 157.767C462.179 160.433 459.175 161.452 457.102 163.304C453.862 166.201 453.023 171.101 453.042 175.579C453.088 185.858 457.236 196.785 465.798 201.713C461.666 203.793 459.819 209.772 461.993 214.016C464.075 218.078 469.25 221.174 468.193 225.654C467.977 226.57 467.494 227.414 467.409 228.351C467.221 230.467 469.05 232.14 470.801 233.193C474.331 235.318 478.282 236.574 481.823 238.683C485.362 240.791 488.625 244.076 489.274 248.305C490.11 253.762 486.447 259.547 488.462 264.65C489.418 267.073 491.48 268.777 493.056 270.808C498.473 277.792 497.777 287.809 497.301 296.814C497.197 298.78 497.131 300.823 497.864 302.631C498.597 304.44 500.376 305.936 502.219 305.621C503.604 305.384 504.733 304.212 506.126 304.038C507.996 303.801 509.57 305.377 511.266 306.243C513.479 307.374 516.051 307.311 518.51 307.224C527.698 306.897 536.886 306.57 546.076 306.246C547.036 306.212 548.029 306.183 548.921 306.565C554.227 308.836 548.686 319.688 553.62 322.75C553.17 325.316 552.873 327.756 554.746 329.463C559.747 324.22 567.657 324.324 574.618 323.116C581.581 321.91 589.572 317.006 588.855 309.613C594.91 314.696 602.882 317.175 610.588 316.367C608.278 319.741 609.965 325.263 613.707 326.589C617.45 327.916 621.959 324.59 622.058 320.431C627.194 325.212 634.753 326.919 641.298 324.771C642.856 333.472 643.288 342.392 642.578 351.213C655.571 346.587 667.983 340.148 679.382 332.116C687.112 326.669 695.232 318.039 692.782 308.589C698.173 306.287 701.317 299.327 699.612 293.466C702.51 296.023 707.094 291.494 706.132 287.645C705.169 283.796 701.25 281.68 697.592 280.683C700.547 278.731 702.893 275.357 702.779 271.685C702.661 268.012 699.393 264.493 695.96 265.139C703.935 258.913 712.842 250.385 711.082 240.094C710.195 242.532 712.794 245.098 715.271 245.052C717.748 245.006 719.888 243.311 721.834 241.694C727.115 237.301 732.7 232.44 734.488 225.606C736.345 218.508 733.649 210.905 734.66 203.619C736.639 189.37 752.179 179.104 750.905 164.768C760.941 173.597 776.414 174.759 787.537 167.518C772.383 158.319 758.884 146.104 747.968 131.708C751.269 130.483 752.877 126.31 752.493 122.645C752.11 118.982 750.214 115.714 748.366 112.587C744.512 106.068 740.658 99.5488 736.807 93.0298C732.442 85.6465 728.078 78.2633 723.714 70.8801C726.693 74.2909 732.562 74.1238 735.359 70.5484C736.83 72.485 739.403 74.378 741.322 72.9377C743.961 70.9551 741.166 66.8181 738.794 64.4893C736.423 62.1606 735.589 56.5251 738.829 56.6655C722.827 47.8976 703.797 45.4357 686.255 49.8681C683.525 50.558 680.738 51.4609 678.621 53.4024C676.279 55.552 675.036 58.7207 674.089 61.8386C671.697 69.7278 670.713 78.089 671.203 86.3558C671.299 87.9971 671.442 89.7206 670.796 91.2167C668.923 95.5643 662.495 94.6928 659.204 97.9778C654.546 102.626 659.193 111.178 656.961 117.516C656.111 119.931 654.316 121.812 652.696 123.742C646.652 130.951 642.49 139.893 640.785 149.343C632.974 146.431 623.972 147.288 616.784 151.631C614.81 152.822 612.93 154.279 610.731 154.892C605.698 156.296 600.72 153.013 595.997 150.704C584.725 145.187 569.73 145.652 561.556 155.514C558.672 158.992 556.573 163.592 552.52 165.352C547.569 167.499 542.072 164.468 536.729 164.122C527.693 163.536 519.415 170.704 510.379 170.106C505.321 169.769 500.697 167.015 496.598 163.875C486.052 155.797 478.08 145.33 472.95 132.703Z" fill="black" stroke="black" stroke-width="0.25" stroke-miterlimit="10" stroke-linecap="round" stroke-linejoin="round"/>
<path d="M814.96 204.274C811.182 205.051 809.959 210.292 810.84 214.24C811.722 218.186 813.873 221.887 813.774 225.94C803.067 230.345 795.842 242.706 796.927 254.761C797.278 258.675 798.409 262.602 797.759 266.475C797.336 268.988 796.187 271.287 795.231 273.633C792.526 280.271 791.308 287.571 791.701 294.783C788.516 293.684 785.009 296.1 783.527 299.266C782.044 302.432 782.074 306.119 782.134 309.649C782.203 313.645 782.272 317.644 782.341 321.641C782.403 325.243 783.09 329.758 786.381 330.743C790.193 331.883 794.622 327.071 797.793 329.576C798.786 330.36 799.259 331.658 799.662 332.892C804.977 349.249 805.97 367.136 802.502 384.033C801.5 388.915 800.319 394.643 803.444 398.4C809.925 406.192 824.534 394.895 831.297 402.416C831.81 386.698 832.322 370.978 832.832 355.26C833.29 341.258 833.717 326.991 830.114 313.505C829.482 311.142 828.733 308.6 829.542 306.298C830.762 302.827 834.783 301.665 838.24 300.982C841.505 300.338 844.771 299.692 848.037 299.048C849.085 298.842 850.188 298.639 851.192 299.009C853.23 299.762 853.913 302.428 853.996 304.701C854.331 313.899 850.036 323.999 854.687 331.791C857.146 335.911 861.533 338.179 865.394 340.852C869.255 343.524 873.056 347.414 873.056 352.28C873.054 358.257 867.352 364.384 870.434 369.402C871.254 370.736 872.567 371.629 873.837 372.483C877.914 375.214 883.717 377.79 887.065 374.12C888.315 372.75 888.812 370.828 889.621 369.131C892.537 363.011 900.316 360.077 906.257 362.859C906.572 360.888 906.889 358.915 907.204 356.945C909.488 358.601 912.917 356.579 913.624 353.754C914.33 350.929 913.034 347.945 911.257 345.703C906.133 339.23 896.621 335.882 895.251 327.579C894.718 324.35 895.635 321.072 895.793 317.799C896.232 308.649 890.754 300.365 884.675 293.81C878.597 287.254 871.544 281.418 867.375 273.376C867.056 272.761 866.75 272.108 866.736 271.406C866.695 269.118 869.439 268.162 871.576 267.758C887.251 264.79 901.628 254.855 910.453 240.89C911.853 238.673 913.307 236.199 915.7 235.339C919.804 233.863 924.566 237.888 928.447 235.855C931.892 234.052 931.761 228.172 928.746 225.656C925.731 223.141 921.22 223.587 917.883 225.601C916.352 226.525 914.96 227.745 913.289 228.343C910.554 229.321 907.562 228.479 904.676 228.598C896.57 228.932 889.471 236.797 881.504 235.201C878.624 234.625 875.981 232.819 873.051 232.795C865.548 232.73 862.577 243.071 856.535 247.76C850.852 252.171 841.797 250.496 837.879 244.313C836.702 242.454 835.969 240.324 834.887 238.402C833.407 235.773 831.309 233.599 829.525 231.185C824.442 224.306 821.983 215.143 823.654 206.605C825.324 198.067 831.364 190.437 839.279 187.893C843.477 186.542 847.952 186.603 852.341 186.673C867.649 186.92 882.956 187.167 898.264 187.414C909.313 187.593 920.668 187.835 930.879 192.284C934.314 193.783 937.731 195.78 941.45 195.741C945.258 195.702 948.719 193.531 951.929 191.376C966.975 181.275 981.88 169.244 989.351 152.175C990.128 150.401 990.698 147.99 989.269 146.743C988.039 145.671 986.192 146.266 984.755 147.002C971.366 153.877 961.416 169.006 946.572 170.34C937.676 171.139 928.491 166.622 919.997 169.52C918.165 170.144 916.375 171.115 914.452 171.096C912.055 171.071 909.95 169.534 907.776 168.469C895.207 162.318 877.944 171.226 867.605 161.507C865.964 159.965 864.613 158.011 862.659 156.946C857.172 153.954 851.086 159.304 846.826 164.02C843.178 168.055 839.097 170.735 833.795 171.224C829.551 171.616 827.903 170.338 824.412 173.574C820.76 176.961 818.352 183.495 816.913 188.242C816.52 189.534 814.255 204.422 814.96 204.274Z" fill="black" stroke="black" stroke-width="0.25" stroke-miterlimit="10" stroke-linecap="round" stroke-linejoin="round"/>
<path d="M1193.96 231.79C1189.68 237.755 1186.54 244.618 1184.78 251.858C1193.29 250.66 1203.22 249.956 1209.12 256.518C1214.16 262.117 1214.33 271.176 1219.3 276.847C1223.54 281.701 1230.3 282.953 1236.55 283.352C1249.02 284.151 1261.61 282.66 1273.6 278.966C1273.34 284.078 1273.08 289.193 1272.82 294.306C1268.34 288.949 1260.1 287.612 1254.3 291.302C1250.5 293.713 1247.75 297.922 1243.56 299.433C1240.65 300.484 1237.48 300.065 1234.4 299.929C1230.88 299.774 1227.34 300.011 1223.86 300.636C1221.4 301.077 1218.3 302.827 1219.03 305.339C1219.36 306.499 1220.44 307.213 1221.48 307.753C1225.4 309.808 1229.74 310.842 1233.73 312.776C1237.71 314.71 1241.51 317.876 1242.65 322.338C1244.2 328.431 1240.38 335.139 1242.44 341.062C1243.77 344.887 1247.65 347.545 1251.51 347.271C1258.69 346.761 1262.41 338.116 1264.05 330.735C1265.69 323.355 1267.71 314.628 1274.42 311.895C1275.28 316.008 1273.92 320.285 1274.25 324.48C1274.94 333.33 1283.08 339.796 1291.34 341.561C1293.8 342.086 1296.31 342.304 1298.81 342.522C1302.32 342.827 1305.83 343.132 1309.34 343.437C1309.33 352.984 1318.36 361.399 1327.36 360.227C1336.38 359.056 1344.91 362.311 1353.25 366.122C1361.58 369.932 1369.63 374.691 1378.48 376.843C1383.63 378.092 1389.12 378.504 1393.62 381.416C1396.5 383.287 1398.74 386.056 1401.14 388.584C1407.63 395.434 1415.58 400.75 1424.23 404.026C1422.35 404.662 1420.91 406.538 1420.71 408.608C1422.51 409.634 1424.31 410.661 1426.12 411.685C1423.83 413.527 1424.94 417.332 1426.3 420.005C1430.95 429.155 1436.2 437.971 1441.99 446.371C1438.76 448.042 1438.31 453.578 1441.22 455.803C1444.32 458.168 1449.05 456.519 1452.17 458.85C1448.6 460.046 1445.01 461.242 1441.44 462.438C1445.42 463.641 1447.96 468.081 1448.22 472.438C1448.48 476.798 1446.89 481.048 1444.91 484.888C1443.87 486.899 1442.69 489.243 1443.54 491.349C1444.61 493.994 1448.37 494.251 1450.56 492.542C1452.75 490.833 1453.76 487.95 1454.65 485.231C1455.91 491.479 1462.8 494.968 1468.83 494.343C1474.86 493.719 1480.19 490.092 1485.25 486.57C1483.22 489.923 1484.12 494.512 1486.3 497.759C1488.49 501.005 1491.71 503.266 1494.72 505.677C1501.32 510.969 1507.16 517.304 1512 524.404V296.816C1508.71 297.869 1506.16 293.964 1503.39 291.812C1498.65 288.118 1492.51 287.244 1486.7 286.187C1472.37 283.577 1458.33 279.15 1445 273.03C1436.09 268.939 1427.46 264.083 1418.22 260.897C1412.68 258.99 1406.77 257.69 1401.04 258.762C1395.3 259.837 1389.76 263.693 1387.83 269.484C1387.32 271.018 1387.06 272.667 1386.26 274.056C1382.89 279.89 1374.26 276.69 1368.11 278.83C1362.25 280.866 1359.33 287.525 1356.12 293.071C1349.26 304.923 1338.24 314.04 1325.69 318.264C1321.87 319.547 1316.94 320.041 1314.57 316.644C1312.98 314.369 1313.24 311.236 1312.39 308.557C1311.54 305.877 1308.08 303.623 1306.34 305.768C1305.25 303.466 1305.86 300.728 1305.74 298.162C1305.63 295.596 1304.04 292.565 1301.61 292.865C1297.65 293.354 1299.15 300.169 1296.81 303.577C1291.29 291.783 1285.61 278.983 1287.71 266.02C1288.44 261.454 1290.14 256.85 1289.2 252.325C1288.19 247.452 1284.21 243.361 1284.45 238.38C1284.57 235.889 1285.75 233.342 1284.94 230.999C1283.67 227.336 1278.94 227.145 1275.24 227.087C1267.88 226.971 1260.56 224.724 1254.29 220.662C1250.71 218.348 1247.35 215.402 1243.26 214.419C1238.74 213.332 1234.05 214.821 1229.66 216.407C1217.52 220.795 1201.7 221.001 1193.96 231.79Z" fill="black" stroke="black" stroke-width="0.25" stroke-miterlimit="10" stroke-linecap="round" stroke-linejoin="round"/>
<path d="M1037.32 337.434C1040.19 339.189 1043.5 340.68 1046.75 339.981C1048.6 339.584 1050.24 338.516 1051.79 337.378C1054.93 335.064 1058.02 332.072 1058.73 328.1C1059.68 322.798 1056.09 317.797 1052.19 314.29C1046.23 308.92 1029.23 307.279 1022.19 312.196C1012.38 319.058 1031.26 333.697 1037.32 337.434Z" fill="black" stroke="black" stroke-width="0.25" stroke-miterlimit="10" stroke-linecap="round" stroke-linejoin="round"/>
<path d="M1086.55 306.395C1098.06 297.804 1114.78 308.932 1127.9 303.5C1130.2 302.551 1132.58 301.079 1134.96 301.76C1136.89 302.312 1138.2 304.132 1139.77 305.422C1146.46 310.893 1156.52 306.245 1164.49 309.264C1169.37 311.111 1172.93 315.725 1174.91 320.77C1176.89 325.815 1177.5 331.317 1178.09 336.742C1178.21 337.877 1178.24 339.245 1177.37 339.913C1176.47 340.595 1175.23 340.104 1174.24 339.581C1163 333.602 1152.82 325.188 1140.79 321.227C1139.61 320.837 1138.28 320.503 1137.17 321.077C1136.21 321.573 1135.65 322.626 1134.87 323.396C1132.2 326.023 1127.84 324.795 1124.71 322.818C1121.58 320.84 1118.47 318.167 1114.83 318.293C1110.03 318.46 1105.9 323.517 1101.22 322.411C1097.98 321.646 1095.99 318.206 1093.04 316.601C1087.64 313.655 1084.13 318.441 1080.57 321.491C1079.22 316.066 1082.3 309.567 1086.55 306.395Z" fill="black" stroke="black" stroke-width="0.25" stroke-miterlimit="10" stroke-linecap="round" stroke-linejoin="round"/>
<path d="M1090.8 327.828C1087.6 328.475 1084.61 330.266 1082.45 332.837C1081.95 333.43 1081.47 334.161 1081.59 334.943C1081.85 336.686 1084.29 336.504 1085.84 335.848C1087.58 335.112 1089.33 334.376 1091.07 333.641C1092.28 333.127 1093.55 332.573 1094.4 331.52C1095.24 330.465 1095.5 328.746 1094.6 327.744" fill="black"/>
<path d="M1090.8 327.828C1087.6 328.475 1084.61 330.266 1082.45 332.837C1081.95 333.43 1081.47 334.161 1081.59 334.943C1081.85 336.686 1084.29 336.504 1085.84 335.848C1087.58 335.112 1089.33 334.376 1091.07 333.641C1092.28 333.127 1093.55 332.573 1094.4 331.52C1095.24 330.465 1095.5 328.746 1094.6 327.744" stroke="black" stroke-width="0.25" stroke-miterlimit="10" stroke-linecap="round" stroke-linejoin="round"/>
<path d="M1149.15 264.74C1147.31 264.759 1145.38 265.33 1144.12 266.742C1142.86 268.153 1142.47 270.523 1143.59 272.062C1144.66 273.527 1146.61 273.834 1148.36 273.924C1151.46 274.084 1154.57 273.929 1157.64 273.462C1159.84 273.128 1162.25 272.476 1163.47 270.516C1165.4 267.386 1162.75 262.946 1159.34 261.92C1155.93 260.896 1152.32 262.174 1148.98 263.437" fill="black"/>
<path d="M1149.15 264.74C1147.31 264.759 1145.38 265.33 1144.12 266.742C1142.86 268.153 1142.47 270.523 1143.59 272.062C1144.66 273.527 1146.61 273.834 1148.36 273.924C1151.46 274.084 1154.57 273.929 1157.64 273.462C1159.84 273.128 1162.25 272.476 1163.47 270.516C1165.4 267.386 1162.75 262.946 1159.34 261.92C1155.93 260.896 1152.32 262.174 1148.98 263.437" stroke="black" stroke-width="0.25" stroke-miterlimit="10" stroke-linecap="round" stroke-linejoin="round"/>
<path d="M1011.76 276.303C1013.09 281.393 1016.31 285.911 1020.57 288.69C1021.4 285.983 1021.42 283.003 1020.61 280.287C1020.18 278.83 1019.48 277.399 1018.3 276.506C1017.13 275.613 1015.41 275.397 1014.25 276.305" fill="black"/>
<path d="M1011.76 276.303C1013.09 281.393 1016.31 285.911 1020.57 288.69C1021.4 285.983 1021.42 283.003 1020.61 280.287C1020.18 278.83 1019.48 277.399 1018.3 276.506C1017.13 275.613 1015.41 275.397 1014.25 276.305" stroke="black" stroke-width="0.25" stroke-miterlimit="10" stroke-linecap="round" stroke-linejoin="round"/>
<path d="M1011.02 265.202C1006.93 264.345 1002.48 265.734 999.486 268.797C1003.48 271.12 1008.31 270.927 1012.87 270.656C1017.91 270.353 1022.96 270.031 1028 269.685C1028.63 268.409 1027.97 266.758 1026.87 265.904C1025.77 265.049 1024.36 264.802 1023.01 264.626C1018.52 264.037 1013.98 263.926 1009.48 264.294" fill="black"/>
<path d="M1011.02 265.202C1006.93 264.345 1002.48 265.734 999.486 268.797C1003.48 271.12 1008.31 270.927 1012.87 270.656C1017.91 270.353 1022.96 270.031 1028 269.685C1028.63 268.409 1027.97 266.758 1026.87 265.904C1025.77 265.049 1024.36 264.802 1023.01 264.626C1018.52 264.037 1013.98 263.926 1009.48 264.294" stroke="black" stroke-width="0.25" stroke-miterlimit="10" stroke-linecap="round" stroke-linejoin="round"/>
<path d="M978.041 262.203C975.207 261.108 972.231 259.995 969.244 260.445C966.256 260.895 963.326 263.481 963.485 266.654C963.655 270.085 967.385 272.348 970.623 271.927C972.397 271.697 974.056 270.886 975.805 270.494C980.688 269.399 986.089 271.585 990.623 269.385C991.165 269.121 991.721 268.753 991.924 268.162C992.181 267.417 991.79 266.604 991.345 265.967C988.208 261.496 982.345 260.52 977.099 259.915" fill="black"/>
<path d="M978.041 262.203C975.207 261.108 972.231 259.995 969.244 260.445C966.256 260.895 963.326 263.481 963.485 266.654C963.655 270.085 967.385 272.348 970.623 271.927C972.397 271.697 974.056 270.886 975.805 270.494C980.688 269.399 986.089 271.585 990.623 269.385C991.165 269.121 991.721 268.753 991.924 268.162C992.181 267.417 991.79 266.604 991.345 265.967C988.208 261.496 982.345 260.52 977.099 259.915" stroke="black" stroke-width="0.25" stroke-miterlimit="10" stroke-linecap="round" stroke-linejoin="round"/>
<path d="M1065.39 260.171C1066.23 261.566 1067.94 262.006 1069.5 262.241C1074.19 262.948 1078.98 262.837 1083.64 261.919C1085.31 261.59 1087.34 260.709 1087.38 258.917C1087.39 258.172 1087.03 257.477 1086.63 256.86C1081.52 248.871 1059.57 250.491 1065.39 260.171Z" fill="black" stroke="black" stroke-width="0.25" stroke-miterlimit="10" stroke-linecap="round" stroke-linejoin="round"/>
<path d="M1080.5 190.868C1080.71 189.553 1081.02 188.178 1081.88 187.21C1083.54 185.363 1086.38 185.774 1088.72 186.404C1097.43 188.745 1105.89 192.129 1113.88 196.469C1115.32 191.463 1110.26 187.161 1105.73 185.009C1101.2 182.857 1095.72 180.139 1095.32 174.922C1094.92 169.681 1099.95 166.077 1104 163.002C1108.05 159.928 1111.97 154.135 1109 149.904C1107.11 147.205 1103.19 146.931 1100.32 148.376C1097.44 149.822 1095.37 152.552 1093.41 155.193C1090.48 159.137 1087.54 163.078 1084.61 167.021C1083.33 168.749 1081.96 170.543 1080.05 171.429C1078.15 172.315 1075.53 171.937 1074.51 170.027C1073.45 168.059 1074.53 165.527 1076.06 163.942C1077.59 162.356 1079.56 161.257 1080.9 159.492C1084.88 154.259 1081.58 146.663 1081.46 139.96C1081.36 134.975 1083.15 130.187 1084.9 125.556C1072.65 132.593 1065.87 148.788 1069.19 163.061C1069.81 165.75 1070.76 168.408 1070.73 171.175C1070.7 174.249 1069.46 177.285 1069.91 180.323C1070.37 183.402 1072.47 185.893 1073.66 188.747C1075.91 194.145 1074.77 200.352 1075.06 206.242C1075.38 212.647 1077.64 218.858 1081.21 224.027C1082.83 226.368 1091.92 237.14 1091.56 228.278C1091.39 224.189 1083.82 216.307 1082.29 211.688C1080.09 205.039 1079.38 197.822 1080.5 190.868Z" fill="black" stroke="black" stroke-width="0.25" stroke-miterlimit="10" stroke-linecap="round" stroke-linejoin="round"/>
<path d="M1056.28 217.764C1056.79 219.895 1059.72 221.257 1061.04 219.556C1061.14 222.177 1061.45 225.198 1063.53 226.656C1064.78 227.537 1066.75 228.04 1066.76 229.628C1066.77 230.202 1066.47 230.756 1066.53 231.328C1066.66 232.511 1068.1 232.884 1069.23 232.966C1070.91 233.09 1072.67 233.201 1074.22 232.499C1075.77 231.797 1077.02 230.011 1076.59 228.292C1076.09 226.324 1073.84 225.518 1072.71 223.867C1071.43 222.008 1071.79 219.478 1071.6 217.193C1071.41 214.91 1069.92 212.228 1067.77 212.611C1067.03 212.741 1066.37 213.235 1065.62 213.271C1062.79 213.409 1062 209.161 1058.67 210.747C1056.86 211.616 1055.84 215.939 1056.28 217.764Z" fill="black" stroke="black" stroke-width="0.25" stroke-miterlimit="10" stroke-linecap="round" stroke-linejoin="round"/>
<path d="M1095.51 118.307C1096.21 120.275 1095.44 122.452 1095.42 124.553C1095.4 126.654 1096.98 129.189 1098.87 128.516C1099.69 128.223 1100.23 127.409 1100.65 126.618C1102.75 122.723 1103.59 118.085 1102.99 113.648C1102.83 112.454 1102.29 111.011 1101.14 110.953C1100.51 110.922 1099.95 111.357 1099.49 111.82C1097.95 113.381 1096.92 115.495 1096.61 117.726" fill="black"/>
<path d="M1095.51 118.307C1096.21 120.275 1095.44 122.452 1095.42 124.553C1095.4 126.654 1096.98 129.189 1098.87 128.516C1099.69 128.223 1100.23 127.409 1100.65 126.618C1102.75 122.723 1103.59 118.085 1102.99 113.648C1102.83 112.454 1102.29 111.011 1101.14 110.953C1100.51 110.922 1099.95 111.357 1099.49 111.82C1097.95 113.381 1096.92 115.495 1096.61 117.726" stroke="black" stroke-width="0.25" stroke-miterlimit="10" stroke-linecap="round" stroke-linejoin="round"/>
<path d="M1133.86 209.425C1134.35 209.697 1135.1 209.871 1135.35 209.343C1135.42 209.183 1135.42 208.997 1135.41 208.82C1135.27 205.693 1133.17 202.972 1130.65 201.309C1128.55 199.922 1126.13 200.941 1127.35 203.676C1128.46 206.145 1131.65 208.215 1133.86 209.425Z" fill="black" stroke="black" stroke-width="0.25" stroke-miterlimit="10" stroke-linecap="round" stroke-linejoin="round"/>
<path d="M940.312 548.276C939.453 549.891 938.669 551.716 938.998 553.534C939.278 555.083 940.322 556.347 940.896 557.804C942.275 561.302 940.816 565.236 939.614 568.806C939.37 569.532 939.136 570.329 939.377 571.058C939.802 572.333 941.367 572.633 942.65 572.631C947.018 572.624 951.385 571.505 955.268 569.397C958.07 567.877 960.632 565.848 963.588 564.698C965.916 563.793 968.441 563.454 970.657 562.277C973.515 560.757 975.572 558.002 977.53 555.332C979.801 552.241 982.069 549.147 984.34 546.056C985.675 544.238 987.09 542.03 986.488 539.82C985.967 537.898 983.993 536.458 984.142 534.466C984.289 532.5 986.337 531.474 987.927 530.435C989.517 529.397 990.94 527.012 989.6 525.637C987.961 523.952 984.643 526.468 983.082 524.7C982.023 523.502 982.836 521.369 981.933 520.038C975.926 523.226 969.703 526.596 965.633 532.239C963.978 534.531 962.059 537.496 959.355 537.068C955.066 536.39 953.834 532.594 949.622 536.005C945.874 539.038 942.599 543.977 940.312 548.276Z" fill="black" stroke="black" stroke-width="0.25" stroke-miterlimit="10" stroke-linecap="round" stroke-linejoin="round"/>
<path d="M0.954779 3.70983C-2.01437 11.1245 2.48762 19.3429 6.97581 25.8523C12.551 33.9351 18.402 41.8025 24.5172 49.4375C29.4122 55.5474 34.7047 61.6888 41.6587 64.8963C45.0324 66.4528 48.707 67.2662 51.9427 69.118C60.4618 73.9958 64.079 84.7294 70.6539 92.2385C72.4855 94.3324 74.5813 96.2085 76.0245 98.6147C77.5918 101.232 78.2882 104.311 79.5062 107.126C85.4169 120.81 101.793 125.548 110.855 137.165C121.38 150.66 120.284 170.944 129.858 185.204C133.617 190.806 138.806 195.129 143.419 199.976C151.878 208.862 158.416 219.547 164.511 230.37C175.737 250.312 185.685 271.056 194.266 292.404C201.232 309.739 217.064 320.298 229.131 334.184C233.766 339.516 238.42 344.871 243.726 349.458C250.871 355.636 259.071 360.318 266.415 366.224C282.364 379.049 293.855 397.28 309.996 409.836C309.463 405.6 309.587 401.274 310.357 397.079C312.802 399.292 315.305 401.543 318.3 402.806C321.292 404.07 324.916 404.186 327.565 402.255C328.931 401.26 329.983 399.773 331.504 399.071C337.142 396.469 341.598 406.026 347.738 406.479C349.96 385.924 352.18 365.367 354.403 344.811C354.752 341.581 355.099 338.289 354.485 335.106C354.06 332.896 353.178 330.775 353.051 328.526C352.776 323.573 356.168 319.153 356.57 314.21C357.023 308.635 353.667 303.6 350.475 299.129C345.81 292.59 339.734 285.35 332.001 286.088C325.945 286.667 320.837 292.208 314.767 291.821C313.981 291.77 313.17 291.605 312.54 291.109C310.766 289.71 311.428 286.679 312.807 284.851C314.186 283.024 316.142 281.545 316.769 279.305C318.134 274.428 312.685 270.801 309.98 266.589C305.793 260.068 308.188 250.719 304.348 243.963C298.23 233.203 281.562 236.195 273.195 227.274C271.68 225.66 271.66 223.297 271.267 221.065C270.639 217.495 270.01 213.868 270.343 210.256C270.676 206.645 272.105 202.98 274.881 200.825C276.15 199.842 277.664 199.191 278.745 197.986C280.723 195.776 280.707 192.193 279.482 189.443C278.257 186.693 276.06 184.582 273.916 182.549C272.976 181.656 271.954 180.721 270.697 180.552C268.92 180.312 267.348 181.648 265.928 182.798C259.969 187.632 252.578 190.484 245.066 190.849C247.571 188.528 250.078 186.206 252.583 183.885C254.074 182.503 255.706 180.757 255.453 178.683C255.226 176.824 253.509 175.536 251.788 175.064C250.067 174.592 248.249 174.698 246.5 174.35C242.083 173.466 238.638 169.804 236.113 165.889C233.587 161.975 231.657 157.606 228.657 154.076C222.119 146.378 211.339 143.616 205.364 135.427C202.344 131.29 200.77 126.022 197.201 122.403C195.7 120.881 193.777 119.673 191.693 119.622C189.608 119.573 187.418 120.956 186.952 123.093C186.687 124.308 186.981 125.584 186.855 126.823C186.731 128.063 185.888 129.428 184.709 129.324C184.024 129.264 183.475 128.729 182.985 128.225C178.828 123.948 174.671 119.673 170.516 115.395C159.547 104.11 152.496 89.0092 141.578 77.6681C130.662 66.3294 117.317 57.0482 102.315 53.7222C100.497 53.3203 98.4448 52.8556 97.4635 51.1949C96.2639 49.1639 97.3187 46.5278 97.1119 44.1458C96.8683 41.3474 94.908 39.0985 93.0512 37.0796C84.7114 28.0164 75.2845 18.3867 63.3459 17.3216C58.1223 16.8568 52.1978 15.5351 46.9651 15.2252C42.5941 14.9662 38.1679 14.6975 33.9946 13.2984C30.3843 12.088 27.0773 10.0691 23.7244 8.2124C19.7969 6.03858 15.766 4.06566 11.6547 2.30821C8.02144 0.758936 2.47612 -0.0834548 0.954779 3.70983Z" fill="#FBFBFB" stroke="black" stroke-width="0.25" stroke-miterlimit="10" stroke-linecap="round" stroke-linejoin="round"/>
<path d="M354.633 412.535C349.938 415.159 352.833 424.016 348.625 427.435C347.768 428.132 346.711 428.495 345.81 429.127C342.294 431.593 341.775 437.597 337.831 439.197C337.054 437.362 335.198 435.989 333.299 436.2C331.403 436.411 329.779 438.463 330.208 440.419C330.79 443.065 334.009 443.743 336.583 443.886C345.208 444.36 353.831 444.835 362.455 445.312C363.839 445.387 365.298 445.491 366.443 446.311C369.494 448.5 368.148 453.646 369.867 457.089C371.521 460.403 375.532 461.342 379.045 461.908C389.8 463.639 400.581 465.094 411.368 466.534C420.462 467.749 427.225 475.931 437.233 475.784C441.455 475.721 445.559 474.426 449.717 473.661C480.247 468.038 508.991 490.86 539.866 493.707C554.28 495.036 568.891 491.952 583.22 494.073C602.782 496.97 620.608 509.393 640.36 509.732C640.443 506.498 636.309 505.324 634.424 502.77C631.101 498.263 635.764 492.112 636.297 486.433C636.98 479.146 630.255 473.123 623.437 471.703C616.618 470.282 609.614 472.02 602.678 472.499C595.742 472.981 587.961 471.778 583.563 466.106C582.255 464.419 581.306 462.4 579.738 460.979C577.999 459.403 575.51 458.548 574.559 456.35C573.559 454.041 574.731 451.225 573.931 448.831C572.424 444.317 566.318 445.089 561.823 444.397C555.158 443.37 549.764 437.321 543.038 436.992C539.641 436.825 536.355 438.161 532.988 438.645C529.619 439.129 525.662 438.456 523.839 435.433C522.941 433.944 522.667 432.041 521.486 430.792C519.184 428.354 515.079 429.991 512.967 432.61C510.853 435.229 509.651 438.664 507.116 440.831C503.899 443.583 499.374 443.634 495.23 443.552C479.987 443.254 464.744 442.959 449.503 442.661C448.266 442.637 446.973 442.598 445.897 441.954C443.925 440.778 443.408 438.11 442.68 435.849C440.407 428.797 433.984 423.443 426.945 422.736C422.571 422.295 418.019 423.489 413.836 422.073C406.733 419.666 402.137 410.252 394.695 410.826C392.023 411.032 389.637 412.574 387.16 413.648C377.696 417.752 366.95 415.045 357.057 412.29L354.633 412.535Z" fill="#FBFBFB" stroke="black" stroke-width="0.25" stroke-miterlimit="10" stroke-linecap="round" stroke-linejoin="round"/>
<path d="M641.615 489.46C640.473 490.6 640.082 492.498 640.675 494.033C641.675 496.623 644.683 497.439 647.227 498.24C651.584 499.615 656.203 502.701 656.594 507.475C656.782 509.777 655.93 512.009 655.227 514.197C655.031 514.807 654.988 515.715 655.583 515.863C655.806 515.918 656.033 515.826 656.242 515.727C660.292 513.808 662.406 509.073 665.943 506.245C667.841 504.727 670.107 503.795 672.037 502.326C673.968 500.857 675.62 498.559 675.372 496.064C675.243 494.778 674.62 493.599 673.853 492.592C671.727 489.804 668.349 488.124 664.955 488.162C662.19 488.194 659.538 489.29 656.796 489.666C652.839 490.205 644.642 486.439 641.615 489.46Z" fill="#FBFBFB" stroke="black" stroke-width="0.25" stroke-miterlimit="10" stroke-linecap="round" stroke-linejoin="round"/>
<path d="M690.982 496.126C689.454 498.581 689.387 501.689 688.859 504.572C688.33 507.455 686.931 510.595 684.233 511.336C683.727 511.474 683.104 511.602 682.939 512.122C682.787 512.599 683.144 513.081 683.493 513.422C686.283 516.143 690.279 516.94 694.066 517.291C697.429 517.603 701.452 517.315 703.224 514.289C704.635 511.88 703.974 508.719 704.81 506.029C705.318 504.4 706.352 503.02 707.145 501.524C707.94 500.028 708.505 498.23 707.97 496.61C707.513 495.223 706.308 494.221 705.003 493.703C700.632 491.965 693.885 491.464 690.982 496.126Z" fill="#FBFBFB" stroke="black" stroke-width="0.25" stroke-miterlimit="10" stroke-linecap="round" stroke-linejoin="round"/>
<path d="M712.541 511.538C712.051 512.915 711.367 514.28 711.406 515.752C711.475 518.275 713.655 520.187 715.882 521.119C720.32 522.976 725.325 522.31 729.995 521.257C739.652 519.081 748.993 515.355 757.6 510.252C758.919 509.468 760.468 508.628 761.874 509.221C762.52 509.492 763.026 510.032 763.55 510.516C766.277 513.036 770.042 514.266 773.647 513.816C774.923 513.656 776.306 513.198 776.952 512.027C777.317 511.366 777.398 510.555 777.802 509.923C779.551 507.197 784.543 510.446 786.485 507.868C787.257 506.844 787.091 505.37 786.797 504.101C786.147 501.291 785.055 498.596 783.578 496.159C783.336 495.759 783.065 495.348 782.658 495.145C781.16 494.389 780.11 496.764 778.809 497.848C777.423 499.001 775.077 498.437 774.305 496.764C773.955 496.009 773.898 495.108 773.427 494.428C772.567 493.181 770.743 493.247 769.407 493.881C768.072 494.515 766.921 495.575 765.508 495.987C762.918 496.742 760.243 495.128 758.232 493.249C756.221 491.371 754.401 489.098 751.884 488.103C749.368 487.108 745.852 488.139 745.316 490.915C744.868 493.239 746.732 495.411 748.78 496.401C750.827 497.391 753.141 497.643 755.175 498.662C757.209 499.681 759.02 501.925 758.48 504.227C758.273 505.111 757.742 505.876 757.11 506.495C754.183 509.369 749.478 509.049 745.806 507.372C742.136 505.694 739.006 502.908 735.375 501.138C731.077 499.042 724.673 498.032 719.978 499.221C714.389 500.635 714.246 506.73 712.541 511.538Z" fill="#FBFBFB" stroke="black" stroke-width="0.25" stroke-miterlimit="10" stroke-linecap="round" stroke-linejoin="round"/>
<path d="M793.952 532.886C791.764 533.094 789.526 533.668 787.818 535.122C786.111 536.577 785.07 539.073 785.75 541.273C786.69 544.314 790.174 545.437 793.184 545.858C799.136 546.691 805.357 546.587 810.847 549.151C815.246 551.206 818.796 554.808 822.267 558.323C824.48 560.562 826.787 562.852 829.669 563.958C835.407 566.159 842.538 562.317 844.207 556.129C844.544 554.878 844.675 553.52 844.276 552.293C843.333 549.41 840.065 548.402 837.377 547.279C833.068 545.478 829.255 542.375 826.516 538.434C825.181 536.512 824.078 534.379 822.421 532.757C818.098 528.531 814.136 532.256 809.423 532.953C804.295 533.704 799.095 532.397 793.952 532.886Z" fill="#FBFBFB" stroke="black" stroke-width="0.25" stroke-miterlimit="10" stroke-linecap="round" stroke-linejoin="round"/>
<path d="M811.196 507.405C811.2 508.843 811.501 510.334 812.349 511.459C813.668 513.205 815.967 513.696 818.076 513.873C825.927 514.529 834.172 512.532 841.505 515.555C844.134 516.64 846.6 518.358 849.413 518.647C855.692 519.29 861.414 512.655 867.547 514.202C869.154 514.606 870.618 515.56 872.256 515.785C875.356 516.211 878.146 514.001 881.007 512.675C885.958 510.382 891.657 510.677 896.777 508.84C901.178 507.262 904.933 504.19 908.598 501.174C910.844 499.324 913.176 497.361 914.307 494.606C915.44 491.851 914.886 488.08 912.363 486.683C911.949 486.456 911.469 486.296 911.018 486.422C909.401 486.872 910.248 489.397 910.313 491.157C910.407 493.669 908.12 495.55 905.903 496.477C903.685 497.407 901.18 497.925 899.507 499.719C897.919 501.421 897.179 504.171 895.042 504.962C891.891 506.129 889.345 502.144 886.302 500.694C882.157 498.719 877.556 501.68 873.162 502.924C864.831 505.282 856.227 501.295 848.23 497.889C839.157 494.025 811.141 489.353 811.196 507.405Z" fill="#FBFBFB" stroke="black" stroke-width="0.25" stroke-miterlimit="10" stroke-linecap="round" stroke-linejoin="round"/>
<path d="M470.751 129.662C467.062 135.012 463.376 140.36 459.688 145.71C458.562 147.344 457.385 149.125 457.371 151.144C457.357 153.165 459.132 155.293 460.972 154.724C459.98 157.392 456.976 158.409 454.903 160.261C451.663 163.158 450.824 168.058 450.845 172.536C450.891 182.815 455.039 193.739 463.599 198.67C459.469 200.75 457.619 206.729 459.796 210.973C461.878 215.037 467.053 218.131 465.996 222.611C465.78 223.526 465.297 224.371 465.212 225.308C465.022 227.424 466.853 229.097 468.604 230.15C472.134 232.275 476.087 233.531 479.626 235.64C483.165 237.748 486.428 241.033 487.076 245.262C487.913 250.718 484.25 256.504 486.265 261.607C487.221 264.03 489.283 265.734 490.859 267.768C496.276 274.752 495.579 284.769 495.104 293.774C495 295.737 494.934 297.782 495.667 299.591C496.4 301.399 498.179 302.895 500.022 302.58C501.405 302.343 502.536 301.171 503.928 300.997C505.799 300.76 507.373 302.336 509.069 303.202C511.282 304.333 513.854 304.27 516.313 304.183C525.501 303.856 534.688 303.529 543.879 303.205C544.839 303.171 545.832 303.142 546.721 303.524C552.028 305.795 546.487 316.647 551.421 319.709C550.971 322.275 550.674 324.715 552.547 326.422C557.548 321.179 565.458 321.283 572.419 320.075C579.382 318.869 587.37 313.965 586.655 306.57C592.711 311.653 600.683 314.132 608.389 313.323C606.081 316.698 607.766 322.22 611.507 323.546C615.251 324.873 619.76 321.547 619.858 317.388C624.995 322.169 632.553 323.875 639.098 321.728C640.656 330.428 641.086 339.349 640.378 348.17C653.372 343.544 665.781 337.105 677.182 329.073C684.913 323.626 693.032 314.996 690.582 305.546C695.974 303.244 699.118 296.282 697.412 290.423C700.31 292.98 704.895 288.45 703.932 284.602C702.969 280.753 699.051 278.637 695.392 277.639C698.348 275.688 700.694 272.314 700.579 268.642C700.462 264.969 697.194 261.45 693.758 262.096C701.733 255.87 710.64 247.342 708.88 237.051C707.993 239.489 710.592 242.055 713.069 242.009C715.547 241.963 717.686 240.268 719.633 238.651C724.914 234.258 730.498 229.397 732.286 222.563C734.143 215.465 731.447 207.862 732.459 200.575C734.437 186.327 749.979 176.061 748.704 161.725C758.74 170.554 774.213 171.715 785.336 164.475C770.182 155.276 756.683 143.061 745.767 128.665C749.067 127.44 750.676 123.267 750.292 119.602C749.908 115.939 748.012 112.671 746.164 109.544C742.31 103.025 738.457 96.5057 734.605 89.9867C730.241 82.6034 725.877 75.2202 721.513 67.837C724.491 71.2478 730.36 71.0808 733.157 67.5053C734.628 69.4419 737.204 71.335 739.121 69.8946C741.759 67.912 738.964 63.775 736.593 61.4463C734.221 59.1175 733.387 53.4821 736.627 53.6225C720.626 44.8546 701.595 42.3951 684.054 46.825C681.323 47.5149 678.536 48.4179 676.419 50.3593C674.078 52.5089 672.834 55.6776 671.887 58.7956C669.495 66.6847 668.512 75.0459 669.001 83.3127C669.098 84.954 669.24 86.6776 668.594 88.1736C666.721 92.5212 660.293 91.6497 657 94.9322C652.342 99.58 656.989 108.132 654.757 114.47C653.907 116.886 652.112 118.767 650.492 120.696C644.448 127.905 640.286 136.847 638.581 146.298C630.77 143.386 621.768 144.243 614.58 148.585C612.606 149.776 610.726 151.234 608.527 151.846C603.494 153.25 598.516 149.97 593.793 147.658C582.521 142.141 567.526 142.606 559.352 152.468C556.468 155.947 554.369 160.546 550.316 162.306C545.366 164.453 539.868 161.423 534.525 161.076C525.489 160.491 517.211 167.658 508.175 167.06C503.117 166.724 498.493 163.969 494.394 160.829C483.85 152.756 475.878 142.291 470.751 129.662Z" fill="#FBFBFB" stroke="black" stroke-width="0.25" stroke-miterlimit="10" stroke-linecap="round" stroke-linejoin="round"/>
<path d="M812.761 201.238C808.983 202.015 807.761 207.256 808.641 211.204C809.521 215.15 811.674 218.851 811.573 222.903C800.866 227.309 793.641 239.669 794.726 251.725C795.077 255.639 796.21 259.565 795.558 263.439C795.135 265.951 793.986 268.251 793.03 270.597C790.325 277.234 789.107 284.535 789.502 291.747C786.317 290.648 782.81 293.063 781.328 296.23C779.846 299.396 779.876 303.083 779.935 306.612C780.004 310.609 780.073 314.608 780.142 318.605C780.204 322.207 780.891 326.721 784.182 327.707C787.995 328.847 792.423 324.034 795.595 326.54C796.587 327.324 797.061 328.622 797.463 329.856C802.778 346.213 803.771 364.1 800.303 380.997C799.301 385.879 798.12 391.607 801.246 395.364C807.728 403.156 822.335 391.858 829.099 399.38C829.611 383.662 830.123 367.942 830.634 352.224C831.089 338.222 831.518 323.954 827.915 310.468C827.283 308.106 826.534 305.564 827.343 303.262C828.563 299.791 832.585 298.629 836.041 297.946C839.307 297.302 842.572 296.656 845.838 296.012C846.884 295.804 847.989 295.603 848.993 295.973C851.032 296.726 851.714 299.391 851.797 301.664C852.132 310.863 847.837 320.962 852.489 328.755C854.948 332.875 859.335 335.143 863.195 337.815C867.056 340.488 870.86 344.378 870.857 349.244C870.855 355.221 865.153 361.345 868.235 366.366C869.053 367.699 870.368 368.593 871.639 369.447C875.715 372.18 881.518 374.753 884.867 371.084C886.117 369.714 886.613 367.791 887.422 366.095C890.338 359.975 898.117 357.041 904.058 359.822C904.373 357.852 904.69 355.879 905.005 353.909C907.289 355.564 910.718 353.543 911.426 350.718C912.133 347.893 910.835 344.908 909.059 342.667C903.934 336.194 894.422 332.846 893.052 324.543C892.519 321.313 893.436 318.036 893.595 314.763C894.034 305.613 888.555 297.329 882.476 290.773C876.398 284.218 869.345 278.382 865.176 270.34C864.857 269.725 864.551 269.072 864.538 268.37C864.496 266.082 867.24 265.126 869.377 264.722C885.053 261.754 899.43 251.819 908.254 237.854C909.654 235.639 911.109 233.162 913.501 232.303C917.603 230.826 922.367 234.852 926.248 232.819C929.693 231.015 929.562 225.135 926.549 222.62C923.534 220.105 919.023 220.55 915.684 222.564C914.154 223.489 912.761 224.709 911.09 225.307C908.355 226.285 905.363 225.443 902.477 225.561C894.371 225.895 887.273 233.76 879.305 232.165C876.426 231.589 873.783 229.783 870.853 229.759C863.349 229.693 860.378 240.035 854.336 244.724C848.653 249.132 839.599 247.459 835.68 241.277C834.504 239.418 833.771 237.287 832.688 235.365C831.208 232.736 829.11 230.563 827.327 228.149C822.243 221.269 819.784 212.107 821.455 203.569C823.126 195.031 829.163 187.401 837.08 184.857C841.278 183.506 845.753 183.566 850.142 183.637C865.45 183.884 880.758 184.13 896.065 184.377C907.114 184.557 918.469 184.799 928.68 189.248C932.115 190.746 935.533 192.743 939.251 192.705C943.059 192.666 946.52 190.495 949.73 188.34C964.776 178.238 979.682 166.207 987.153 149.139C987.929 147.364 988.499 144.953 987.07 143.707C985.84 142.634 983.993 143.23 982.556 143.968C969.168 150.843 959.217 165.973 944.374 167.306C935.478 168.105 926.292 163.588 917.798 166.486C915.967 167.11 914.176 168.081 912.253 168.062C909.856 168.037 907.751 166.5 905.577 165.435C893.009 159.284 875.745 168.192 865.406 158.473C863.765 156.931 862.414 154.978 860.461 153.912C854.973 150.918 848.887 156.268 844.627 160.986C840.98 165.021 836.898 167.701 831.597 168.19C827.352 168.582 825.704 167.304 822.213 170.54C818.562 173.927 816.153 180.461 814.715 185.208C814.319 186.498 812.054 201.383 812.761 201.238Z" fill="#FBFBFB" stroke="black" stroke-width="0.25" stroke-miterlimit="10" stroke-linecap="round" stroke-linejoin="round"/>
<path d="M1191.76 228.753C1187.48 234.715 1184.34 241.58 1182.58 248.821C1191.09 247.622 1201.02 246.918 1206.92 253.481C1211.96 259.08 1212.13 268.138 1217.1 273.81C1221.35 278.663 1228.1 279.915 1234.35 280.314C1246.82 281.113 1259.41 279.622 1271.4 275.928C1271.14 281.041 1270.88 286.156 1270.63 291.268C1266.14 285.911 1257.91 284.575 1252.1 288.264C1248.3 290.675 1245.55 294.885 1241.36 296.395C1238.45 297.446 1235.28 297.025 1232.2 296.892C1228.68 296.737 1225.14 296.974 1221.66 297.598C1219.2 298.039 1216.1 299.789 1216.83 302.302C1217.16 303.461 1218.25 304.176 1219.28 304.715C1223.2 306.771 1227.55 307.804 1231.53 309.738C1235.51 311.673 1239.32 314.839 1240.45 319.3C1242 325.393 1238.18 332.101 1240.24 338.025C1241.57 341.849 1245.45 344.507 1249.31 344.234C1256.49 343.723 1260.21 335.079 1261.85 327.698C1263.49 320.317 1265.51 311.59 1272.23 308.857C1273.08 312.97 1271.73 317.247 1272.05 321.443C1272.75 330.293 1280.89 336.759 1289.15 338.523C1291.61 339.049 1294.11 339.266 1296.61 339.484C1300.12 339.789 1303.63 340.094 1307.14 340.399C1307.14 349.947 1316.16 358.361 1325.16 357.192C1334.18 356.02 1342.71 359.274 1351.05 363.086C1359.39 366.897 1367.43 371.656 1376.29 373.81C1381.43 375.059 1386.93 375.469 1391.42 378.383C1394.31 380.254 1396.55 383.024 1398.95 385.551C1405.44 392.402 1413.39 397.717 1422.03 400.993C1420.15 401.629 1418.71 403.505 1418.51 405.575C1420.31 406.602 1422.12 407.628 1423.92 408.652C1421.63 410.494 1422.74 414.3 1424.1 416.972C1428.76 426.122 1434 434.939 1439.79 443.339C1436.56 445.009 1436.12 450.545 1439.03 452.77C1442.13 455.135 1446.86 453.486 1449.98 455.818C1446.4 457.013 1442.82 458.209 1439.24 459.405C1443.23 460.608 1445.76 465.048 1446.02 469.405C1446.28 473.765 1444.69 478.016 1442.71 481.855C1441.67 483.867 1440.49 486.21 1441.34 488.316C1442.41 490.962 1446.17 491.218 1448.36 489.509C1450.56 487.8 1451.56 484.915 1452.45 482.199C1453.71 488.447 1460.6 491.935 1466.63 491.31C1472.67 490.686 1477.99 487.059 1483.05 483.537C1481.02 486.89 1481.93 491.48 1484.11 494.726C1486.29 497.972 1489.51 500.233 1492.52 502.644C1499.12 507.936 1504.97 514.271 1509.8 521.371V293.783C1506.51 294.836 1503.96 290.932 1501.2 288.78C1496.45 285.088 1490.32 284.214 1484.5 283.154C1470.17 280.544 1456.14 276.117 1442.81 269.997C1433.89 265.906 1425.27 261.05 1416.02 257.864C1410.49 255.957 1404.58 254.657 1398.84 255.729C1393.11 256.804 1387.57 260.66 1385.64 266.451C1385.13 267.986 1384.87 269.634 1384.06 271.024C1380.7 276.858 1372.07 273.657 1365.91 275.797C1360.06 277.833 1357.14 284.493 1353.92 290.038C1347.06 301.89 1336.05 311.007 1323.49 315.231C1319.68 316.514 1314.75 317.008 1312.37 313.612C1310.78 311.336 1311.05 308.204 1310.2 305.524C1309.35 302.844 1305.88 300.59 1304.14 302.735C1303.05 300.433 1303.66 297.695 1303.55 295.129C1303.43 292.563 1301.84 289.533 1299.42 289.833C1295.45 290.324 1296.95 297.136 1294.61 300.544C1289.09 288.751 1283.42 275.95 1285.51 262.984C1286.24 258.419 1287.94 253.815 1287 249.29C1285.99 244.42 1282.01 240.326 1282.25 235.344C1282.37 232.853 1283.55 230.307 1282.74 227.964C1281.47 224.301 1276.75 224.11 1273.05 224.052C1265.68 223.935 1258.36 221.689 1252.09 217.627C1248.51 215.313 1245.16 212.367 1241.07 211.384C1236.54 210.297 1231.86 211.786 1227.47 213.371C1215.32 217.755 1199.5 217.961 1191.76 228.753Z" fill="#FBFBFB" stroke="black" stroke-width="0.25" stroke-miterlimit="10" stroke-linecap="round" stroke-linejoin="round"/>
<path d="M1035.12 334.395C1037.99 336.15 1041.3 337.641 1044.55 336.944C1046.4 336.547 1048.04 335.479 1049.59 334.341C1052.73 332.027 1055.82 329.035 1056.53 325.063C1057.48 319.761 1053.88 314.76 1049.99 311.252C1044.03 305.883 1027.02 304.242 1019.99 309.158C1010.17 316.021 1029.06 330.657 1035.12 334.395Z" fill="#FBFBFB" stroke="black" stroke-width="0.25" stroke-miterlimit="10" stroke-linecap="round" stroke-linejoin="round"/>
<path d="M1084.35 303.353C1095.86 294.762 1112.57 305.89 1125.7 300.458C1128 299.509 1130.38 298.037 1132.76 298.718C1134.69 299.27 1136 301.09 1137.57 302.38C1144.26 307.851 1154.32 303.203 1162.29 306.222C1167.17 308.069 1170.73 312.683 1172.71 317.728C1174.69 322.773 1175.3 328.277 1175.89 333.7C1176.01 334.835 1176.04 336.203 1175.16 336.873C1174.27 337.554 1173.03 337.065 1172.04 336.542C1160.8 330.562 1150.62 322.148 1138.59 318.188C1137.41 317.798 1136.08 317.464 1134.97 318.038C1134.01 318.534 1133.45 319.587 1132.67 320.357C1130 322.983 1125.64 321.756 1122.51 319.778C1119.38 317.8 1116.28 315.128 1112.63 315.254C1107.83 315.421 1103.7 320.478 1099.02 319.371C1095.78 318.606 1093.79 315.169 1090.84 313.562C1085.44 310.613 1081.93 315.401 1078.37 318.452C1077.02 313.024 1080.1 306.527 1084.35 303.353Z" fill="#FBFBFB" stroke="black" stroke-width="0.25" stroke-miterlimit="10" stroke-linecap="round" stroke-linejoin="round"/>
<path d="M1088.6 324.788C1085.4 325.435 1082.41 327.226 1080.25 329.799C1079.75 330.392 1079.27 331.123 1079.39 331.905C1079.65 333.648 1082.09 333.467 1083.65 332.811C1085.38 332.075 1087.13 331.339 1088.87 330.603C1090.08 330.09 1091.35 329.538 1092.2 328.482C1093.04 327.429 1093.3 325.708 1092.4 324.706" fill="#FBFBFB"/>
<path d="M1088.6 324.788C1085.4 325.435 1082.41 327.226 1080.25 329.799C1079.75 330.392 1079.27 331.123 1079.39 331.905C1079.65 333.648 1082.09 333.467 1083.65 332.811C1085.38 332.075 1087.13 331.339 1088.87 330.603C1090.08 330.09 1091.35 329.538 1092.2 328.482C1093.04 327.429 1093.3 325.708 1092.4 324.706" stroke="black" stroke-width="0.25" stroke-miterlimit="10" stroke-linecap="round" stroke-linejoin="round"/>
<path d="M1146.95 261.703C1145.11 261.722 1143.18 262.293 1141.92 263.705C1140.66 265.116 1140.27 267.486 1141.39 269.025C1142.46 270.49 1144.41 270.797 1146.16 270.887C1149.26 271.047 1152.37 270.892 1155.44 270.424C1157.64 270.09 1160.05 269.439 1161.27 267.478C1163.2 264.348 1160.55 259.909 1157.14 258.882C1153.73 257.858 1150.12 259.137 1146.78 260.4" fill="#FBFBFB"/>
<path d="M1146.95 261.703C1145.11 261.722 1143.18 262.293 1141.92 263.705C1140.66 265.116 1140.27 267.486 1141.39 269.025C1142.46 270.49 1144.41 270.797 1146.16 270.887C1149.26 271.047 1152.37 270.892 1155.44 270.424C1157.64 270.09 1160.05 269.439 1161.27 267.478C1163.2 264.348 1160.55 259.909 1157.14 258.882C1153.73 257.858 1150.12 259.137 1146.78 260.4" stroke="black" stroke-width="0.25" stroke-miterlimit="10" stroke-linecap="round" stroke-linejoin="round"/>
<path d="M1009.55 273.265C1010.89 278.355 1014.1 282.872 1018.37 285.651C1019.2 282.945 1019.22 279.965 1018.41 277.249C1017.98 275.792 1017.28 274.361 1016.1 273.468C1014.93 272.575 1013.21 272.359 1012.05 273.267" fill="#FBFBFB"/>
<path d="M1009.55 273.265C1010.89 278.355 1014.1 282.872 1018.37 285.651C1019.2 282.945 1019.22 279.965 1018.41 277.249C1017.98 275.792 1017.28 274.361 1016.1 273.468C1014.93 272.575 1013.21 272.359 1012.05 273.267" stroke="black" stroke-width="0.25" stroke-miterlimit="10" stroke-linecap="round" stroke-linejoin="round"/>
<path d="M1008.82 262.162C1004.73 261.305 1000.28 262.694 997.287 265.757C1001.28 268.08 1006.11 267.887 1010.67 267.616C1015.72 267.313 1020.76 266.991 1025.8 266.645C1026.43 265.369 1025.77 263.718 1024.67 262.864C1023.57 262.009 1022.16 261.762 1020.81 261.586C1016.32 260.997 1011.78 260.886 1007.28 261.254" fill="#FBFBFB"/>
<path d="M1008.82 262.162C1004.73 261.305 1000.28 262.694 997.287 265.757C1001.28 268.08 1006.11 267.887 1010.67 267.616C1015.72 267.313 1020.76 266.991 1025.8 266.645C1026.43 265.369 1025.77 263.718 1024.67 262.864C1023.57 262.009 1022.16 261.762 1020.81 261.586C1016.32 260.997 1011.78 260.886 1007.28 261.254" stroke="black" stroke-width="0.25" stroke-miterlimit="10" stroke-linecap="round" stroke-linejoin="round"/>
<path d="M975.838 259.166C973.007 258.071 970.029 256.958 967.041 257.408C964.054 257.858 961.124 260.444 961.282 263.617C961.452 267.047 965.182 269.311 968.42 268.89C970.194 268.66 971.853 267.849 973.602 267.457C978.486 266.362 983.886 268.548 988.42 266.348C988.963 266.084 989.517 265.716 989.721 265.125C989.979 264.38 989.588 263.566 989.14 262.93C986.003 258.459 980.14 257.483 974.894 256.878" fill="#FBFBFB"/>
<path d="M975.838 259.166C973.007 258.071 970.029 256.958 967.041 257.408C964.054 257.858 961.124 260.444 961.282 263.617C961.452 267.047 965.182 269.311 968.42 268.89C970.194 268.66 971.853 267.849 973.602 267.457C978.486 266.362 983.886 268.548 988.42 266.348C988.963 266.084 989.517 265.716 989.721 265.125C989.979 264.38 989.588 263.566 989.14 262.93C986.003 258.459 980.14 257.483 974.894 256.878" stroke="black" stroke-width="0.25" stroke-miterlimit="10" stroke-linecap="round" stroke-linejoin="round"/>
<path d="M1063.19 257.132C1064.03 258.526 1065.75 258.966 1067.3 259.201C1071.99 259.908 1076.79 259.797 1081.44 258.879C1083.11 258.55 1085.14 257.669 1085.18 255.878C1085.2 255.132 1084.83 254.437 1084.44 253.82C1079.32 245.834 1057.37 247.453 1063.19 257.132Z" fill="#FBFBFB" stroke="black" stroke-width="0.25" stroke-miterlimit="10" stroke-linecap="round" stroke-linejoin="round"/>
<path d="M1078.3 187.827C1078.51 186.513 1078.81 185.138 1079.68 184.17C1081.34 182.323 1084.18 182.734 1086.52 183.364C1095.23 185.704 1103.69 189.089 1111.67 193.429C1113.12 188.423 1108.06 184.121 1103.53 181.969C1099 179.817 1093.52 177.096 1093.12 171.882C1092.72 166.641 1097.75 163.037 1101.8 159.962C1105.85 156.888 1109.77 151.095 1106.8 146.864C1104.91 144.165 1100.99 143.891 1098.11 145.336C1095.24 146.782 1093.17 149.512 1091.21 152.153C1088.28 156.097 1085.35 160.037 1082.41 163.981C1081.13 165.709 1079.76 167.503 1077.85 168.389C1075.95 169.275 1073.34 168.897 1072.31 166.987C1071.26 165.019 1072.33 162.487 1073.86 160.904C1075.39 159.319 1077.36 158.22 1078.7 156.455C1082.68 151.221 1079.38 143.625 1079.26 136.922C1079.16 131.935 1080.94 127.149 1082.7 122.519C1070.45 129.556 1063.67 145.75 1066.99 160.023C1067.61 162.712 1068.56 165.37 1068.53 168.137C1068.5 171.212 1067.26 174.247 1067.71 177.285C1068.17 180.364 1070.27 182.855 1071.46 185.709C1073.71 191.108 1072.57 197.314 1072.86 203.204C1073.18 209.609 1075.44 215.821 1079.01 220.989C1080.63 223.33 1089.72 234.102 1089.36 225.24C1089.19 221.151 1081.62 213.269 1080.09 208.651C1077.9 202.001 1077.18 194.785 1078.3 187.827Z" fill="#FBFBFB" stroke="black" stroke-width="0.25" stroke-miterlimit="10" stroke-linecap="round" stroke-linejoin="round"/>
<path d="M1054.08 214.724C1054.59 216.854 1057.52 218.217 1058.83 216.515C1058.94 219.137 1059.25 222.158 1061.33 223.615C1062.58 224.496 1064.55 225.002 1064.56 226.588C1064.56 227.161 1064.27 227.716 1064.33 228.287C1064.46 229.471 1065.9 229.843 1067.03 229.926C1068.71 230.049 1070.47 230.158 1072.02 229.459C1073.57 228.757 1074.82 226.97 1074.38 225.251C1073.89 223.283 1071.64 222.477 1070.51 220.826C1069.24 218.967 1069.59 216.437 1069.4 214.152C1069.21 211.867 1067.72 209.187 1065.57 209.57C1064.83 209.701 1064.17 210.194 1063.42 210.231C1060.59 210.371 1059.8 206.12 1056.47 207.706C1054.66 208.573 1053.64 212.896 1054.08 214.724Z" fill="#FBFBFB" stroke="black" stroke-width="0.25" stroke-miterlimit="10" stroke-linecap="round" stroke-linejoin="round"/>
<path d="M1093.31 115.268C1094.01 117.236 1093.24 119.413 1093.22 121.514C1093.2 123.615 1094.78 126.15 1096.67 125.474C1097.49 125.181 1098.02 124.368 1098.45 123.576C1100.55 119.681 1101.39 115.043 1100.79 110.606C1100.63 109.413 1100.09 107.97 1098.94 107.912C1098.31 107.88 1097.75 108.316 1097.29 108.778C1095.75 110.34 1094.72 112.455 1094.41 114.685" fill="#FBFBFB"/>
<path d="M1093.31 115.268C1094.01 117.236 1093.24 119.413 1093.22 121.514C1093.2 123.615 1094.78 126.15 1096.67 125.474C1097.49 125.181 1098.02 124.368 1098.45 123.576C1100.55 119.681 1101.39 115.043 1100.79 110.606C1100.63 109.413 1100.09 107.97 1098.94 107.912C1098.31 107.88 1097.75 108.316 1097.29 108.778C1095.75 110.34 1094.72 112.455 1094.41 114.685" stroke="black" stroke-width="0.25" stroke-miterlimit="10" stroke-linecap="round" stroke-linejoin="round"/>
<path d="M1131.66 206.384C1132.15 206.655 1132.9 206.829 1133.14 206.304C1133.22 206.144 1133.22 205.958 1133.21 205.781C1133.07 202.654 1130.97 199.933 1128.45 198.27C1126.35 196.883 1123.93 197.899 1125.16 200.637C1126.26 203.104 1129.45 205.174 1131.66 206.384Z" fill="#FBFBFB" stroke="black" stroke-width="0.25" stroke-miterlimit="10" stroke-linecap="round" stroke-linejoin="round"/>
<path d="M938.113 545.237C937.254 546.852 936.47 548.677 936.799 550.495C937.079 552.044 938.12 553.308 938.697 554.765C940.076 558.263 938.617 562.197 937.415 565.768C937.171 566.494 936.935 567.29 937.178 568.019C937.603 569.295 939.168 569.595 940.451 569.592C944.819 569.585 949.186 568.467 953.069 566.358C955.871 564.838 958.433 562.809 961.389 561.66C963.717 560.754 966.242 560.415 968.458 559.239C971.316 557.719 973.373 554.964 975.334 552.294C977.604 549.203 979.872 546.109 982.143 543.018C983.478 541.197 984.891 538.992 984.291 536.782C983.77 534.86 981.796 533.419 981.945 531.427C982.092 529.461 984.14 528.435 985.73 527.397C987.32 526.358 988.743 523.974 987.403 522.599C985.762 520.914 982.446 523.429 980.886 521.662C979.826 520.464 980.64 518.331 979.737 517C973.729 520.188 967.506 523.557 963.436 529.2C961.782 531.492 959.863 534.458 957.158 534.029C952.87 533.352 951.638 529.556 947.425 532.967C943.675 536 940.4 540.938 938.113 545.237Z" fill="#FBFBFB" stroke="black" stroke-width="0.25" stroke-miterlimit="10" stroke-linecap="round" stroke-linejoin="round"/>
</svg>
