<?xml version="1.0" encoding="UTF-8"?>
<!DOCTYPE svg PUBLIC "-//W3C//DTD SVG 1.1//EN" "http://www.w3.org/Graphics/SVG/1.1/DTD/svg11.dtd">
<!-- Creator: CorelDRAW -->
<svg xmlns="http://www.w3.org/2000/svg" xml:space="preserve" width="210mm" height="297mm" version="1.1" style="shape-rendering:geometricPrecision; text-rendering:geometricPrecision; image-rendering:optimizeQuality; fill-rule:evenodd; clip-rule:evenodd"
viewBox="0 0 21000 29700"
 xmlns:xlink="http://www.w3.org/1999/xlink">
 <defs>
  <style type="text/css">
   <![CDATA[
    .fil1 {fill:#00609D}
    .fil2 {fill:#00997C}
    .fil3 {fill:#00AC8C}
    .fil4 {fill:#89C651}
    .fil0 {fill:url(#id0)}
   ]]>
  </style>
  <radialGradient id="id0" gradientUnits="userSpaceOnUse" gradientTransform="matrix(1.69439 0.986723 -0.986722 1.69439 2684 -22476)" cx="13953.5" cy="12539.8" r="10719.3" fx="13953.5" fy="12539.8">
   <stop offset="0" style="stop-opacity:1; stop-color:#00ADE3"/>
   <stop offset="0.709804" style="stop-opacity:1; stop-color:#0086C0"/>
   <stop offset="1" style="stop-opacity:1; stop-color:#00609E"/>
  </radialGradient>
 </defs>
 <g id="Layer_x0020_1">
  <metadata id="CorelCorpID_0Corel-Layer"/>
  <g id="Jak_x0020_Lingko.cdr">
   <path class="fil0" d="M12210 12179c367,-11 743,2 1105,23 56,3 220,23 262,4 79,-36 57,-129 10,-189l-531 -613c-227,-226 -505,-468 -775,-648 -59,-39 -141,-70 -151,-139 46,-73 166,-59 245,-32 59,20 143,80 194,114 366,241 558,392 862,696l438 504c33,42 108,132 199,97 54,-21 88,-139 117,-201 65,-138 132,-301 177,-448 105,-336 55,-456 80,-545 81,18 152,61 209,102 85,61 106,82 107,222 3,358 -158,684 -292,998 -106,247 77,257 267,315 475,146 934,336 1292,640 68,58 275,273 175,422 -53,2 -139,-85 -182,-117 -61,-43 -111,-81 -175,-123 -126,-81 -244,-146 -382,-224 -110,-61 -1167,-577 -923,-96 212,420 481,1067 601,1502 34,139 284,951 58,979 -91,12 -123,-87 -140,-164 -27,-115 -161,-668 -199,-704 -3,-154 -345,-1005 -428,-1188 -55,-121 -225,-476 -362,-421 -46,18 -64,65 -91,113 -50,87 -197,322 -220,383 -38,34 -697,1193 -778,1349 -118,232 -292,141 -352,33 -51,-91 -18,-164 24,-236 75,-130 145,-255 220,-386 50,-88 431,-709 454,-777 6,-3 395,-645 364,-757 -40,-146 -292,-119 -442,-128 -112,-6 -458,-35 -549,-15 -2,-1 -5,-5 -6,-3l-416 -7c-144,5 -284,4 -429,10 -136,6 -751,52 -828,23 -125,-48 -131,-188 -35,-271 76,-66 265,-55 378,-61 285,-17 566,-27 848,-36zm3167 2191c3,-87 -142,-527 -180,-627l-228 -579c337,87 867,355 1110,572 65,57 128,129 215,119 199,-21 128,-644 -148,-964 -136,-158 -614,-449 -809,-537l-488 -199c65,-241 358,-818 147,-1085 -97,-123 -220,-213 -371,-312 -82,-54 -377,-244 -489,-157 -14,68 4,186 -7,274 -17,137 -79,318 -130,446l-84 192c-1,1 -3,4 -4,5l-184 -189c-356,-357 -606,-560 -1068,-825 -162,-93 -401,-155 -623,-117 -274,47 -321,236 -127,385 313,241 323,241 626,509 56,49 317,314 374,386 19,24 21,26 45,50l131 158 -942 -1c-336,-8 -772,28 -1100,68 -187,22 -307,98 -382,203 -88,124 -132,287 -60,454 156,360 554,277 885,262 379,-18 779,-26 1165,-15l531 21c-9,32 -48,97 -67,127 -20,35 -63,100 -65,133 -46,33 -560,992 -583,1035 -78,143 -230,393 -224,589 13,459 586,749 919,395 76,-82 238,-389 302,-505 57,-101 583,-974 602,-1024 19,-12 40,-69 76,-107l424 991c26,111 80,249 116,363 55,173 155,609 224,728 240,417 661,108 624,-424 -8,-110 -106,-746 -153,-798z"/>
   <path class="fil1" d="M10709 16930c401,-61 389,282 340,593 -44,283 -119,552 -399,590 -409,56 -403,-272 -345,-595 51,-283 117,-545 404,-588zm-1076 2435c207,58 325,94 566,95 195,0 395,-25 561,-91 320,-126 517,-345 640,-668 85,-226 173,-822 222,-1096 33,-187 64,-371 97,-557l93 -553c-111,-3 -335,-13 -425,21 -154,57 -176,175 -226,227 -33,-41 -40,-122 -152,-196 -238,-158 -613,-114 -826,14 -268,160 -390,513 -460,907 -70,391 -66,885 245,1043 159,81 396,87 579,28 83,-26 172,-71 229,-116 42,-33 54,-43 90,-83 27,-31 48,-65 84,-83 -15,60 -40,89 -76,236 -172,703 -787,428 -1006,502 -144,49 -245,181 -235,370z"/>
   <path class="fil1" d="M11807 18609l574 0c20,-149 52,-300 78,-445 13,-72 26,-146 39,-220 40,-230 -6,-199 201,-199 139,0 146,90 190,201 50,128 162,465 237,551 128,144 412,114 632,111 -17,-67 -327,-746 -382,-871 -50,-114 -119,-189 -25,-305l728 -936c-86,-8 -441,-11 -517,3 -153,27 -220,139 -296,242l-342 465c-96,131 -107,105 -315,107 20,-197 120,-692 164,-940 38,-215 119,-460 -92,-604 -123,-84 -199,-68 -363,-70l-511 2910z"/>
   <path class="fil1" d="M8411 15341l571 1 156 -861c328,5 249,-75 486,547 57,149 100,234 231,288 107,44 371,26 504,26 -17,-69 -323,-737 -380,-870 -110,-257 -119,-174 153,-529 61,-80 124,-156 185,-238 61,-82 121,-153 181,-232l185 -242c-119,-2 -464,-14 -557,13 -138,40 -215,181 -288,280l-365 491c-54,51 -169,33 -259,35 4,-95 142,-827 171,-989 33,-189 110,-502 -190,-604 -85,-28 -179,-21 -272,-21l-512 2905z"/>
   <path class="fil1" d="M14945 16924c160,-32 298,25 346,148 50,130 24,334 0,473 -49,288 -125,584 -400,629 -414,67 -403,-288 -345,-616 25,-140 59,-289 113,-406 60,-128 128,-196 286,-228zm-11 -468c-338,34 -554,144 -699,340 -145,195 -234,484 -279,770 -120,768 162,1153 945,1081 326,-30 563,-156 698,-343 151,-209 234,-466 281,-767 122,-776 -145,-1161 -946,-1081z"/>
   <path class="fil1" d="M8332 16740c-74,-260 -334,-257 -552,-245 -23,58 -247,1390 -280,1576 -29,168 -76,371 -92,537l576 1c56,-318 115,-640 174,-959 59,-323 69,-678 410,-725 484,-66 360,384 303,709 -41,228 -151,786 -173,976l587 -1c50,-275 96,-554 145,-830 76,-432 329,-1286 -403,-1330 -445,-27 -626,254 -695,291z"/>
   <path class="fil1" d="M7656 14430c-23,209 -52,376 -182,470 -105,76 -386,130 -504,23 -120,-108 -59,-364 81,-447 123,-73 436,-46 605,-46zm-942 -705c219,-35 836,-164 990,41 68,90 24,231 14,341 -292,33 -630,-48 -956,72 -237,86 -393,298 -413,616 -47,726 771,686 1053,436 59,-52 82,-117 115,-143 98,158 109,255 404,254 199,0 140,87 228,-430 46,-267 185,-943 166,-1171 -36,-413 -358,-543 -788,-543 -208,0 -405,18 -601,59 -166,33 -129,11 -160,176 -17,92 -43,198 -52,292z"/>
   <path class="fil1" d="M4660 18608l1571 1c27,-114 73,-171 24,-308 -31,-89 -102,-167 -182,-202 -126,-56 -564,-34 -737,-32 3,-88 40,-242 56,-335 49,-268 305,-1616 289,-1731 -16,-114 -89,-203 -159,-245 -103,-62 -214,-60 -352,-56l-510 2908z"/>
   <path class="fil1" d="M4738 14848l-146 528c936,166 1414,-261 1581,-1037 78,-364 135,-754 201,-1134 76,-439 191,-774 -444,-769 -23,73 -253,1433 -272,1544 -61,349 -119,762 -503,859 -167,43 -261,11 -417,9z"/>
   <path class="fil1" d="M6446 18609l571 0c14,-27 379,-2037 375,-2115l-573 0 -373 2115z"/>
   <path class="fil2" d="M11129 13124c46,149 196,265 359,309 185,49 434,34 631,23 -21,71 -133,266 -174,339 -141,251 -278,498 -139,791 48,100 161,266 231,303 -30,-200 -79,-208 1,-424 47,-124 106,-236 162,-347 111,-221 229,-452 351,-670 38,-66 194,-297 67,-337 -113,-36 -1337,6 -1489,13z"/>
   <path class="fil2" d="M15678 15081c14,-10 6,-3 18,-15 41,-43 71,-105 91,-159 64,-175 44,-402 9,-581 -15,-82 -46,-179 -56,-256 144,63 297,219 364,257 194,110 273,-95 304,-256 -53,26 -75,65 -156,21 -66,-35 -251,-248 -623,-435 -355,-179 -270,-40 -154,346 33,111 62,221 87,337 48,224 101,512 116,741z"/>
   <path class="fil2" d="M13877 11062c70,-118 127,-419 106,-585 -65,-24 -197,-57 -264,-23 -37,19 -52,50 -64,89 -7,22 -11,39 -15,63 -4,27 -5,49 -21,67 -84,-70 -334,-215 -441,-276 -189,-106 -485,-175 -727,-152 -35,3 -48,-3 -47,24 1,28 93,27 120,33 85,17 155,40 235,72 254,102 548,294 754,458l251 201c39,28 63,36 113,29z"/>
   <path class="fil3" d="M6864 16248l573 0c61,-167 84,-315 -30,-445 -94,-108 -240,-152 -442,-123 -20,78 -104,507 -101,568z"/>
   <path class="fil4" d="M15665 12236c20,32 260,163 384,290 82,84 85,72 159,178 98,141 93,223 133,180 31,-33 -156,-382 -204,-456 -143,-217 -269,-292 -479,-434 -48,-32 -95,-54 -144,-89 11,-121 69,-197 -49,-391 -31,-52 -166,-236 -230,-267 12,146 21,232 3,380 -29,191 -131,333 44,416 47,22 350,189 383,193z"/>
   <path class="fil4" d="M14122 14867c24,111 125,326 178,408 61,94 189,236 357,223 -19,-56 -167,-595 -211,-644 0,-62 -169,-457 -212,-561 -25,-60 -48,-138 -102,-170 -59,-3 -79,18 -102,55 -64,105 -394,628 -402,693 -49,34 -174,307 -222,375 -84,123 -180,189 -352,246 79,47 258,62 364,43 246,-46 334,-224 430,-395 47,-84 115,-184 151,-265 24,-27 57,-88 79,-120l44 112z"/>
   <path class="fil4" d="M11557 10603c-151,100 -185,285 -46,433l349 316 44 37c-7,9 2,20 -60,22 -225,7 -518,-1 -698,171 -57,54 -69,77 -106,157 403,-30 794,-54 1198,-66 70,-2 382,21 197,-157 -74,-71 -107,-131 -221,-231 -182,-163 -654,-485 -657,-682z"/>
  </g>
 </g>
</svg>
