<?xml version="1.0" encoding="UTF-8"?>
<svg xmlns="http://www.w3.org/2000/svg" xmlns:xlink="http://www.w3.org/1999/xlink" width="115px" height="46px" viewBox="0 0 114 46" version="1.1">
<g id="surface1">
<path style=" stroke:none;fill-rule:nonzero;fill:rgb(100%,0%,0%);fill-opacity:1;" d="M 89.585938 0.0390625 C 89.570312 0.0664062 89.28125 0.0859375 88.96875 0.09375 C 86.871094 0.148438 84.441406 0.789062 82.285156 1.859375 C 80.078125 2.953125 78.546875 4.167969 76.808594 6.199219 C 75.914062 7.253906 75.847656 7.507812 76.65625 6.8125 C 77.910156 5.730469 79.703125 4.710938 81.484375 4.078125 C 83.234375 3.457031 83.941406 3.277344 86.066406 2.898438 C 86.753906 2.773438 90.027344 2.773438 90.726562 2.890625 C 91.933594 3.105469 93.332031 3.476562 93.988281 3.765625 C 96.183594 4.71875 97.554688 5.648438 99.21875 7.289062 C 100.5 8.5625 101.820312 10.320312 102.9375 12.269531 C 103.152344 12.636719 103.457031 13.171875 103.621094 13.441406 C 104.183594 14.414062 105.996094 17.949219 105.996094 18.085938 C 105.996094 18.101562 106.113281 18.382812 106.253906 18.691406 C 106.746094 19.773438 107.050781 20.59375 107.484375 21.917969 C 108.253906 24.300781 108.371094 24.984375 108.371094 27.058594 C 108.371094 28.582031 108.351562 28.78125 108.15625 29.359375 C 107.714844 30.648438 106.863281 31.75 105.84375 32.351562 C 104.472656 33.15625 102.464844 33.570312 100.832031 33.371094 C 98.019531 33.039062 95.320312 32.152344 92.777344 30.730469 C 89.101562 28.683594 85.464844 25.398438 81.441406 20.476562 C 80.976562 19.90625 80.554688 19.394531 80.5 19.339844 C 80.457031 19.277344 79.847656 18.519531 79.15625 17.632812 C 78.464844 16.757812 77.410156 15.425781 76.808594 14.675781 C 76.199219 13.917969 75.707031 13.289062 75.707031 13.261719 C 75.707031 13.144531 75.894531 12.980469 76.511719 12.566406 C 80.0625 10.167969 83.960938 8.480469 87.3125 7.886719 C 89.253906 7.542969 91.414062 7.542969 93.082031 7.894531 C 93.441406 7.976562 93.761719 8.011719 93.789062 7.984375 C 93.816406 7.957031 93.773438 7.941406 93.691406 7.941406 C 93.621094 7.941406 93.539062 7.914062 93.519531 7.867188 C 93.492188 7.8125 92.839844 7.46875 92.417969 7.308594 C 91.003906 6.738281 89.597656 6.414062 87.785156 6.226562 C 85.804688 6.019531 83.207031 6.253906 80.992188 6.832031 C 80.070312 7.074219 79.960938 7.109375 79.15625 7.378906 C 77.445312 7.957031 76.011719 8.589844 74.074219 9.636719 C 73.601562 9.898438 73.152344 10.105469 73.082031 10.105469 C 73.019531 10.105469 72.675781 9.789062 72.335938 9.410156 C 71.316406 8.253906 69.171875 6.136719 68.3125 5.40625 C 66.449219 3.84375 65.492188 3.175781 63.96875 2.375 C 61.441406 1.039062 58.867188 0.410156 55.992188 0.410156 C 54.28125 0.410156 53.597656 0.515625 52.121094 1.003906 C 48.632812 2.148438 45.8125 4.863281 44.449219 8.390625 C 43.820312 10.003906 43.527344 12.222656 43.707031 13.890625 C 43.875 15.46875 43.957031 15.523438 43.964844 14.070312 C 43.972656 12.683594 44.109375 11.863281 44.566406 10.492188 C 45.453125 7.847656 47.558594 5.476562 50.09375 4.25 C 51.394531 3.628906 52.199219 3.402344 53.679688 3.242188 C 55.804688 3.015625 58.167969 3.511719 59.980469 4.574219 C 61.921875 5.703125 63.5 7.246094 65.722656 10.183594 C 66.59375 11.347656 68.636719 14.460938 69.84375 16.480469 C 71.046875 18.5 72.128906 20.339844 72.410156 20.835938 C 74.855469 25.253906 78.261719 30.394531 81.027344 33.867188 C 82.488281 35.699219 83.351562 36.664062 85.140625 38.449219 C 88.027344 41.324219 91.03125 43.4375 93.84375 44.574219 C 96.171875 45.511719 98.359375 45.90625 101.15625 45.90625 C 104.640625 45.90625 106.917969 45.339844 109.03125 43.949219 C 109.785156 43.453125 111.011719 42.308594 111.515625 41.625 C 112.078125 40.855469 112.277344 40.488281 112.921875 39.054688 C 113.675781 37.375 114.121094 34.230469 113.96875 31.792969 C 113.664062 27.195312 112.445312 22.785156 110.027344 17.5625 C 108.585938 14.449219 106.328125 10.464844 104.980469 8.660156 C 102.1875 4.910156 99.488281 2.664062 95.957031 1.148438 C 95.394531 0.90625 94.230469 0.5625 93.316406 0.371094 C 92.121094 0.128906 89.722656 -0.0859375 89.585938 0.0390625 Z M 89.585938 0.0390625 "/>
<path style=" stroke:none;fill-rule:nonzero;fill:rgb(100%,0%,0%);fill-opacity:1;" d="M 53.707031 6.460938 C 51.269531 6.75 49.019531 8.058594 47.53125 10.058594 C 46.269531 11.753906 45.714844 13.339844 45.625 15.46875 C 45.570312 16.796875 45.660156 17.582031 46.007812 18.691406 C 46.929688 21.636719 49 23.765625 51.871094 24.714844 C 53.4375 25.226562 53.824219 25.292969 55.722656 25.28125 C 57.441406 25.28125 57.757812 25.246094 58.976562 24.902344 C 59.15625 24.847656 59.441406 24.769531 59.601562 24.730469 C 60.507812 24.488281 62.515625 23.453125 63.609375 22.648438 C 64.539062 21.964844 66.296875 20.035156 66.296875 19.699219 C 66.296875 19.601562 64.898438 16.605469 64.808594 16.515625 C 64.792969 16.5 64.503906 16.722656 64.171875 17.019531 C 62.964844 18.09375 62.578125 18.390625 61.054688 19.421875 C 58.472656 21.179688 56.761719 21.773438 54.332031 21.765625 C 53.367188 21.765625 53.070312 21.738281 52.585938 21.566406 C 50.882812 20.972656 49.199219 19.347656 48.527344 17.652344 C 48.203125 16.832031 48.132812 16.550781 48.007812 15.640625 C 47.71875 13.550781 48.597656 10.90625 50.140625 9.210938 C 51.519531 7.6875 53.402344 6.820312 55.570312 6.703125 C 56.097656 6.675781 56.527344 6.621094 56.527344 6.585938 C 56.527344 6.453125 54.558594 6.359375 53.707031 6.460938 Z M 53.707031 6.460938 "/>
<path style=" stroke:none;fill-rule:nonzero;fill:rgb(0%,0%,0%);fill-opacity:1;" d="M 56.914062 6.738281 C 56.996094 6.757812 57.136719 6.757812 57.226562 6.738281 C 57.308594 6.714844 57.238281 6.695312 57.066406 6.695312 C 56.898438 6.695312 56.824219 6.714844 56.914062 6.738281 Z M 56.914062 6.738281 "/>
<path style=" stroke:none;fill-rule:nonzero;fill:rgb(0%,0%,0%);fill-opacity:1;" d="M 2.628906 17.878906 C 2.582031 18.03125 2.4375 18.753906 2.3125 19.484375 C 2.261719 19.808594 2.179688 20.25 2.132812 20.476562 C 2.089844 20.699219 2.007812 21.144531 1.957031 21.46875 C 1.902344 21.792969 1.820312 22.234375 1.777344 22.460938 C 1.730469 22.683594 1.652344 23.125 1.597656 23.453125 C 1.542969 23.777344 1.460938 24.21875 1.417969 24.445312 C 1.371094 24.667969 1.292969 25.109375 1.238281 25.433594 C 1.183594 25.761719 1.105469 26.203125 1.058594 26.425781 C 1.015625 26.652344 0.898438 27.320312 0.789062 27.914062 C 0.683594 28.511719 0.558594 29.167969 0.511719 29.375 C 0.46875 29.585938 0.433594 29.855469 0.433594 29.980469 L 0.433594 30.214844 L 4.644531 30.214844 C 9.464844 30.214844 8.9375 30.332031 9.117188 29.222656 C 9.179688 28.851562 9.269531 28.402344 9.3125 28.222656 C 9.355469 28.042969 9.394531 27.769531 9.394531 27.609375 L 9.394531 27.328125 L 4.167969 27.328125 L 4.230469 26.851562 C 4.257812 26.597656 4.320312 26.175781 4.375 25.929688 C 4.417969 25.679688 4.5 25.246094 4.554688 24.957031 C 4.597656 24.679688 4.6875 24.207031 4.734375 23.921875 C 4.785156 23.640625 4.867188 23.179688 4.914062 22.910156 C 4.992188 22.414062 5.109375 21.78125 5.269531 20.898438 C 5.433594 20.035156 5.71875 18.445312 5.773438 18.101562 L 5.835938 17.769531 L 4.25 17.769531 C 3.058594 17.769531 2.65625 17.796875 2.628906 17.878906 Z M 2.628906 17.878906 "/>
<path style=" stroke:none;fill-rule:nonzero;fill:rgb(0%,0%,0%);fill-opacity:1;" d="M 13.210938 18.011719 C 12.96875 19.121094 11.023438 30.089844 11.058594 30.144531 C 11.085938 30.179688 11.792969 30.214844 12.628906 30.214844 C 14.382812 30.214844 14.222656 30.316406 14.421875 29.132812 C 14.472656 28.761719 14.589844 28.113281 14.671875 27.691406 L 14.816406 26.921875 L 15.511719 26.894531 C 15.980469 26.878906 16.265625 26.90625 16.355469 26.988281 C 16.425781 27.039062 16.8125 27.746094 17.199219 28.539062 C 17.59375 29.332031 17.960938 30.035156 18.015625 30.097656 C 18.148438 30.261719 21.3125 30.269531 21.3125 30.105469 C 21.3125 30.007812 20.109375 27.582031 19.691406 26.816406 C 19.511719 26.492188 19.519531 26.472656 20.148438 26.15625 C 20.648438 25.90625 21.492188 25.09375 21.859375 24.523438 C 22.316406 23.804688 22.566406 22.839844 22.566406 21.78125 C 22.566406 20.71875 22.421875 20.175781 21.976562 19.492188 C 21.492188 18.761719 21.042969 18.410156 20.101562 18.03125 C 19.574219 17.824219 19.492188 17.816406 16.410156 17.789062 L 13.265625 17.761719 Z M 18.6875 20.800781 C 19.394531 21.332031 19.546875 22.171875 19.089844 23.089844 C 18.882812 23.515625 18.777344 23.621094 18.328125 23.855469 C 17.84375 24.101562 17.699219 24.128906 16.6875 24.15625 C 15.378906 24.199219 15.308594 24.171875 15.40625 23.613281 C 15.648438 22.207031 15.945312 20.710938 15.996094 20.628906 C 16.023438 20.582031 16.578125 20.566406 17.234375 20.582031 C 18.28125 20.609375 18.460938 20.636719 18.6875 20.800781 Z M 18.6875 20.800781 "/>
<path style=" stroke:none;fill-rule:nonzero;fill:rgb(0%,0%,0%);fill-opacity:1;" d="M 24.933594 18.011719 C 24.664062 19.3125 24.539062 20.015625 24.539062 20.292969 L 24.539062 20.566406 L 26.195312 20.566406 C 27.476562 20.566406 27.851562 20.59375 27.851562 20.683594 C 27.851562 20.746094 27.648438 21.910156 27.40625 23.269531 C 27.152344 24.632812 26.867188 26.191406 26.769531 26.742188 C 26.492188 28.277344 26.429688 28.644531 26.320312 29.195312 C 26.265625 29.484375 26.214844 29.820312 26.203125 29.945312 L 26.195312 30.171875 L 27.773438 30.195312 C 29.359375 30.214844 29.359375 30.214844 29.402344 30.015625 C 29.429688 29.898438 29.511719 29.441406 29.589844 28.996094 C 29.671875 28.546875 29.96875 26.949219 30.238281 25.433594 C 30.515625 23.921875 30.792969 22.378906 30.855469 22.007812 C 30.925781 21.636719 31.015625 21.167969 31.050781 20.972656 L 31.132812 20.609375 L 32.828125 20.566406 L 34.519531 20.519531 L 34.59375 20.25 C 34.699219 19.816406 35.023438 18.078125 35.023438 17.914062 C 35.023438 17.789062 34.546875 17.769531 30.003906 17.769531 L 24.984375 17.769531 Z M 24.933594 18.011719 "/>
<path style=" stroke:none;fill-rule:nonzero;fill:rgb(0%,0%,0%);fill-opacity:1;" d="M 26.824219 37.015625 C 25.882812 37.175781 25.074219 37.59375 24.414062 38.261719 C 23.757812 38.917969 23.445312 39.433594 23.121094 40.34375 C 22.925781 40.910156 22.898438 41.144531 22.890625 42.210938 C 22.878906 43.410156 22.890625 43.4375 23.175781 44.03125 C 23.804688 45.332031 24.957031 45.996094 26.570312 45.996094 C 28.804688 45.996094 30.605469 44.519531 31.242188 42.175781 C 31.472656 41.289062 31.445312 39.964844 31.167969 39.199219 C 30.746094 38.015625 29.671875 37.160156 28.4375 37.023438 C 28.140625 36.996094 27.800781 36.953125 27.675781 36.941406 C 27.546875 36.925781 27.164062 36.960938 26.824219 37.015625 Z M 28.257812 37.890625 C 29.617188 38.144531 30.390625 39.042969 30.503906 40.503906 C 30.605469 41.785156 30.011719 43.320312 29.089844 44.148438 C 28.265625 44.886719 27.546875 45.140625 26.402344 45.078125 C 25.074219 45.003906 24.207031 44.402344 23.882812 43.320312 C 23.210938 41.019531 24.652344 38.351562 26.8125 37.917969 C 27.53125 37.773438 27.636719 37.773438 28.257812 37.890625 Z M 28.257812 37.890625 "/>
<path style=" stroke:none;fill-rule:nonzero;fill:rgb(0%,0%,0%);fill-opacity:1;" d="M 2.109375 37.132812 C 2.082031 37.175781 2.046875 37.347656 2.027344 37.519531 L 2 37.835938 L 3.390625 37.882812 L 4.777344 37.925781 L 4.75 38.285156 C 4.742188 38.484375 4.644531 39.089844 4.546875 39.640625 C 4.445312 40.179688 4.328125 40.875 4.277344 41.171875 C 4.222656 41.46875 4.140625 41.894531 4.105469 42.121094 C 4.0625 42.34375 3.980469 42.769531 3.917969 43.066406 C 3.632812 44.574219 3.183594 45.097656 2.179688 45.097656 C 1.5625 45.097656 1.132812 44.90625 0.816406 44.5 C 0.546875 44.140625 0.441406 44.121094 0.179688 44.402344 C -0.105469 44.707031 -0.0625 44.898438 0.378906 45.332031 C 0.890625 45.816406 1.5 46.023438 2.296875 45.980469 C 3.847656 45.890625 4.457031 45.078125 4.914062 42.480469 C 5.15625 41.109375 5.476562 39.34375 5.726562 38.0625 C 5.765625 37.835938 5.816406 37.53125 5.828125 37.386719 L 5.851562 37.113281 L 4 37.085938 C 2.976562 37.078125 2.125 37.097656 2.109375 37.132812 Z M 2.109375 37.132812 "/>
<path style=" stroke:none;fill-rule:nonzero;fill:rgb(0%,0%,0%);fill-opacity:1;" d="M 9.902344 37.402344 C 9.714844 37.710938 7.160156 41.992188 5.503906 44.789062 C 5.179688 45.347656 4.914062 45.828125 4.914062 45.851562 C 4.914062 45.890625 5.117188 45.90625 5.378906 45.890625 L 5.835938 45.863281 L 6.515625 44.734375 L 7.199219 43.609375 L 9.367188 43.582031 C 11.882812 43.554688 11.617188 43.425781 11.902344 44.746094 C 12.171875 45.988281 12.125 45.90625 12.582031 45.90625 C 12.925781 45.90625 12.976562 45.878906 12.976562 45.726562 C 12.976562 45.554688 12.699219 44.292969 11.8125 40.496094 C 11.605469 39.628906 11.347656 38.511719 11.238281 38.015625 L 11.03125 37.113281 L 10.574219 37.085938 C 10.128906 37.058594 10.109375 37.070312 9.902344 37.402344 Z M 10.925781 40.398438 C 11.195312 41.578125 11.402344 42.589844 11.382812 42.652344 C 11.335938 42.777344 7.90625 42.796875 7.824219 42.660156 C 7.796875 42.617188 8.058594 42.082031 8.417969 41.46875 C 9.777344 39.109375 10.308594 38.242188 10.371094 38.242188 C 10.40625 38.242188 10.65625 39.207031 10.925781 40.398438 Z M 10.925781 40.398438 "/>
<path style=" stroke:none;fill-rule:nonzero;fill:rgb(0%,0%,0%);fill-opacity:1;" d="M 15.988281 37.152344 C 15.960938 37.1875 15.871094 37.582031 15.800781 38.023438 C 15.71875 38.46875 15.621094 39.042969 15.566406 39.296875 C 15.523438 39.558594 15.449219 39.992188 15.40625 40.242188 C 15.351562 40.503906 15.234375 41.183594 15.136719 41.730469 C 15.03125 42.292969 14.867188 43.183594 14.769531 43.714844 C 14.679688 44.257812 14.554688 44.90625 14.5 45.175781 C 14.457031 45.4375 14.410156 45.71875 14.410156 45.78125 C 14.410156 45.96875 18.625 45.960938 19.421875 45.773438 C 20.351562 45.546875 20.925781 45.140625 21.277344 44.445312 C 21.453125 44.09375 21.492188 43.886719 21.492188 43.238281 C 21.492188 42.335938 21.328125 41.9375 20.800781 41.578125 L 20.488281 41.363281 L 20.691406 41.191406 C 21.589844 40.476562 21.847656 39.992188 21.847656 39.007812 C 21.847656 38.023438 21.597656 37.621094 20.746094 37.257812 C 20.34375 37.085938 20.136719 37.070312 18.175781 37.070312 C 17 37.070312 16.015625 37.105469 15.988281 37.152344 Z M 20.210938 38.023438 C 20.738281 38.214844 20.953125 38.546875 20.953125 39.160156 C 20.953125 39.972656 20.460938 40.59375 19.617188 40.867188 C 19.4375 40.929688 18.597656 40.992188 17.734375 41.011719 L 16.175781 41.054688 L 16.238281 40.578125 C 16.3125 40.007812 16.453125 39.234375 16.570312 38.773438 C 16.617188 38.59375 16.652344 38.339844 16.652344 38.207031 C 16.652344 38.042969 16.714844 37.945312 16.847656 37.890625 C 17.179688 37.773438 19.789062 37.871094 20.210938 38.023438 Z M 19.957031 42.039062 C 20.488281 42.265625 20.640625 42.527344 20.640625 43.191406 C 20.628906 44.105469 20.289062 44.5625 19.375 44.914062 C 18.945312 45.070312 18.675781 45.097656 17.277344 45.097656 C 16.402344 45.097656 15.621094 45.070312 15.550781 45.042969 C 15.449219 45.003906 15.433594 44.925781 15.496094 44.664062 C 15.53125 44.484375 15.65625 43.824219 15.753906 43.203125 C 15.863281 42.578125 15.960938 42.019531 15.980469 41.957031 C 16.007812 41.875 16.445312 41.847656 17.773438 41.847656 C 19.347656 41.847656 19.574219 41.867188 19.957031 42.039062 Z M 19.957031 42.039062 "/>
<path style=" stroke:none;fill-rule:nonzero;fill:rgb(0%,0%,0%);fill-opacity:1;" d="M 33.285156 37.175781 C 33.265625 37.242188 33.203125 37.539062 33.148438 37.835938 C 32.917969 39.109375 32.78125 39.863281 32.648438 40.632812 C 32.566406 41.074219 32.46875 41.625 32.421875 41.847656 C 32.378906 42.074219 32.308594 42.5 32.253906 42.796875 C 32.199219 43.09375 32.074219 43.761719 31.984375 44.285156 C 31.886719 44.808594 31.796875 45.375 31.777344 45.546875 L 31.75 45.863281 L 34.035156 45.863281 C 35.695312 45.863281 36.421875 45.828125 36.679688 45.746094 C 37.816406 45.367188 38.859375 44.574219 39.367188 43.6875 C 39.84375 42.867188 40.050781 42.136719 40.101562 41.082031 C 40.210938 38.9375 39.46875 37.726562 37.71875 37.195312 C 37.15625 37.023438 33.328125 37.015625 33.285156 37.175781 Z M 37.289062 38.015625 C 38.570312 38.351562 39.25 39.277344 39.242188 40.675781 C 39.234375 42.941406 38.058594 44.554688 36.125 44.960938 C 35.453125 45.105469 33.085938 45.140625 32.878906 45.015625 C 32.78125 44.953125 32.78125 44.835938 32.863281 44.367188 C 32.925781 44.050781 33.042969 43.335938 33.140625 42.796875 C 33.238281 42.246094 33.390625 41.378906 33.488281 40.855469 C 33.578125 40.335938 33.730469 39.503906 33.8125 39.007812 C 33.902344 38.511719 34.019531 38.050781 34.0625 37.988281 C 34.1875 37.828125 36.625 37.84375 37.289062 38.015625 Z M 37.289062 38.015625 "/>
<path style=" stroke:none;fill-rule:nonzero;fill:rgb(0%,0%,0%);fill-opacity:1;" d="M 42.324219 37.160156 C 42.273438 37.242188 42.226562 37.484375 42.011719 38.738281 C 41.976562 38.980469 41.851562 39.65625 41.742188 40.226562 C 41.644531 40.792969 41.519531 41.480469 41.464844 41.730469 C 41.421875 41.992188 41.347656 42.433594 41.296875 42.707031 C 41.25 42.976562 41.167969 43.425781 41.117188 43.699219 C 41.070312 43.96875 40.980469 44.429688 40.925781 44.707031 C 40.882812 44.996094 40.8125 45.382812 40.785156 45.566406 L 40.730469 45.90625 L 43.5625 45.90625 C 46.679688 45.90625 46.394531 45.960938 46.527344 45.339844 L 46.582031 45.097656 L 44.277344 45.097656 C 43.007812 45.097656 41.921875 45.058594 41.867188 45.023438 C 41.796875 44.980469 41.796875 44.816406 41.878906 44.417969 C 41.929688 44.121094 42.039062 43.570312 42.101562 43.203125 C 42.164062 42.832031 42.253906 42.371094 42.296875 42.183594 L 42.378906 41.847656 L 44.378906 41.847656 C 46.589844 41.847656 46.617188 41.839844 46.5625 41.289062 L 46.539062 40.992188 L 44.546875 40.964844 L 42.550781 40.949219 L 42.550781 40.695312 C 42.550781 40.558594 42.585938 40.308594 42.628906 40.136719 C 42.675781 39.964844 42.78125 39.421875 42.863281 38.945312 C 42.953125 38.457031 43.070312 38.023438 43.132812 37.972656 C 43.195312 37.917969 44.152344 37.871094 45.460938 37.863281 L 47.691406 37.835938 L 47.765625 37.566406 C 47.800781 37.410156 47.820312 37.242188 47.792969 37.175781 C 47.738281 37.042969 42.414062 37.015625 42.324219 37.160156 Z M 42.324219 37.160156 "/>
<path style=" stroke:none;fill-rule:nonzero;fill:rgb(0%,0%,0%);fill-opacity:1;" d="M 49.773438 37.222656 C 49.746094 37.3125 49.546875 38.421875 49.324219 39.683594 C 49.089844 40.949219 48.769531 42.75 48.597656 43.699219 C 48.429688 44.636719 48.285156 45.511719 48.265625 45.636719 L 48.238281 45.863281 L 50.703125 45.863281 C 53.042969 45.863281 53.195312 45.84375 53.671875 45.65625 C 54.789062 45.203125 55.363281 44.367188 55.363281 43.175781 C 55.355469 42.382812 55.195312 42.011719 54.675781 41.613281 L 54.289062 41.316406 L 54.664062 41.066406 C 55.398438 40.570312 55.777344 39.746094 55.703125 38.792969 C 55.660156 38.097656 55.355469 37.621094 54.765625 37.332031 C 54.351562 37.125 54.242188 37.113281 52.074219 37.085938 C 49.96875 37.058594 49.816406 37.070312 49.773438 37.222656 Z M 54.171875 38.042969 C 54.503906 38.222656 54.828125 38.730469 54.828125 39.054688 C 54.828125 39.839844 54.253906 40.632812 53.519531 40.867188 C 53.097656 40.992188 50.183594 41.089844 50.066406 40.972656 C 50.023438 40.929688 50.105469 40.289062 50.257812 39.460938 C 50.398438 38.664062 50.523438 37.988281 50.523438 37.953125 C 50.523438 37.78125 53.859375 37.863281 54.171875 38.042969 Z M 53.9375 42.09375 C 54.34375 42.34375 54.46875 42.625 54.46875 43.246094 C 54.46875 44.105469 54.003906 44.691406 53.070312 44.96875 C 52.550781 45.121094 49.40625 45.148438 49.316406 45.003906 C 49.28125 44.953125 49.296875 44.71875 49.34375 44.484375 C 49.394531 44.25 49.53125 43.5625 49.636719 42.949219 L 49.84375 41.839844 L 51.726562 41.867188 C 53.5 41.894531 53.632812 41.902344 53.9375 42.09375 Z M 53.9375 42.09375 "/>
<path style=" stroke:none;fill-rule:nonzero;fill:rgb(0%,0%,0%);fill-opacity:1;" d="M 58.015625 37.140625 C 58 37.175781 57.953125 37.367188 57.917969 37.566406 C 57.890625 37.765625 57.828125 38.105469 57.785156 38.332031 C 57.683594 38.835938 57.550781 39.558594 57.433594 40.269531 C 57.378906 40.570312 57.265625 41.21875 57.164062 41.714844 C 57.074219 42.210938 56.941406 42.921875 56.886719 43.292969 C 56.824219 43.660156 56.699219 44.328125 56.609375 44.769531 C 56.511719 45.214844 56.441406 45.65625 56.441406 45.746094 C 56.441406 45.898438 56.59375 45.90625 59.199219 45.90625 C 60.714844 45.90625 61.996094 45.871094 62.050781 45.835938 C 62.113281 45.800781 62.175781 45.628906 62.183594 45.457031 L 62.21875 45.140625 L 59.890625 45.097656 L 57.558594 45.050781 L 57.570312 44.691406 C 57.570312 44.492188 57.621094 44.066406 57.675781 43.742188 C 57.738281 43.417969 57.820312 42.941406 57.863281 42.679688 C 58.035156 41.757812 57.800781 41.847656 60.070312 41.847656 C 62.003906 41.847656 62.085938 41.839844 62.175781 41.667969 C 62.226562 41.5625 62.265625 41.371094 62.246094 41.234375 L 62.21875 40.992188 L 60.210938 40.964844 L 58.203125 40.949219 L 58.265625 40.558594 C 58.304688 40.351562 58.367188 39.972656 58.410156 39.730469 C 58.464844 39.476562 58.546875 39.015625 58.589844 38.703125 C 58.644531 38.378906 58.722656 38.070312 58.777344 38 C 58.859375 37.90625 59.40625 37.882812 61.125 37.863281 L 63.375 37.835938 L 63.4375 37.519531 C 63.472656 37.347656 63.484375 37.175781 63.464844 37.140625 C 63.402344 37.050781 58.078125 37.050781 58.015625 37.140625 Z M 58.015625 37.140625 "/>
<path style=" stroke:none;fill-rule:nonzero;fill:rgb(0%,0%,0%);fill-opacity:1;" d="M 65.140625 37.539062 C 65.097656 37.800781 64.988281 38.359375 64.917969 38.78125 C 64.835938 39.207031 64.550781 40.765625 64.28125 42.253906 C 64.011719 43.742188 63.761719 45.175781 63.726562 45.429688 L 63.671875 45.90625 L 64.488281 45.90625 L 64.59375 45.429688 C 64.648438 45.175781 64.738281 44.664062 64.792969 44.300781 L 64.898438 43.636719 L 65.832031 42.75 C 66.351562 42.265625 66.816406 41.886719 66.871094 41.902344 C 66.960938 41.9375 67.320312 42.488281 68.207031 43.949219 C 68.394531 44.257812 68.734375 44.816406 68.96875 45.1875 L 69.398438 45.863281 L 69.863281 45.890625 C 70.167969 45.90625 70.328125 45.878906 70.328125 45.816406 C 70.328125 45.761719 69.746094 44.769531 69.046875 43.625 C 68.339844 42.472656 67.710938 41.445312 67.660156 41.335938 C 67.558594 41.15625 67.703125 41 69.613281 39.1875 C 70.75 38.105469 71.671875 37.195312 71.671875 37.152344 C 71.671875 37.105469 71.429688 37.070312 71.136719 37.070312 C 70.695312 37.070312 70.570312 37.105469 70.402344 37.277344 C 70.285156 37.394531 69.773438 37.898438 69.253906 38.386719 C 68.734375 38.875 67.667969 39.882812 66.886719 40.632812 C 65.589844 41.875 65.210938 42.164062 65.222656 41.964844 C 65.222656 41.929688 65.417969 40.839844 65.660156 39.550781 C 65.894531 38.261719 66.074219 37.175781 66.054688 37.132812 C 66.035156 37.097656 65.839844 37.070312 65.625 37.070312 L 65.230469 37.070312 Z M 65.140625 37.539062 "/>
</g>
</svg>
