<svg width="1512" height="982" viewBox="0 0 1512 982" fill="none" xmlns="http://www.w3.org/2000/svg">
<g opacity="0.3">
<path d="M-76.5895 936.42C-77.5725 939.186 -78.9478 941.928 -78.8693 944.883C-78.7309 949.949 -74.351 953.79 -69.8788 955.661C-60.9668 959.39 -50.9148 958.053 -41.5366 955.939C-22.1433 951.568 -3.38236 944.086 13.9018 933.838C16.5509 932.263 19.6617 930.576 22.4862 931.767C23.7831 932.312 24.7985 933.396 25.8507 934.368C31.329 939.429 38.8888 941.898 46.1256 940.994C48.687 940.673 51.4653 939.754 52.7622 937.402C53.4961 936.074 53.6576 934.446 54.4699 933.172C57.9821 927.698 68.0065 934.222 71.9064 929.049C73.4571 926.993 73.1247 924.032 72.534 921.485C71.2279 915.841 69.0356 910.43 66.068 905.534C65.5834 904.732 65.0388 903.906 64.2219 903.497C61.2128 901.98 59.1035 906.75 56.4913 908.928C53.7083 911.242 48.9962 910.109 47.4454 906.75C46.7439 905.233 46.6286 903.424 45.6825 902.058C43.9517 899.55 40.2919 899.686 37.6104 900.96C34.929 902.233 32.6166 904.363 29.7782 905.189C24.5768 906.706 19.2048 903.463 15.1664 899.691C11.1281 895.918 7.47282 891.353 2.41912 889.355C-2.63458 887.357 -9.69592 889.428 -10.7713 895.004C-11.6713 899.671 -7.92834 904.032 -3.81615 906.015C0.296043 907.999 4.94355 908.51 9.02805 910.556C13.1125 912.603 16.7495 917.11 15.6649 921.733C15.2495 923.507 14.1833 925.044 12.9141 926.288C7.03431 932.059 -2.41314 931.417 -9.78831 928.048C-17.1635 924.679 -23.4449 919.083 -30.7369 915.53C-39.3675 911.319 -52.2301 909.292 -61.6591 911.679C-72.8787 914.518 -73.1649 926.764 -76.5895 936.42Z" fill="black" stroke="black" stroke-opacity="0.3" stroke-width="0.25" stroke-miterlimit="10" stroke-linecap="round" stroke-linejoin="round"/>
<path d="M86.9075 979.281C82.5138 979.699 78.0185 980.856 74.5893 983.778C71.1602 986.7 69.0695 991.712 70.4356 996.131C72.3233 1002.24 79.3199 1004.49 85.3659 1005.34C97.3194 1007.01 109.813 1006.8 120.839 1011.95C129.672 1016.08 136.803 1023.32 143.772 1030.37C148.212 1034.87 152.85 1039.47 158.638 1041.69C170.162 1046.11 184.488 1038.4 187.834 1025.97C188.512 1023.45 188.775 1020.73 187.972 1018.26C186.08 1012.47 179.517 1010.45 174.117 1008.19C165.464 1004.58 157.812 998.343 152.31 990.428C149.629 986.568 147.413 982.281 144.086 979.028C135.404 970.54 127.448 978.022 117.982 979.422C107.676 980.929 97.2364 978.304 86.9075 979.281Z" fill="black" stroke="black" stroke-opacity="0.3" stroke-width="0.25" stroke-miterlimit="10" stroke-linecap="round" stroke-linejoin="round"/>
<path d="M121.535 928.106C121.545 930.994 122.149 933.989 123.852 936.249C126.501 939.755 131.117 940.741 135.353 941.091C151.119 942.409 167.679 938.398 182.406 944.47C187.69 946.648 192.638 950.1 198.287 950.678C210.896 951.972 222.388 938.646 234.711 941.753C237.937 942.565 240.876 944.48 244.167 944.932C250.398 945.788 255.996 941.349 261.747 938.685C271.688 934.081 283.134 934.669 293.417 930.984C302.255 927.815 309.796 921.645 317.157 915.588C321.666 911.874 326.351 907.931 328.622 902.399C330.897 896.866 329.785 889.292 324.717 886.487C323.886 886.025 322.922 885.709 322.017 885.962C318.768 886.866 320.471 891.936 320.6 895.471C320.79 900.517 316.197 904.294 311.744 906.156C307.285 908.018 302.259 909.064 298.899 912.666C295.71 916.084 294.224 921.606 289.932 923.196C283.605 925.539 278.486 917.532 272.38 914.625C264.054 910.658 254.815 916.604 245.99 919.098C229.26 923.833 211.98 915.826 195.919 908.986C177.694 901.237 121.429 891.854 121.535 928.106Z" fill="black" stroke="black" stroke-opacity="0.3" stroke-width="0.25" stroke-miterlimit="10" stroke-linecap="round" stroke-linejoin="round"/>
<path d="M-562.179 169.498C-569.586 180.242 -576.989 190.981 -584.397 201.725C-586.658 205.007 -589.021 208.585 -589.049 212.644C-589.077 216.704 -585.514 220.977 -581.817 219.834C-583.811 225.187 -589.843 227.234 -594.006 230.953C-600.513 236.772 -602.198 246.612 -602.161 255.606C-602.068 276.248 -593.738 298.193 -576.541 308.091C-584.84 312.267 -588.55 324.275 -584.184 332.797C-580.003 340.955 -569.609 347.173 -571.732 356.171C-572.166 358.009 -573.135 359.706 -573.306 361.587C-573.685 365.836 -570.011 369.195 -566.494 371.31C-559.405 375.579 -551.471 378.102 -544.359 382.336C-537.252 386.571 -530.698 393.168 -529.397 401.661C-527.717 412.619 -535.073 424.238 -531.026 434.486C-529.106 439.352 -524.966 442.775 -521.8 446.854C-510.922 460.879 -512.32 480.996 -513.276 499.081C-513.483 503.029 -513.617 507.132 -512.145 510.763C-510.673 514.395 -507.1 517.399 -503.399 516.767C-500.616 516.291 -498.35 513.938 -495.553 513.588C-491.796 513.111 -488.635 516.276 -485.229 518.017C-480.784 520.287 -475.62 520.161 -470.682 519.986C-452.23 519.329 -433.778 518.673 -415.321 518.022C-413.392 517.954 -411.399 517.895 -409.608 518.663C-398.951 523.223 -410.079 545.018 -400.17 551.167C-401.074 556.321 -401.67 561.221 -397.908 564.649C-387.865 554.118 -371.98 554.328 -358 551.902C-344.016 549.481 -327.969 539.631 -329.409 524.784C-317.247 534.993 -301.237 539.971 -285.762 538.348C-290.4 545.125 -287.013 556.214 -279.499 558.878C-271.981 561.542 -262.926 554.862 -262.727 546.51C-252.412 556.112 -237.233 559.539 -224.088 555.227C-220.959 572.699 -220.092 590.614 -221.518 608.329C-195.423 599.039 -170.496 586.107 -147.605 569.977C-132.079 559.038 -115.773 541.707 -120.693 522.727C-109.866 518.104 -103.552 504.127 -106.976 492.357C-101.157 497.491 -91.9491 488.395 -93.8829 480.665C-95.8167 472.936 -103.686 468.687 -111.033 466.684C-105.098 462.765 -100.386 455.988 -100.617 448.613C-100.852 441.238 -107.415 434.17 -114.31 435.468C-98.2952 422.964 -80.4064 405.837 -83.9417 385.17C-85.7232 390.066 -80.5034 395.219 -75.5281 395.127C-70.5529 395.034 -66.2561 391.631 -62.347 388.384C-51.7411 379.56 -40.5261 369.798 -36.9354 356.074C-33.2062 341.82 -38.6201 326.55 -36.5893 311.917C-32.6156 283.302 -1.40729 262.684 -3.96411 233.894C16.1907 251.624 47.2652 253.958 69.603 239.417C39.17 220.943 12.0601 196.412 -9.86237 167.5C-3.23486 165.04 -0.00421143 156.659 -0.774963 149.298C-1.54572 141.943 -5.35321 135.38 -9.0639 129.099C-16.8036 116.007 -24.5434 102.915 -32.2786 89.8224C-41.043 74.9948 -49.8074 60.1671 -58.5718 45.3394C-52.5904 52.1893 -40.803 51.8538 -35.1862 44.6734C-32.2324 48.5626 -27.0634 52.3643 -23.2096 49.4717C-17.9113 45.4901 -23.5235 37.1818 -28.2864 32.505C-33.0494 27.8282 -34.7246 16.5105 -28.2171 16.7925C-60.3531 -0.816026 -98.5721 -5.7602 -133.8 3.14127C-139.283 4.52681 -144.882 6.34019 -149.132 10.2391C-153.835 14.5562 -156.332 20.9199 -158.233 27.1816C-163.038 43.0253 -165.013 59.817 -164.03 76.4192C-163.836 79.7153 -163.55 83.1768 -164.847 86.1812C-168.609 94.9125 -181.517 93.1623 -188.126 99.7594C-197.482 109.094 -188.15 126.269 -192.631 138.997C-194.339 143.849 -197.943 147.626 -201.197 151.501C-213.335 165.978 -221.693 183.937 -225.118 202.916C-240.805 197.068 -258.883 198.789 -273.319 207.51C-277.284 209.902 -281.059 212.829 -285.476 214.059C-295.583 216.879 -305.58 210.286 -315.064 205.648C-337.702 194.569 -367.817 195.502 -384.233 215.308C-390.025 222.294 -394.239 231.531 -402.38 235.066C-412.322 239.378 -423.361 233.291 -434.092 232.596C-452.239 231.419 -468.863 245.814 -487.01 244.614C-497.168 243.938 -506.454 238.406 -514.688 232.1C-535.867 215.877 -551.878 194.856 -562.179 169.498Z" fill="black" stroke="black" stroke-opacity="0.3" stroke-width="0.25" stroke-miterlimit="10" stroke-linecap="round" stroke-linejoin="round"/>
<path d="M124.676 313.234C117.088 314.794 114.633 325.32 116.401 333.249C118.173 341.173 122.493 348.606 122.294 356.745C100.792 365.592 86.2815 390.416 88.4599 414.626C89.166 422.487 91.4367 430.372 90.1306 438.151C89.2814 443.197 86.9739 447.816 85.0539 452.526C79.6218 465.857 77.1756 480.519 77.9648 495.002C71.5681 492.794 64.5252 497.646 61.5484 504.005C58.5715 510.364 58.6316 517.768 58.7516 524.856C58.89 532.883 59.0285 540.914 59.1669 548.94C59.2915 556.174 60.6715 565.241 67.2805 567.22C74.9372 569.509 83.8308 559.845 90.1999 564.876C92.1937 566.452 93.1444 569.057 93.952 571.537C104.627 604.386 106.621 640.308 99.6566 674.242C97.6443 684.047 95.272 695.55 101.549 703.095C114.564 718.744 143.903 696.055 157.486 711.16C158.515 679.594 159.544 648.023 160.569 616.457C161.487 588.338 162.345 559.684 155.109 532.601C153.84 527.856 152.335 522.751 153.96 518.128C156.41 511.157 164.487 508.823 171.428 507.452C177.987 506.159 184.545 504.861 191.103 503.568C193.208 503.154 195.423 502.746 197.44 503.49C201.534 505.002 202.904 510.354 203.07 514.919C203.744 533.393 195.118 553.675 204.46 569.325C209.398 577.599 218.208 582.154 225.962 587.521C233.716 592.889 241.349 600.701 241.349 610.473C241.345 622.476 229.894 634.78 236.083 644.858C237.731 647.537 240.366 649.331 242.919 651.047C251.106 656.531 262.76 661.704 269.484 654.334C271.995 651.582 272.992 647.722 274.616 644.314C280.473 632.024 296.095 626.132 308.026 631.718C308.658 627.76 309.295 623.798 309.927 619.841C314.515 623.166 321.401 619.107 322.822 613.433C324.239 607.76 321.636 601.766 318.069 597.264C307.777 584.264 288.674 577.541 285.923 560.866C284.853 554.38 286.694 547.798 287.013 541.225C287.894 522.848 276.891 506.212 264.684 493.047C252.477 479.882 238.312 468.161 229.94 452.011C229.299 450.776 228.685 449.464 228.657 448.054C228.574 443.46 234.085 441.539 238.377 440.728C269.858 434.767 298.731 414.815 316.453 386.769C319.264 382.316 322.186 377.348 326.99 375.622C335.233 372.656 344.796 380.741 352.591 376.657C359.509 373.036 359.246 361.227 353.191 356.176C347.136 351.125 338.076 352.019 331.375 356.064C328.301 357.921 325.504 360.371 322.149 361.572C316.656 363.536 310.647 361.844 304.851 362.083C288.573 362.753 274.316 378.548 258.315 375.345C252.532 374.188 247.225 370.561 241.34 370.512C226.271 370.381 220.304 391.15 208.17 400.566C196.757 409.424 178.573 406.06 170.704 393.644C168.341 389.91 166.868 385.632 164.695 381.772C161.722 376.492 157.509 372.126 153.927 367.279C143.718 353.463 138.78 335.062 142.135 317.915C145.491 300.769 157.619 285.445 173.514 280.336C181.946 277.623 190.932 277.745 199.747 277.886C230.49 278.381 261.232 278.877 291.974 279.373C314.164 279.733 336.968 280.219 357.474 289.155C364.374 292.164 371.236 296.175 378.704 296.097C386.351 296.019 393.302 291.658 399.749 287.332C429.965 267.044 459.9 242.883 474.904 208.604C476.464 205.04 477.609 200.198 474.738 197.695C472.269 195.541 468.558 196.737 465.674 198.215C438.785 212.022 418.801 242.406 388.991 245.085C371.126 246.689 352.678 237.618 335.62 243.437C331.942 244.691 328.347 246.641 324.484 246.602C319.67 246.553 315.443 243.466 311.077 241.327C285.836 228.974 251.166 246.864 230.402 227.345C227.107 224.248 224.393 220.325 220.47 218.186C209.449 212.177 197.228 222.921 188.671 232.391C181.346 240.496 173.15 245.877 162.502 246.859C153.978 247.647 150.669 245.08 143.658 251.58C136.325 258.381 131.488 271.502 128.599 281.036C127.81 283.632 123.259 313.53 124.676 313.234Z" fill="black" stroke="black" stroke-opacity="0.3" stroke-width="0.25" stroke-miterlimit="10" stroke-linecap="round" stroke-linejoin="round"/>
<path d="M885.82 368.493C877.226 380.472 870.922 394.255 867.377 408.796C884.463 406.389 904.41 404.974 916.267 418.154C926.388 429.399 926.73 447.591 936.699 458.981C945.232 468.728 958.792 471.242 971.354 472.044C996.388 473.648 1021.68 470.654 1045.76 463.235C1045.24 473.503 1044.72 483.775 1044.2 494.043C1035.19 483.284 1018.66 480.6 1006.99 488.009C999.369 492.851 993.849 501.306 985.426 504.339C979.579 506.449 973.21 505.608 967.035 505.336C959.955 505.025 952.847 505.501 945.86 506.755C940.922 507.64 934.696 511.155 936.159 516.201C936.832 518.53 939.006 519.964 941.078 521.048C948.961 525.176 957.684 527.252 965.678 531.136C973.671 535.02 981.319 541.379 983.599 550.339C986.709 562.575 979.053 576.047 983.179 587.943C985.846 595.624 993.641 600.962 1001.39 600.413C1015.81 599.387 1023.29 582.027 1026.58 567.204C1029.87 552.381 1033.93 534.855 1047.41 529.366C1049.13 537.626 1046.4 546.216 1047.06 554.642C1048.45 572.415 1064.8 585.4 1081.39 588.944C1086.33 589.999 1091.36 590.437 1096.38 590.875C1103.43 591.487 1110.48 592.1 1117.53 592.712C1117.52 611.886 1135.65 628.785 1153.72 626.432C1171.83 624.079 1188.97 630.618 1205.71 638.27C1222.46 645.922 1238.61 655.48 1256.4 659.801C1266.72 662.31 1277.76 663.136 1286.79 668.985C1292.59 672.743 1297.09 678.304 1301.9 683.38C1314.94 697.138 1330.9 707.814 1348.26 714.392C1344.49 715.67 1341.59 719.438 1341.19 723.594C1344.81 725.656 1348.43 727.717 1352.05 729.773C1347.46 733.473 1349.69 741.115 1352.42 746.483C1361.77 764.859 1372.3 782.565 1383.93 799.434C1377.45 802.789 1376.55 813.907 1382.39 818.375C1388.61 823.125 1398.12 819.814 1404.39 824.496C1397.2 826.897 1390.01 829.299 1382.82 831.7C1390.83 834.116 1395.92 843.033 1396.45 851.783C1396.97 860.539 1393.77 869.076 1389.8 876.786C1387.71 880.826 1385.34 885.532 1387.05 889.762C1389.19 895.075 1396.74 895.591 1401.15 892.158C1405.55 888.726 1407.57 882.936 1409.36 877.477C1411.89 890.024 1425.72 897.03 1437.84 895.775C1449.96 894.521 1460.65 887.239 1470.81 880.165C1466.73 886.898 1468.55 896.116 1472.93 902.635C1477.31 909.154 1483.79 913.695 1489.82 918.537C1503.08 929.164 1514.82 941.887 1524.53 956.146V499.084C1517.92 501.199 1512.8 493.357 1507.25 489.035C1497.71 481.616 1485.4 479.861 1473.72 477.737C1444.94 472.496 1416.76 463.604 1389.99 451.314C1372.08 443.098 1354.76 433.346 1336.19 426.949C1325.07 423.118 1313.21 420.507 1301.69 422.661C1290.17 424.819 1279.04 432.564 1275.17 444.192C1274.15 447.275 1273.62 450.585 1272.01 453.376C1265.25 465.092 1247.91 458.665 1235.55 462.963C1223.79 467.051 1217.93 480.425 1211.48 491.563C1197.7 515.365 1175.58 533.674 1150.37 542.157C1142.7 544.734 1132.81 545.725 1128.04 538.905C1124.84 534.335 1125.37 528.044 1123.67 522.662C1121.96 517.281 1115.01 512.754 1111.5 517.062C1109.32 512.438 1110.54 506.94 1110.31 501.787C1110.08 496.634 1106.89 490.547 1102.02 491.15C1094.05 492.132 1097.07 505.817 1092.38 512.662C1081.29 488.977 1069.88 463.269 1074.09 437.236C1075.57 428.067 1078.97 418.82 1077.09 409.734C1075.05 399.948 1067.07 391.732 1067.55 381.727C1067.78 376.724 1070.16 371.61 1068.53 366.904C1065.99 359.548 1056.49 359.164 1049.06 359.047C1034.27 358.814 1019.57 354.303 1006.97 346.145C999.794 341.497 993.046 335.581 984.836 333.607C975.753 331.424 966.338 334.414 957.522 337.598C933.131 346.412 901.369 346.826 885.82 368.493Z" fill="black" stroke="black" stroke-opacity="0.3" stroke-width="0.25" stroke-miterlimit="10" stroke-linecap="round" stroke-linejoin="round"/>
<path d="M571.238 580.657C577.007 584.182 583.649 587.177 590.184 585.772C593.89 584.974 597.195 582.83 600.296 580.545C606.614 575.898 612.817 569.889 614.243 561.911C616.145 551.264 608.927 541.22 601.108 534.176C589.141 523.393 554.983 520.097 540.856 529.971C521.144 543.753 559.063 573.151 571.238 580.657Z" fill="black" stroke="black" stroke-opacity="0.3" stroke-width="0.25" stroke-miterlimit="10" stroke-linecap="round" stroke-linejoin="round"/>
<path d="M670.111 518.322C693.22 501.069 726.796 523.417 753.158 512.508C757.764 510.602 762.55 507.646 767.327 509.013C771.199 510.121 773.83 513.777 776.996 516.368C790.426 527.355 810.627 518.021 826.633 524.083C836.427 527.793 843.585 537.059 847.559 547.19C851.532 557.322 852.76 568.372 853.941 579.267C854.191 581.547 854.255 584.293 852.492 585.635C850.697 587.006 848.2 586.019 846.22 584.969C823.638 572.961 803.192 556.062 779.041 548.109C776.664 547.326 774.001 546.655 771.767 547.807C769.838 548.804 768.707 550.919 767.142 552.465C761.793 557.74 753.02 555.275 746.734 551.303C740.448 547.331 734.222 541.964 726.898 542.217C717.266 542.552 708.967 552.708 699.561 550.486C693.063 548.95 689.057 542.042 683.14 538.819C672.29 532.902 665.238 542.513 658.089 548.639C655.393 537.744 661.578 524.691 670.111 518.322Z" fill="black" stroke="black" stroke-opacity="0.3" stroke-width="0.25" stroke-miterlimit="10" stroke-linecap="round" stroke-linejoin="round"/>
<path d="M678.636 561.366C672.207 562.664 666.212 566.262 661.874 571.425C660.872 572.616 659.908 574.084 660.143 575.654C660.669 579.155 665.566 578.79 668.691 577.473C672.184 575.995 675.683 574.517 679.176 573.039C681.618 572.008 684.166 570.895 685.864 568.78C687.567 566.66 688.079 563.209 686.265 561.196" fill="black"/>
<path d="M678.636 561.366C672.207 562.664 666.212 566.262 661.874 571.425C660.872 572.616 659.908 574.084 660.143 575.654C660.669 579.155 665.566 578.79 668.691 577.473C672.184 575.995 675.683 574.517 679.176 573.039C681.618 572.008 684.166 570.895 685.864 568.78C687.567 566.66 688.079 563.209 686.265 561.196" stroke="black" stroke-opacity="0.3" stroke-width="0.25" stroke-miterlimit="10" stroke-linecap="round" stroke-linejoin="round"/>
<path d="M795.827 434.666C792.13 434.705 788.262 435.852 785.724 438.686C783.185 441.52 782.419 446.28 784.667 449.372C786.804 452.313 790.727 452.931 794.243 453.11C800.465 453.431 806.719 453.12 812.885 452.182C817.301 451.511 822.138 450.203 824.575 446.265C828.461 439.979 823.135 431.063 816.286 429.002C809.437 426.946 802.191 429.513 795.49 432.05" fill="black"/>
<path d="M795.827 434.666C792.13 434.705 788.262 435.852 785.724 438.686C783.185 441.52 782.419 446.28 784.667 449.372C786.804 452.313 790.727 452.931 794.243 453.11C800.465 453.431 806.719 453.12 812.885 452.182C817.301 451.511 822.138 450.203 824.575 446.265C828.461 439.979 823.135 431.063 816.286 429.002C809.437 426.946 802.191 429.513 795.49 432.05" stroke="black" stroke-opacity="0.3" stroke-width="0.25" stroke-miterlimit="10" stroke-linecap="round" stroke-linejoin="round"/>
<path d="M519.897 457.888C522.584 468.112 529.036 477.183 537.597 482.764C539.277 477.329 539.309 471.345 537.689 465.89C536.822 462.963 535.405 460.09 533.051 458.296C530.693 456.502 527.24 456.07 524.905 457.893" fill="black"/>
<path d="M519.897 457.888C522.584 468.112 529.036 477.183 537.597 482.764C539.277 477.329 539.309 471.345 537.689 465.89C536.822 462.963 535.405 460.09 533.051 458.296C530.693 456.502 527.24 456.07 524.905 457.893" stroke="black" stroke-opacity="0.3" stroke-width="0.25" stroke-miterlimit="10" stroke-linecap="round" stroke-linejoin="round"/>
<path d="M518.427 435.594C510.212 433.873 501.263 436.663 495.258 442.813C503.28 447.48 512.986 447.091 522.138 446.547C532.268 445.939 542.399 445.293 552.524 444.597C553.794 442.035 552.464 438.72 550.258 437.004C548.052 435.287 545.218 434.792 542.495 434.437C533.491 433.255 524.371 433.032 515.326 433.771" fill="black"/>
<path d="M518.427 435.594C510.212 433.873 501.263 436.663 495.258 442.813C503.28 447.48 512.986 447.091 522.138 446.547C532.268 445.939 542.399 445.293 552.524 444.597C553.794 442.035 552.464 438.72 550.258 437.004C548.052 435.287 545.218 434.792 542.495 434.437C533.491 433.255 524.371 433.032 515.326 433.771" stroke="black" stroke-opacity="0.3" stroke-width="0.25" stroke-miterlimit="10" stroke-linecap="round" stroke-linejoin="round"/>
<path d="M452.19 429.571C446.499 427.373 440.522 425.137 434.523 426.041C428.523 426.945 422.638 432.138 422.957 438.511C423.298 445.4 430.789 449.945 437.292 449.1C440.855 448.638 444.187 447.009 447.699 446.221C457.506 444.024 468.352 448.414 477.458 443.995C478.547 443.465 479.664 442.726 480.07 441.54C480.587 440.042 479.803 438.409 478.907 437.13C472.608 428.151 460.834 426.192 450.298 424.977" fill="black"/>
<path d="M452.19 429.571C446.499 427.373 440.522 425.137 434.523 426.041C428.523 426.945 422.638 432.138 422.957 438.511C423.298 445.4 430.789 449.945 437.292 449.1C440.855 448.638 444.187 447.009 447.699 446.221C457.506 444.024 468.352 448.414 477.458 443.995C478.547 443.465 479.664 442.726 480.07 441.54C480.587 440.042 479.803 438.409 478.907 437.13C472.608 428.151 460.834 426.192 450.298 424.977" stroke="black" stroke-opacity="0.3" stroke-width="0.25" stroke-miterlimit="10" stroke-linecap="round" stroke-linejoin="round"/>
<path d="M627.614 425.491C629.299 428.292 632.742 429.176 635.857 429.648C645.277 431.067 654.914 430.844 664.264 429.001C667.624 428.34 671.686 426.571 671.769 422.973C671.801 421.476 671.076 420.08 670.278 418.841C660 402.798 615.919 406.05 627.614 425.491Z" fill="black" stroke="black" stroke-opacity="0.3" stroke-width="0.25" stroke-miterlimit="10" stroke-linecap="round" stroke-linejoin="round"/>
<path d="M657.959 286.309C658.384 283.669 658.993 280.908 660.737 278.963C664.06 275.254 669.774 276.08 674.468 277.344C691.959 282.045 708.944 288.842 724.986 297.559C727.894 287.505 717.727 278.866 708.634 274.544C699.538 270.222 688.53 264.763 687.723 254.286C686.91 243.761 697.018 236.522 705.15 230.348C713.282 224.174 721.151 212.54 715.197 204.042C711.399 198.621 703.521 198.072 697.752 200.974C691.983 203.877 687.829 209.361 683.883 214.665C677.994 222.584 672.105 230.499 666.211 238.418C663.631 241.889 660.89 245.491 657.059 247.271C653.228 249.05 647.986 248.292 645.927 244.456C643.809 240.504 645.969 235.418 649.038 232.234C652.112 229.05 656.067 226.843 658.762 223.299C666.751 212.788 660.133 197.532 659.879 184.071C659.69 174.061 663.271 164.445 666.793 155.145C642.193 169.277 628.569 201.801 635.243 230.465C636.498 235.866 638.404 241.204 638.344 246.76C638.28 252.935 635.787 259.031 636.692 265.132C637.61 271.316 641.829 276.319 644.22 282.05C648.742 292.891 646.449 305.356 647.039 317.185C647.676 330.048 652.208 342.523 659.381 352.902C662.63 357.603 680.888 379.237 680.168 361.439C679.835 353.228 664.619 337.399 661.55 328.123C657.142 314.768 655.716 300.276 657.959 286.309Z" fill="black" stroke="black" stroke-opacity="0.3" stroke-width="0.25" stroke-miterlimit="10" stroke-linecap="round" stroke-linejoin="round"/>
<path d="M609.315 340.326C610.335 344.604 616.219 347.341 618.868 343.923C619.085 349.188 619.708 355.255 623.871 358.182C626.386 359.951 630.337 360.963 630.365 364.152C630.374 365.304 629.774 366.417 629.903 367.565C630.171 369.942 633.056 370.691 635.322 370.856C638.7 371.104 642.231 371.327 645.346 369.918C648.461 368.508 650.967 364.92 650.095 361.468C649.098 357.516 644.58 355.897 642.309 352.581C639.752 348.848 640.468 343.767 640.085 339.178C639.702 334.594 636.702 329.207 632.391 329.975C630.909 330.238 629.58 331.23 628.08 331.302C622.39 331.58 620.797 323.048 614.124 326.232C610.478 327.977 608.442 336.66 609.315 340.326Z" fill="black" stroke="black" stroke-opacity="0.3" stroke-width="0.25" stroke-miterlimit="10" stroke-linecap="round" stroke-linejoin="round"/>
<path d="M688.106 140.587C689.509 144.54 687.958 148.91 687.921 153.13C687.884 157.35 691.055 162.44 694.849 161.088C696.496 160.5 697.572 158.867 698.43 157.277C702.648 149.455 704.328 140.14 703.119 131.229C702.796 128.832 701.711 125.935 699.418 125.818C698.148 125.755 697.023 126.63 696.104 127.558C693.003 130.694 690.935 134.938 690.321 139.42" fill="black"/>
<path d="M688.106 140.587C689.509 144.54 687.958 148.91 687.921 153.13C687.884 157.35 691.055 162.44 694.849 161.088C696.496 160.5 697.572 158.867 698.43 157.277C702.648 149.455 704.328 140.14 703.119 131.229C702.796 128.832 701.711 125.935 699.418 125.818C698.148 125.755 697.023 126.63 696.104 127.558C693.003 130.694 690.935 134.938 690.321 139.42" stroke="black" stroke-opacity="0.3" stroke-width="0.25" stroke-miterlimit="10" stroke-linecap="round" stroke-linejoin="round"/>
<path d="M765.112 323.579C766.104 324.123 767.604 324.473 768.103 323.414C768.255 323.093 768.255 322.718 768.236 322.363C767.95 316.082 763.727 310.618 758.664 307.278C754.446 304.492 749.6 306.539 752.055 312.033C754.271 316.991 760.686 321.148 765.112 323.579Z" fill="black" stroke="black" stroke-opacity="0.3" stroke-width="0.25" stroke-miterlimit="10" stroke-linecap="round" stroke-linejoin="round"/>
<path d="M376.42 1004.09C374.694 1007.33 373.12 1011 373.78 1014.65C374.343 1017.76 376.439 1020.3 377.592 1023.22C380.362 1030.25 377.431 1038.15 375.017 1045.32C374.528 1046.78 374.057 1048.38 374.542 1049.84C375.396 1052.4 378.539 1053.01 381.114 1053C389.887 1052.99 398.656 1050.74 406.456 1046.51C412.082 1043.45 417.228 1039.38 423.163 1037.07C427.839 1035.25 432.911 1034.57 437.36 1032.21C443.101 1029.15 447.232 1023.62 451.164 1018.26C455.724 1012.05 460.279 1005.84 464.839 999.631C467.521 995.98 470.364 991.546 469.154 987.107C468.107 983.247 464.142 980.355 464.442 976.354C464.738 972.406 468.85 970.345 472.044 968.259C475.237 966.174 478.094 961.385 475.404 958.624C472.113 955.24 465.448 960.291 462.315 956.742C460.187 954.336 461.821 950.053 460.007 947.379C447.943 953.782 435.445 960.549 427.271 971.881C423.948 976.485 420.094 982.44 414.662 981.58C406.05 980.219 403.576 972.596 395.116 979.446C387.589 985.537 381.012 995.455 376.42 1004.09Z" fill="black" stroke="black" stroke-opacity="0.3" stroke-width="0.25" stroke-miterlimit="10" stroke-linecap="round" stroke-linejoin="round"/>
<path d="M-81.0118 930.307C-81.9949 933.074 -83.3702 935.816 -83.2917 938.771C-83.1533 943.837 -78.7734 947.678 -74.3012 949.549C-65.3892 953.278 -55.3372 951.941 -45.959 949.826C-26.5657 945.456 -7.80457 937.974 9.47955 927.726C12.1287 926.151 15.2393 924.464 18.0639 925.655C19.3607 926.199 20.3761 927.284 21.4284 928.256C26.9067 933.317 34.4665 935.786 41.7079 934.882C44.2693 934.561 47.0477 933.642 48.3446 931.289C49.0784 929.962 49.2399 928.334 50.0522 927.065C53.5644 921.591 63.5888 928.115 67.4887 922.937C69.0394 920.881 68.707 917.92 68.1163 915.373C66.8102 909.728 64.6179 904.318 61.6503 899.422C61.1657 898.62 60.6211 897.794 59.8042 897.385C56.7951 895.868 54.686 900.638 52.0737 902.816C49.2907 905.13 44.5785 903.997 43.0277 900.638C42.3262 899.121 42.2109 897.312 41.2648 895.946C39.5387 893.442 35.8742 893.574 33.1927 894.847C30.5113 896.121 28.1989 898.25 25.3605 899.077C20.1591 900.594 14.7871 897.351 10.7487 893.578C6.71037 889.806 3.05512 885.241 -1.99858 883.243C-7.05228 881.245 -14.1136 883.316 -15.189 888.892C-16.089 893.559 -12.346 897.92 -8.23385 899.908C-4.12166 901.897 0.525856 902.402 4.61035 904.449C8.69485 906.496 12.3318 911.002 11.2472 915.626C10.8318 917.4 9.76564 918.936 8.49644 920.181C2.61662 925.952 -6.83084 925.31 -14.206 921.941C-21.5766 918.572 -27.8626 912.976 -35.1547 909.422C-43.7852 905.212 -56.6478 903.185 -66.0768 905.572C-77.3011 908.411 -77.5873 920.652 -81.0118 930.307Z" fill="#E8F1FD" stroke="black" stroke-opacity="0.3" stroke-width="0.25" stroke-miterlimit="10" stroke-linecap="round" stroke-linejoin="round"/>
<path d="M82.4851 973.18C78.0914 973.598 73.5961 974.75 70.167 977.672C66.7378 980.594 64.6472 985.606 66.0133 990.025C67.9009 996.131 74.8976 998.387 80.9436 999.233C92.8971 1000.91 105.391 1000.7 116.416 1005.84C125.25 1009.97 132.381 1017.21 139.35 1024.26C143.794 1028.76 148.428 1033.36 154.215 1035.58C165.74 1040 180.061 1032.29 183.411 1019.86C184.09 1017.35 184.353 1014.62 183.55 1012.15C181.658 1006.36 175.095 1004.34 169.695 1002.09C161.041 998.47 153.385 992.237 147.883 984.323C145.202 980.462 142.986 976.179 139.659 972.922C130.978 964.434 123.021 971.916 113.555 973.316C103.258 974.823 92.8141 972.198 82.4851 973.18Z" fill="#E8F1FD" stroke="black" stroke-opacity="0.3" stroke-width="0.25" stroke-miterlimit="10" stroke-linecap="round" stroke-linejoin="round"/>
<path d="M117.116 922.006C117.126 924.894 117.73 927.888 119.433 930.149C122.082 933.654 126.698 934.641 130.934 934.996C146.7 936.314 163.26 932.303 177.987 938.375C183.267 940.553 188.219 944.005 193.868 944.583C206.477 945.876 217.969 932.551 230.287 935.657C233.513 936.469 236.453 938.385 239.744 938.837C245.97 939.692 251.572 935.254 257.318 932.59C267.26 927.986 278.706 928.579 288.988 924.889C297.826 921.719 305.368 915.55 312.729 909.492C317.238 905.778 321.923 901.836 324.194 896.303C326.469 890.771 325.357 883.196 320.289 880.391C319.458 879.934 318.494 879.613 317.589 879.866C314.34 880.771 316.043 885.841 316.172 889.375C316.361 894.422 311.769 898.199 307.315 900.061C302.862 901.928 297.831 902.968 294.471 906.571C291.282 909.988 289.796 915.511 285.504 917.101C279.176 919.444 274.063 911.442 267.952 908.53C259.626 904.563 250.386 910.508 241.562 913.007C224.832 917.742 207.552 909.736 191.491 902.895C173.27 895.136 117.006 885.754 117.116 922.006Z" fill="#E8F1FD" stroke="black" stroke-opacity="0.3" stroke-width="0.25" stroke-miterlimit="10" stroke-linecap="round" stroke-linejoin="round"/>
<path d="M-566.596 163.392C-574.003 174.136 -581.406 184.875 -588.814 195.619C-591.075 198.9 -593.438 202.478 -593.466 206.533C-593.494 210.592 -589.931 214.866 -586.234 213.723C-588.228 219.081 -594.26 221.122 -598.423 224.841C-604.93 230.661 -606.615 240.5 -606.573 249.494C-606.481 270.136 -598.15 292.076 -580.959 301.979C-589.252 306.155 -592.967 318.163 -588.597 326.686C-584.415 334.848 -574.022 341.061 -576.145 350.06C-576.579 351.898 -577.548 353.594 -577.719 355.476C-578.102 359.725 -574.423 363.084 -570.907 365.199C-563.818 369.467 -555.879 371.99 -548.772 376.225C-541.664 380.459 -535.111 387.056 -533.809 395.549C-532.129 406.507 -539.486 418.126 -535.438 428.374C-533.518 433.241 -529.378 436.663 -526.212 440.747C-515.334 454.773 -516.733 474.89 -517.688 492.974C-517.896 496.917 -518.03 501.025 -516.557 504.657C-515.085 508.288 -511.513 511.293 -507.811 510.661C-505.033 510.184 -502.762 507.831 -499.966 507.481C-496.209 507.005 -493.047 510.17 -489.641 511.91C-485.197 514.18 -480.032 514.054 -475.094 513.879C-456.642 513.223 -438.19 512.566 -419.734 511.915C-417.805 511.847 -415.811 511.789 -414.025 512.557C-403.368 517.117 -414.496 538.911 -404.587 545.061C-405.491 550.214 -406.087 555.115 -402.325 558.542C-392.282 548.012 -376.397 548.221 -362.417 545.795C-348.433 543.374 -332.39 533.525 -333.826 518.673C-321.664 528.882 -305.654 533.86 -290.179 532.236C-294.813 539.013 -291.43 550.102 -283.916 552.766C-276.398 555.431 -267.343 548.751 -267.144 540.399C-256.829 550 -241.65 553.428 -228.506 549.115C-225.376 566.588 -224.513 584.503 -225.935 602.218C-199.84 592.928 -174.918 579.996 -152.022 563.865C-136.496 552.927 -120.19 535.596 -125.11 516.616C-114.283 511.993 -107.969 498.011 -111.393 486.246C-105.574 491.38 -96.3662 482.284 -98.3 474.554C-100.234 466.824 -108.103 462.575 -115.45 460.572C-109.515 456.654 -104.803 449.877 -105.034 442.502C-105.269 435.127 -111.832 428.058 -118.732 429.356C-102.717 416.853 -84.8281 399.725 -88.3634 379.059C-90.1449 383.955 -84.925 389.108 -79.9498 389.015C-74.9745 388.923 -70.6777 385.52 -66.7686 382.272C-56.1627 373.449 -44.9478 363.687 -41.3571 349.963C-37.6279 335.709 -43.0416 320.439 -41.0109 305.805C-37.0371 277.19 -5.82416 256.573 -8.38562 227.783C11.7692 245.513 42.8437 247.846 65.1815 233.305C34.7485 214.832 7.63849 190.3 -14.284 161.389C-7.65649 158.929 -4.42584 150.548 -5.19659 143.187C-5.96735 135.832 -9.77484 129.269 -13.4855 122.987C-21.2253 109.895 -28.9651 96.8032 -36.7003 83.7111C-45.4647 68.8834 -54.2289 54.0558 -62.9933 39.2281C-57.012 46.078 -45.2247 45.7425 -39.6079 38.562C-36.6541 42.4513 -31.4804 46.253 -27.6313 43.3604C-22.333 39.3788 -27.9452 31.0705 -32.7081 26.3937C-37.4711 21.7169 -39.1463 10.3992 -32.6388 10.6812C-64.7748 -6.92726 -102.994 -11.8666 -138.222 -2.97004C-143.705 -1.5845 -149.303 0.228881 -153.554 4.12783C-158.257 8.44487 -160.754 14.8086 -162.655 21.0703C-167.46 36.914 -169.435 53.7058 -168.452 70.3079C-168.258 73.604 -167.972 77.0654 -169.269 80.0698C-173.03 88.8012 -185.939 87.051 -192.553 93.6432C-201.908 102.977 -192.576 120.153 -197.057 132.881C-198.765 137.732 -202.369 141.51 -205.623 145.385C-217.761 159.862 -226.119 177.821 -229.544 196.8C-245.231 190.952 -263.309 192.673 -277.746 201.394C-281.71 203.786 -285.485 206.713 -289.902 207.943C-300.01 210.762 -310.006 204.175 -319.491 199.532C-342.129 188.453 -372.243 189.386 -388.66 209.192C-394.452 216.178 -398.665 225.415 -406.807 228.949C-416.748 233.262 -427.788 227.175 -438.518 226.48C-456.665 225.303 -473.289 239.698 -491.436 238.497C-501.595 237.822 -510.881 232.289 -519.114 225.984C-540.289 209.771 -556.299 188.754 -566.596 163.392Z" fill="#E8F1FD" stroke="black" stroke-opacity="0.3" stroke-width="0.25" stroke-miterlimit="10" stroke-linecap="round" stroke-linejoin="round"/>
<path d="M120.26 307.135C112.673 308.696 110.218 319.221 111.985 327.15C113.753 335.074 118.077 342.508 117.874 350.646C96.3718 359.494 81.8614 384.317 84.0398 408.527C84.746 416.388 87.0213 424.274 85.7105 432.052C84.8613 437.098 82.5537 441.717 80.6337 446.428C75.2016 459.758 72.7555 474.42 73.5493 488.903C67.1526 486.696 60.1097 491.548 57.1328 497.906C54.156 504.265 54.2161 511.669 54.336 518.758C54.4745 526.784 54.6129 534.815 54.7514 542.842C54.876 550.076 56.256 559.142 62.865 561.121C70.5217 563.411 79.4153 553.746 85.7844 558.778C87.7781 560.353 88.7288 562.959 89.5365 565.438C100.212 598.287 102.205 634.209 95.2411 668.143C93.2288 677.948 90.8564 689.451 97.1332 696.996C110.153 712.645 139.487 689.956 153.07 705.061C154.099 673.495 155.129 641.924 156.153 610.358C157.067 582.239 157.93 553.586 150.693 526.502C149.424 521.757 147.919 516.653 149.544 512.029C151.995 505.058 160.071 502.724 167.013 501.353C173.571 500.06 180.129 498.762 186.688 497.469C188.788 497.051 191.007 496.647 193.024 497.391C197.118 498.903 198.489 504.256 198.655 508.821C199.329 527.294 190.703 547.577 200.044 563.226C204.982 571.5 213.793 576.056 221.547 581.423C229.3 586.79 236.938 594.602 236.934 604.374C236.929 616.377 225.479 628.677 231.668 638.76C233.311 641.438 235.951 643.232 238.503 644.948C246.69 650.437 258.344 655.605 265.068 648.235C267.579 645.483 268.576 641.623 270.201 638.215C276.057 625.925 291.68 620.033 303.61 625.619C304.243 621.662 304.88 617.699 305.512 613.742C310.099 617.067 316.985 613.008 318.407 607.335C319.828 601.661 317.221 595.667 313.653 591.165C303.361 578.165 284.259 571.442 281.508 554.767C280.437 548.282 282.279 541.699 282.597 535.126C283.479 516.75 272.476 500.114 260.269 486.949C248.061 473.784 233.897 462.062 225.525 445.912C224.883 444.678 224.27 443.365 224.242 441.955C224.159 437.361 229.669 435.441 233.962 434.629C265.442 428.669 294.315 408.717 312.038 380.671C314.849 376.222 317.77 371.249 322.574 369.523C330.813 366.558 340.38 374.642 348.175 370.559C355.094 366.937 354.83 355.128 348.78 350.077C342.725 345.026 333.665 345.92 326.959 349.965C323.885 351.822 321.088 354.273 317.733 355.473C312.241 357.437 306.232 355.746 300.435 355.984C284.157 356.655 269.901 372.45 253.899 369.246C248.117 368.089 242.809 364.462 236.925 364.414C221.856 364.282 215.888 385.051 203.755 394.468C192.341 403.32 174.157 399.961 166.288 387.545C163.925 383.811 162.453 379.533 160.279 375.673C157.307 370.393 153.093 366.028 149.512 361.181C139.303 347.364 134.364 328.963 137.72 311.817C141.075 294.67 153.199 279.347 169.099 274.237C177.531 271.524 186.517 271.646 195.332 271.787C226.074 272.283 256.816 272.779 287.559 273.274C309.749 273.634 332.553 274.12 353.058 283.056C359.958 286.065 366.821 290.076 374.288 289.998C381.936 289.92 388.886 285.56 395.334 281.233C425.55 260.946 455.485 236.784 470.489 202.505C472.049 198.942 473.193 194.1 470.323 191.596C467.853 189.442 464.143 190.638 461.258 192.121C434.37 205.928 414.386 236.312 384.576 238.991C366.71 240.595 348.263 231.524 331.205 237.343C327.527 238.597 323.931 240.547 320.068 240.508C315.255 240.459 311.027 237.372 306.661 235.233C281.42 222.88 246.75 240.77 225.986 221.251C222.691 218.154 219.977 214.231 216.055 212.092C205.033 206.078 192.812 216.822 184.255 226.298C176.931 234.402 168.734 239.783 158.087 240.765C149.562 241.553 146.253 238.986 139.243 245.486C131.909 252.287 127.072 265.409 124.183 274.942C123.389 277.533 118.839 307.427 120.26 307.135Z" fill="#E8F1FD" stroke="black" stroke-opacity="0.3" stroke-width="0.25" stroke-miterlimit="10" stroke-linecap="round" stroke-linejoin="round"/>
<path d="M881.402 362.394C872.808 374.368 866.503 388.155 862.959 402.696C880.045 400.289 899.992 398.874 911.848 412.054C921.97 423.299 922.311 441.491 932.285 452.881C940.818 462.629 954.378 465.142 966.941 465.944C991.974 467.549 1017.27 464.554 1041.34 457.135C1040.83 467.403 1040.3 477.675 1039.79 487.943C1030.78 477.184 1014.24 474.501 1002.58 481.909C994.955 486.752 989.436 495.206 981.013 498.239C975.165 500.349 968.796 499.503 962.621 499.236C955.541 498.925 948.434 499.401 941.446 500.656C936.503 501.54 930.282 505.055 931.745 510.102C932.419 512.43 934.592 513.864 936.665 514.948C944.548 519.076 953.27 521.152 961.264 525.036C969.262 528.921 976.905 535.279 979.185 544.239C982.296 556.476 974.634 569.947 978.765 581.843C981.433 589.524 989.228 594.862 996.977 594.313C1011.39 593.287 1018.87 575.927 1022.16 561.104C1025.45 546.281 1029.52 528.755 1043 523.267C1044.72 531.526 1041.99 540.117 1042.65 548.542C1044.05 566.315 1060.39 579.301 1076.98 582.845C1081.92 583.9 1086.95 584.337 1091.97 584.775C1099.02 585.387 1106.07 586 1113.12 586.612C1113.11 605.786 1131.24 622.685 1149.31 620.337C1167.42 617.984 1184.56 624.518 1201.3 632.175C1218.05 639.827 1234.21 649.384 1251.99 653.711C1262.31 656.22 1273.35 657.041 1282.38 662.895C1288.18 666.653 1292.68 672.214 1297.49 677.29C1310.53 691.048 1326.49 701.724 1343.85 708.301C1340.08 709.58 1337.18 713.348 1336.78 717.504C1340.4 719.566 1344.02 721.627 1347.64 723.683C1343.05 727.383 1345.28 735.025 1348.01 740.392C1357.36 758.769 1367.9 776.475 1379.52 793.344C1373.04 796.699 1372.14 807.817 1377.98 812.285C1384.21 817.034 1393.71 813.724 1399.98 818.405C1392.79 820.807 1385.6 823.209 1378.41 825.61C1386.42 828.026 1391.51 836.943 1392.03 845.693C1392.56 854.449 1389.36 862.986 1385.38 870.696C1383.3 874.736 1380.92 879.442 1382.63 883.671C1384.77 888.985 1392.32 889.5 1396.73 886.068C1401.14 882.636 1403.16 876.841 1404.94 871.386C1407.48 883.934 1421.3 890.939 1433.42 889.685C1445.54 888.431 1456.24 881.148 1466.4 874.075C1462.32 880.808 1464.14 890.026 1468.52 896.545C1472.9 903.064 1479.38 907.605 1485.41 912.447C1498.67 923.074 1510.41 935.797 1520.12 950.056V492.994C1513.52 495.109 1508.39 487.267 1502.84 482.945C1493.31 475.531 1480.99 473.776 1469.31 471.647C1440.53 466.406 1412.35 457.514 1385.58 445.224C1367.67 437.008 1350.35 427.256 1331.79 420.858C1320.67 417.027 1308.8 414.417 1297.28 416.57C1285.76 418.729 1274.64 426.473 1270.76 438.102C1269.74 441.184 1269.21 444.495 1267.6 447.286C1260.84 459.002 1243.5 452.575 1231.15 456.873C1219.39 460.961 1213.52 474.335 1207.07 485.473C1193.29 509.275 1171.17 527.584 1145.96 536.067C1138.3 538.644 1128.4 539.635 1123.63 532.815C1120.43 528.245 1120.96 521.954 1119.25 516.572C1117.55 511.191 1110.59 506.664 1107.09 510.972C1104.91 506.348 1106.12 500.85 1105.9 495.697C1105.67 490.544 1102.47 484.457 1097.6 485.06C1089.64 486.047 1092.66 499.727 1087.96 506.572C1076.87 482.887 1065.47 457.179 1069.67 431.141C1071.15 421.972 1074.56 412.725 1072.67 403.639C1070.64 393.857 1062.66 385.637 1063.13 375.632C1063.37 370.629 1065.75 365.515 1064.12 360.809C1061.57 353.453 1052.08 353.069 1044.65 352.952C1029.86 352.719 1015.15 348.208 1002.56 340.05C995.38 335.402 988.633 329.486 980.422 327.512C971.339 325.329 961.924 328.319 953.109 331.503C928.713 340.308 896.946 340.721 881.402 362.394Z" fill="#E8F1FD" stroke="black" stroke-opacity="0.3" stroke-width="0.25" stroke-miterlimit="10" stroke-linecap="round" stroke-linejoin="round"/>
<path d="M566.817 574.553C572.586 578.078 579.227 581.073 585.763 579.673C589.469 578.875 592.773 576.731 595.875 574.446C602.193 569.799 608.396 563.79 609.822 555.812C611.728 545.165 604.505 535.122 596.687 528.077C584.72 517.294 550.562 513.998 536.435 523.872C516.723 537.654 554.642 567.047 566.817 574.553Z" fill="#E8F1FD" stroke="black" stroke-opacity="0.3" stroke-width="0.25" stroke-miterlimit="10" stroke-linecap="round" stroke-linejoin="round"/>
<path d="M665.69 512.213C688.799 494.96 722.37 517.308 748.737 506.399C753.343 504.493 758.129 501.537 762.906 502.903C766.778 504.012 769.409 507.668 772.575 510.259C786.005 521.246 806.206 511.912 822.212 517.974C832.005 521.684 839.164 530.95 843.137 541.081C847.111 551.212 848.334 562.268 849.52 573.158C849.769 575.438 849.834 578.184 848.071 579.531C846.276 580.897 843.779 579.915 841.799 578.865C819.217 566.857 798.771 549.958 774.624 542.005C772.247 541.222 769.584 540.551 767.35 541.703C765.421 542.7 764.29 544.815 762.726 546.361C757.377 551.635 748.603 549.171 742.317 545.199C736.031 541.227 729.805 535.86 722.481 536.113C712.849 536.448 704.551 546.604 695.145 544.382C688.646 542.846 684.64 535.943 678.724 532.714C667.873 526.793 660.821 536.409 653.672 542.535C650.972 531.635 657.161 518.587 665.69 512.213Z" fill="#E8F1FD" stroke="black" stroke-opacity="0.3" stroke-width="0.25" stroke-miterlimit="10" stroke-linecap="round" stroke-linejoin="round"/>
<path d="M674.219 555.261C667.79 556.559 661.795 560.157 657.456 565.324C656.455 566.515 655.49 567.984 655.726 569.554C656.252 573.054 661.149 572.69 664.273 571.372C667.767 569.894 671.265 568.416 674.759 566.938C677.201 565.908 679.748 564.799 681.447 562.68C683.145 560.565 683.662 557.108 681.848 555.096" fill="#E8F1FD"/>
<path d="M674.219 555.261C667.79 556.559 661.795 560.157 657.456 565.324C656.455 566.515 655.49 567.984 655.726 569.554C656.252 573.054 661.149 572.69 664.273 571.372C667.767 569.894 671.265 568.416 674.759 566.938C677.201 565.908 679.748 564.799 681.447 562.68C683.145 560.565 683.662 557.108 681.848 555.096" stroke="black" stroke-opacity="0.3" stroke-width="0.25" stroke-miterlimit="10" stroke-linecap="round" stroke-linejoin="round"/>
<path d="M791.409 428.567C787.713 428.606 783.845 429.753 781.307 432.587C778.768 435.422 778.002 440.181 780.25 443.273C782.387 446.214 786.31 446.832 789.827 447.012C796.048 447.332 802.302 447.021 808.468 446.083C812.884 445.412 817.721 444.104 820.158 440.166C824.044 433.881 818.718 424.964 811.869 422.903C805.02 420.847 797.774 423.414 791.072 425.951" fill="#E8F1FD"/>
<path d="M791.409 428.567C787.713 428.606 783.845 429.753 781.307 432.587C778.768 435.422 778.002 440.181 780.25 443.273C782.387 446.214 786.31 446.832 789.827 447.012C796.048 447.332 802.302 447.021 808.468 446.083C812.884 445.412 817.721 444.104 820.158 440.166C824.044 433.881 818.718 424.964 811.869 422.903C805.02 420.847 797.774 423.414 791.072 425.951" stroke="black" stroke-opacity="0.3" stroke-width="0.25" stroke-miterlimit="10" stroke-linecap="round" stroke-linejoin="round"/>
<path d="M515.478 451.786C518.164 462.009 524.616 471.081 533.177 476.662C534.857 471.227 534.889 465.242 533.269 459.788C532.402 456.861 530.985 453.988 528.626 452.194C526.268 450.4 522.816 449.967 520.481 451.79" fill="#E8F1FD"/>
<path d="M515.478 451.786C518.164 462.009 524.616 471.081 533.177 476.662C534.857 471.227 534.889 465.242 533.269 459.788C532.402 456.861 530.985 453.988 528.626 452.194C526.268 450.4 522.816 449.967 520.481 451.79" stroke="black" stroke-opacity="0.3" stroke-width="0.25" stroke-miterlimit="10" stroke-linecap="round" stroke-linejoin="round"/>
<path d="M514.01 429.489C505.795 427.768 496.846 430.558 490.842 436.708C498.863 441.375 508.569 440.986 517.721 440.442C527.852 439.834 537.982 439.187 548.108 438.492C549.377 435.93 548.048 432.615 545.837 430.898C543.631 429.182 540.797 428.686 538.074 428.332C529.07 427.15 519.95 426.927 510.904 427.665" fill="#E8F1FD"/>
<path d="M514.01 429.489C505.795 427.768 496.846 430.558 490.842 436.708C498.863 441.375 508.569 440.986 517.721 440.442C527.852 439.834 537.982 439.187 548.108 438.492C549.377 435.93 548.048 432.615 545.837 430.898C543.631 429.182 540.797 428.686 538.074 428.332C529.07 427.15 519.95 426.927 510.904 427.665" stroke="black" stroke-opacity="0.3" stroke-width="0.25" stroke-miterlimit="10" stroke-linecap="round" stroke-linejoin="round"/>
<path d="M447.766 423.471C442.08 421.274 436.099 419.037 430.099 419.942C424.099 420.846 418.214 426.038 418.533 432.411C418.874 439.3 426.365 443.846 432.868 443C436.431 442.538 439.763 440.909 443.275 440.122C453.083 437.924 463.929 442.314 473.034 437.895C474.124 437.365 475.236 436.626 475.647 435.44C476.164 433.943 475.379 432.309 474.479 431.031C468.179 422.052 456.406 420.092 445.869 418.877" fill="#E8F1FD"/>
<path d="M447.766 423.471C442.08 421.274 436.099 419.037 430.099 419.942C424.099 420.846 418.214 426.038 418.533 432.411C418.874 439.3 426.365 443.846 432.868 443C436.431 442.538 439.763 440.909 443.275 440.122C453.083 437.924 463.929 442.314 473.034 437.895C474.124 437.365 475.236 436.626 475.647 435.44C476.164 433.943 475.379 432.309 474.479 431.031C468.179 422.052 456.406 420.092 445.869 418.877" stroke="black" stroke-opacity="0.3" stroke-width="0.25" stroke-miterlimit="10" stroke-linecap="round" stroke-linejoin="round"/>
<path d="M623.198 419.386C624.882 422.187 628.325 423.071 631.441 423.543C640.86 424.963 650.497 424.739 659.847 422.896C663.207 422.235 667.269 420.466 667.352 416.868C667.389 415.371 666.659 413.975 665.861 412.736C655.583 396.698 611.498 399.95 623.198 419.386Z" fill="#E8F1FD" stroke="black" stroke-opacity="0.3" stroke-width="0.25" stroke-miterlimit="10" stroke-linecap="round" stroke-linejoin="round"/>
<path d="M653.538 280.204C653.963 277.564 654.572 274.802 656.317 272.858C659.64 269.149 665.353 269.975 670.047 271.239C687.539 275.94 704.523 282.737 720.566 291.453C723.473 281.4 713.306 272.761 704.214 268.439C695.117 264.117 684.109 258.653 683.302 248.181C682.494 237.656 692.597 230.417 700.729 224.243C708.861 218.068 716.73 206.435 710.776 197.937C706.978 192.516 699.105 191.967 693.331 194.869C687.562 197.772 683.408 203.255 679.467 208.559C673.578 216.479 667.689 224.393 661.795 232.313C659.215 235.784 656.474 239.386 652.643 241.166C648.812 242.945 643.569 242.187 641.511 238.351C639.392 234.398 641.552 229.313 644.621 226.134C647.695 222.949 651.651 220.742 654.341 217.198C662.335 206.688 655.712 191.432 655.458 177.971C655.269 167.956 658.85 158.345 662.372 149.044C637.772 163.177 624.148 195.701 630.822 224.364C632.077 229.765 633.983 235.103 633.923 240.66C633.859 246.834 631.367 252.93 632.271 259.032C633.19 265.216 637.408 270.218 639.799 275.95C644.322 286.791 642.028 299.256 642.618 311.084C643.26 323.948 647.788 336.422 654.96 346.802C658.209 351.503 676.467 373.137 675.747 355.339C675.415 347.128 660.198 331.298 657.129 322.023C652.726 308.668 651.3 294.176 653.538 280.204Z" fill="#E8F1FD" stroke="black" stroke-opacity="0.3" stroke-width="0.25" stroke-miterlimit="10" stroke-linecap="round" stroke-linejoin="round"/>
<path d="M604.893 334.219C605.913 338.497 611.798 341.234 614.447 337.816C614.664 343.082 615.287 349.149 619.45 352.075C621.965 353.845 625.916 354.861 625.943 358.045C625.953 359.198 625.353 360.311 625.482 361.458C625.75 363.835 628.634 364.584 630.9 364.749C634.279 364.997 637.809 365.216 640.925 363.811C644.035 362.401 646.546 358.813 645.674 355.362C644.677 351.409 640.158 349.79 637.892 346.475C635.335 342.741 636.051 337.661 635.668 333.072C635.285 328.482 632.285 323.101 627.974 323.869C626.493 324.131 625.164 325.123 623.664 325.196C617.973 325.478 616.381 316.941 609.707 320.125C606.056 321.866 604.021 330.549 604.893 334.219Z" fill="#E8F1FD" stroke="black" stroke-opacity="0.3" stroke-width="0.25" stroke-miterlimit="10" stroke-linecap="round" stroke-linejoin="round"/>
<path d="M683.685 134.484C685.092 138.436 683.537 142.807 683.5 147.027C683.463 151.247 686.629 156.337 690.428 154.98C692.071 154.392 693.151 152.759 694.009 151.169C698.227 143.347 699.907 134.032 698.698 125.121C698.375 122.724 697.291 119.826 694.997 119.71C693.728 119.647 692.602 120.522 691.683 121.45C688.582 124.586 686.514 128.835 685.9 133.312" fill="#E8F1FD"/>
<path d="M683.685 134.484C685.092 138.436 683.537 142.807 683.5 147.027C683.463 151.247 686.629 156.337 690.428 154.98C692.071 154.392 693.151 152.759 694.009 151.169C698.227 143.347 699.907 134.032 698.698 125.121C698.375 122.724 697.291 119.826 694.997 119.71C693.728 119.647 692.602 120.522 691.683 121.45C688.582 124.586 686.514 128.835 685.9 133.312" stroke="black" stroke-opacity="0.3" stroke-width="0.25" stroke-miterlimit="10" stroke-linecap="round" stroke-linejoin="round"/>
<path d="M760.691 317.47C761.684 318.015 763.184 318.365 763.682 317.31C763.834 316.989 763.834 316.615 763.816 316.26C763.53 309.979 759.307 304.514 754.248 301.175C750.03 298.389 745.184 300.431 747.639 305.929C749.855 310.883 756.27 315.04 760.691 317.47Z" fill="#E8F1FD" stroke="black" stroke-opacity="0.3" stroke-width="0.25" stroke-miterlimit="10" stroke-linecap="round" stroke-linejoin="round"/>
<path d="M372.004 997.986C370.278 1001.23 368.704 1004.89 369.364 1008.55C369.927 1011.66 372.017 1014.19 373.176 1017.12C375.945 1024.15 373.014 1032.05 370.601 1039.22C370.111 1040.68 369.636 1042.28 370.125 1043.74C370.979 1046.3 374.122 1046.9 376.697 1046.9C385.471 1046.88 394.24 1044.64 402.04 1040.4C407.666 1037.35 412.812 1033.28 418.747 1030.97C423.422 1029.15 428.494 1028.47 432.943 1026.11C438.685 1023.05 442.815 1017.52 446.752 1012.16C451.312 1005.95 455.867 999.737 460.427 993.528C463.109 989.873 465.947 985.444 464.742 981.005C463.695 977.145 459.73 974.252 460.03 970.251C460.326 966.304 464.438 964.243 467.632 962.157C470.825 960.071 473.682 955.283 470.992 952.521C467.696 949.138 461.036 954.189 457.903 950.64C455.775 948.233 457.409 943.95 455.595 941.277C443.531 947.679 431.033 954.447 422.859 965.779C419.536 970.383 415.682 976.338 410.25 975.478C401.638 974.116 399.164 966.493 390.705 973.343C383.173 979.435 376.596 989.352 372.004 997.986Z" fill="#E8F1FD" stroke="black" stroke-opacity="0.3" stroke-width="0.25" stroke-miterlimit="10" stroke-linecap="round" stroke-linejoin="round"/>
</g>
</svg>
