<svg width="1512" height="982" viewBox="0 0 1512 982" fill="none" xmlns="http://www.w3.org/2000/svg">
<g opacity="0.3">
<path d="M6.3391 -83.4567C0.376198 -68.5707 9.41749 -52.0609 18.4311 -38.9883C29.6277 -22.7556 41.3781 -6.95565 53.6639 8.37762C63.4944 20.653 74.1233 32.9819 88.0891 39.4234C94.8643 42.5493 102.244 44.1828 108.742 47.9019C125.851 57.6979 133.115 79.2539 146.32 94.3344C149.998 98.5396 154.207 102.307 157.106 107.145C160.253 112.4 161.652 118.584 164.098 124.238C175.968 151.72 208.856 161.234 227.054 184.565C248.192 211.668 245.991 252.402 265.218 281.046C272.768 292.296 283.19 300.979 292.452 310.707C309.437 328.553 322.572 350.012 334.811 371.748C357.357 411.797 377.336 453.456 394.565 496.335C408.558 531.148 440.348 552.354 464.583 580.24C473.892 590.95 483.238 601.704 493.894 610.916C508.238 623.323 524.706 632.725 539.461 644.587C571.491 670.344 594.567 706.956 626.984 732.173C625.914 723.665 626.158 714.977 627.709 706.552C632.62 710.996 637.65 715.517 643.659 718.055C649.668 720.592 656.946 720.826 662.268 716.946C665.009 714.948 667.123 711.963 670.178 710.553C681.5 705.327 690.449 724.516 702.781 725.43C707.239 684.145 711.702 642.866 716.165 601.582C716.866 595.097 717.563 588.49 716.331 582.092C715.477 577.654 713.705 573.395 713.451 568.879C712.897 558.932 719.709 550.055 720.517 540.127C721.426 528.931 714.688 518.819 708.277 509.84C698.908 496.709 686.706 482.168 671.175 483.651C659.014 484.813 648.754 495.941 636.566 495.163C634.987 495.061 633.358 494.73 632.098 493.734C628.535 490.924 629.864 484.837 632.633 481.167C635.403 477.496 639.33 474.526 640.59 470.029C643.332 460.233 632.389 452.95 626.957 444.491C618.548 431.394 623.357 412.619 615.645 399.05C603.363 377.441 569.884 383.45 553.08 365.535C550.039 362.292 549.997 357.548 549.208 353.065C547.948 345.894 546.683 338.612 547.353 331.358C548.022 324.1 550.893 316.745 556.463 312.423C559.011 310.449 562.052 309.141 564.221 306.72C568.195 302.282 568.163 295.087 565.703 289.564C563.243 284.041 558.831 279.802 554.525 275.718C552.637 273.924 550.579 272.048 548.059 271.707C544.491 271.226 541.334 273.91 538.482 276.219C526.515 285.927 511.677 291.654 496.585 292.388C501.616 287.726 506.646 283.064 511.681 278.402C514.677 275.626 517.954 272.121 517.446 267.954C516.994 264.221 513.541 261.634 510.085 260.686C506.628 259.738 502.977 259.952 499.465 259.252C490.599 257.478 483.676 250.122 478.604 242.261C473.532 234.395 469.655 225.625 463.632 218.537C450.502 203.077 428.856 197.53 416.852 181.084C410.787 172.775 407.626 162.197 400.459 154.929C397.445 151.871 393.582 149.445 389.4 149.343C385.214 149.245 380.816 152.021 379.879 156.314C379.348 158.755 379.939 161.317 379.69 163.806C379.441 166.295 377.747 169.037 375.379 168.828C374.004 168.706 372.901 167.632 371.913 166.621C363.564 158.03 355.215 149.445 346.871 140.854C324.842 118.19 310.678 87.8637 288.756 65.0875C266.833 42.316 240.032 23.6769 209.904 16.9972C206.253 16.1853 202.132 15.2567 200.161 11.9217C197.757 7.84287 199.87 2.54865 199.455 -2.2351C198.97 -7.85503 195.029 -12.3713 191.3 -16.4259C174.551 -34.6274 155.619 -53.9666 131.643 -56.1057C121.153 -57.0391 109.255 -59.6935 98.7457 -60.3158C89.9675 -60.836 81.0739 -61.3756 72.6972 -64.1856C65.4466 -66.6164 58.8053 -70.6709 52.0716 -74.3997C44.1842 -78.7653 36.089 -82.7275 27.8323 -86.2569C20.5264 -89.378 9.38978 -91.0748 6.3391 -83.4567Z" fill="black" stroke="black" stroke-width="0.25" stroke-miterlimit="10" stroke-linecap="round" stroke-linejoin="round"/>
<path d="M716.622 737.588C707.193 742.858 713.008 760.646 704.557 767.511C702.836 768.911 700.713 769.64 698.904 770.909C691.842 775.868 690.795 787.92 682.88 791.133C681.324 787.448 677.586 784.692 673.778 785.115C669.971 785.537 666.708 789.66 667.571 793.588C668.734 798.902 675.204 800.263 680.373 800.545C697.694 801.498 715.011 802.451 732.332 803.408C735.11 803.559 738.041 803.768 740.339 805.416C746.468 809.811 743.764 820.147 747.216 827.06C750.539 833.715 758.593 835.601 765.645 836.734C787.244 840.21 808.899 843.132 830.558 846.025C848.821 848.465 862.404 864.897 882.503 864.6C890.981 864.474 899.224 861.873 907.573 860.337C968.887 849.044 1026.61 894.878 1088.62 900.595C1117.57 903.264 1146.91 897.071 1175.69 901.329C1214.97 907.149 1250.77 932.098 1290.44 932.779C1290.61 926.284 1282.3 923.926 1278.52 918.797C1271.85 909.745 1281.21 897.392 1282.28 885.982C1283.65 871.348 1270.15 859.253 1256.45 856.399C1242.76 853.545 1228.69 857.036 1214.76 857.999C1200.84 858.966 1185.21 856.55 1176.37 845.159C1173.75 841.771 1171.84 837.716 1168.69 834.863C1165.21 831.698 1160.2 829.982 1158.29 825.567C1156.28 820.929 1158.64 815.275 1157.03 810.467C1154 801.401 1141.74 802.951 1132.71 801.561C1119.33 799.5 1108.5 787.351 1094.99 786.69C1088.17 786.354 1081.57 789.038 1074.8 790.01C1068.04 790.982 1060.09 789.631 1056.43 783.559C1054.62 780.569 1054.07 776.748 1051.7 774.239C1047.08 769.344 1038.84 772.63 1034.59 777.89C1030.34 783.15 1027.93 790.049 1022.84 794.4C1016.38 799.928 1007.29 800.03 998.969 799.864C968.356 799.266 937.743 798.668 907.135 798.075C904.652 798.027 902.053 797.944 899.893 796.656C895.933 794.288 894.895 788.936 893.432 784.395C888.867 770.233 875.963 759.48 861.831 758.06C853.048 757.175 843.906 759.572 835.506 756.728C821.24 751.896 812.01 732.989 797.065 734.141C791.698 734.555 786.907 737.651 781.932 739.81C762.926 748.05 741.346 742.615 721.477 737.087L716.622 737.588Z" fill="black" stroke="black" stroke-width="0.25" stroke-miterlimit="10" stroke-linecap="round" stroke-linejoin="round"/>
<path d="M1292.97 892.069C1290.68 894.359 1289.89 898.17 1291.08 901.252C1293.09 906.454 1299.14 908.092 1304.24 909.702C1312.99 912.463 1322.27 918.661 1323.05 928.248C1323.43 932.872 1321.72 937.354 1320.31 941.749C1319.91 942.974 1319.83 944.797 1321.02 945.093C1321.47 945.205 1321.93 945.021 1322.35 944.821C1330.48 940.966 1334.72 931.457 1341.83 925.779C1345.64 922.73 1350.19 920.859 1354.07 917.908C1357.94 914.957 1361.27 910.343 1360.76 905.331C1360.51 902.75 1359.26 900.382 1357.71 898.36C1353.44 892.759 1346.66 889.385 1339.84 889.463C1334.29 889.526 1328.97 891.728 1323.46 892.482C1315.51 893.571 1299.05 886.002 1292.97 892.069Z" fill="black" stroke="black" stroke-width="0.25" stroke-miterlimit="10" stroke-linecap="round" stroke-linejoin="round"/>
<path d="M1392.12 905.462C1389.05 910.391 1388.91 916.634 1387.85 922.424C1386.79 928.214 1383.97 934.519 1378.56 936.007C1377.55 936.284 1376.29 936.541 1375.96 937.587C1375.66 938.544 1376.37 939.512 1377.07 940.197C1382.68 945.662 1390.7 947.261 1398.31 947.966C1405.06 948.593 1413.14 948.015 1416.7 941.938C1419.54 937.101 1418.21 930.751 1419.89 925.35C1420.91 922.078 1422.98 919.307 1424.57 916.303C1426.17 913.299 1427.3 909.686 1426.23 906.434C1425.31 903.648 1422.89 901.636 1420.27 900.595C1411.49 897.1 1397.94 896.094 1392.12 905.462Z" fill="black" stroke="black" stroke-width="0.25" stroke-miterlimit="10" stroke-linecap="round" stroke-linejoin="round"/>
<path d="M1435.41 936.42C1434.43 939.186 1433.05 941.928 1433.13 944.883C1433.27 949.949 1437.65 953.79 1442.12 955.661C1451.03 959.39 1461.09 958.053 1470.46 955.939C1489.86 951.568 1508.62 944.086 1525.9 933.838C1528.55 932.263 1531.66 930.576 1534.49 931.767C1535.78 932.312 1536.8 933.396 1537.85 934.368C1543.33 939.429 1550.89 941.898 1558.13 940.994C1560.69 940.673 1563.47 939.754 1564.76 937.402C1565.5 936.074 1565.66 934.446 1566.47 933.172C1569.98 927.698 1580.01 934.222 1583.91 929.049C1585.46 926.993 1585.12 924.032 1584.53 921.485C1583.23 915.841 1581.04 910.43 1578.07 905.534C1577.58 904.732 1577.04 903.906 1576.22 903.497C1573.21 901.98 1571.1 906.75 1568.49 908.928C1565.71 911.242 1561 910.109 1559.45 906.75C1558.74 905.233 1558.63 903.424 1557.68 902.058C1555.95 899.55 1552.29 899.686 1549.61 900.96C1546.93 902.233 1544.62 904.363 1541.78 905.189C1536.58 906.706 1531.21 903.463 1527.17 899.691C1523.13 895.918 1519.47 891.353 1514.42 889.355C1509.37 887.357 1502.3 889.428 1501.23 895.004C1500.33 899.671 1504.07 904.032 1508.18 906.015C1512.3 907.999 1516.94 908.51 1521.03 910.556C1525.11 912.603 1528.75 917.11 1527.67 921.733C1527.25 923.507 1526.18 925.044 1524.91 926.288C1519.03 932.059 1509.59 931.417 1502.21 928.048C1494.84 924.679 1488.56 919.083 1481.26 915.53C1472.63 911.319 1459.77 909.292 1450.34 911.679C1439.12 914.518 1438.84 926.764 1435.41 936.42Z" fill="black" stroke="black" stroke-width="0.25" stroke-miterlimit="10" stroke-linecap="round" stroke-linejoin="round"/>
<path d="M949.821 169.498C942.414 180.242 935.011 190.981 927.603 201.725C925.342 205.007 922.979 208.585 922.951 212.644C922.923 216.704 926.486 220.977 930.183 219.834C928.189 225.187 922.157 227.234 917.994 230.953C911.487 236.772 909.802 246.612 909.839 255.606C909.932 276.248 918.262 298.193 935.459 308.091C927.16 312.267 923.45 324.275 927.816 332.797C931.997 340.955 942.391 347.173 940.268 356.171C939.834 358.009 938.865 359.706 938.694 361.587C938.315 365.836 941.989 369.195 945.506 371.31C952.595 375.579 960.529 378.102 967.641 382.336C974.748 386.571 981.302 393.168 982.603 401.661C984.283 412.619 976.927 424.238 980.974 434.486C982.894 439.352 987.034 442.775 990.2 446.854C1001.08 460.879 999.68 480.996 998.724 499.081C998.517 503.029 998.383 507.132 999.855 510.763C1001.33 514.395 1004.9 517.399 1008.6 516.767C1011.38 516.291 1013.65 513.938 1016.45 513.588C1020.2 513.111 1023.37 516.276 1026.77 518.017C1031.22 520.287 1036.38 520.161 1041.32 519.986C1059.77 519.329 1078.22 518.673 1096.68 518.022C1098.61 517.954 1100.6 517.895 1102.39 518.663C1113.05 523.223 1101.92 545.018 1111.83 551.167C1110.93 556.321 1110.33 561.221 1114.09 564.649C1124.13 554.118 1140.02 554.328 1154 551.902C1167.98 549.481 1184.03 539.631 1182.59 524.784C1194.75 534.993 1210.76 539.971 1226.24 538.348C1221.6 545.125 1224.99 556.214 1232.5 558.878C1240.02 561.542 1249.07 554.862 1249.27 546.51C1259.59 556.112 1274.77 559.539 1287.91 555.227C1291.04 572.699 1291.91 590.614 1290.48 608.329C1316.58 599.039 1341.5 586.107 1364.4 569.977C1379.92 559.038 1396.23 541.707 1391.31 522.727C1402.13 518.104 1408.45 504.127 1405.02 492.357C1410.84 497.491 1420.05 488.395 1418.12 480.665C1416.18 472.936 1408.31 468.687 1400.97 466.684C1406.9 462.765 1411.61 455.988 1411.38 448.613C1411.15 441.238 1404.59 434.17 1397.69 435.468C1413.7 422.964 1431.59 405.837 1428.06 385.17C1426.28 390.066 1431.5 395.219 1436.47 395.127C1441.45 395.034 1445.74 391.631 1449.65 388.384C1460.26 379.56 1471.47 369.798 1475.06 356.074C1478.79 341.82 1473.38 326.55 1475.41 311.917C1479.38 283.302 1510.59 262.684 1508.04 233.894C1528.19 251.624 1559.27 253.958 1581.6 239.417C1551.17 220.943 1524.06 196.412 1502.14 167.5C1508.77 165.04 1512 156.659 1511.23 149.298C1510.45 141.943 1506.65 135.38 1502.94 129.099C1495.2 116.007 1487.46 102.915 1479.72 89.8224C1470.96 74.9948 1462.19 60.1671 1453.43 45.3394C1459.41 52.1893 1471.2 51.8538 1476.81 44.6734C1479.77 48.5626 1484.94 52.3643 1488.79 49.4717C1494.09 45.4901 1488.48 37.1818 1483.71 32.505C1478.95 27.8282 1477.28 16.5105 1483.78 16.7925C1451.65 -0.816026 1413.43 -5.7602 1378.2 3.14127C1372.72 4.52681 1367.12 6.34019 1362.87 10.2391C1358.16 14.5562 1355.67 20.9199 1353.77 27.1816C1348.96 43.0253 1346.99 59.817 1347.97 76.4192C1348.16 79.7153 1348.45 83.1768 1347.15 86.1812C1343.39 94.9125 1330.48 93.1623 1323.87 99.7594C1314.52 109.094 1323.85 126.269 1319.37 138.997C1317.66 143.849 1314.06 147.626 1310.8 151.501C1298.67 165.978 1290.31 183.937 1286.88 202.916C1271.2 197.068 1253.12 198.789 1238.68 207.51C1234.72 209.902 1230.94 212.829 1226.52 214.059C1216.42 216.879 1206.42 210.286 1196.94 205.648C1174.3 194.569 1144.18 195.502 1127.77 215.308C1121.97 222.294 1117.76 231.531 1109.62 235.066C1099.68 239.378 1088.64 233.291 1077.91 232.596C1059.76 231.419 1043.14 245.814 1024.99 244.614C1014.83 243.938 1005.55 238.406 997.312 232.1C976.133 215.877 960.122 194.856 949.821 169.498Z" fill="black" stroke="black" stroke-width="0.25" stroke-miterlimit="10" stroke-linecap="round" stroke-linejoin="round"/>
<path d="M1.91747 -89.5579C-4.04543 -74.667 4.99586 -58.1621 14.0094 -45.0894C25.206 -28.8567 36.9565 -13.0568 49.2377 2.27652C59.0682 14.547 69.6971 26.8808 83.6628 33.3223C90.438 36.4483 97.8178 38.0817 104.316 41.8008C121.425 51.5967 128.689 73.1528 141.893 88.2333C145.572 92.4385 149.781 96.2062 152.679 101.039C155.827 106.294 157.225 112.478 159.671 118.132C171.542 145.614 204.43 155.128 222.628 178.458C243.766 205.562 241.564 246.296 260.792 274.936C268.342 286.185 278.763 294.868 288.026 304.601C305.015 322.447 318.145 343.906 330.385 365.642C352.931 405.692 372.91 447.35 390.143 490.224C404.132 525.037 435.927 546.243 460.161 574.129C469.47 584.839 478.816 595.593 489.473 604.805C503.822 617.212 520.289 626.614 535.039 638.476C567.069 664.233 590.145 700.845 622.563 726.062C621.492 717.554 621.741 708.867 623.287 700.441C628.198 704.885 633.224 709.406 639.238 711.944C645.247 714.482 652.525 714.715 657.846 710.835C660.588 708.837 662.702 705.852 665.757 704.443C677.078 699.216 686.027 718.41 698.359 719.319C702.822 678.04 707.28 636.755 711.743 595.471C712.445 588.986 713.142 582.374 711.909 575.981C711.056 571.543 709.283 567.284 709.03 562.768C708.476 552.821 715.288 543.944 716.096 534.017C717.005 522.82 710.266 512.708 703.856 503.729C694.487 490.598 682.284 476.057 666.754 477.54C654.593 478.702 644.333 489.83 632.144 489.052C630.566 488.95 628.936 488.62 627.672 487.623C624.109 484.813 625.438 478.726 628.207 475.056C630.976 471.385 634.904 468.415 636.164 463.918C638.905 454.122 627.963 446.84 622.531 438.38C614.122 425.284 618.931 406.508 611.219 392.94C598.933 371.33 565.458 377.339 548.654 359.424C545.613 356.182 545.571 351.437 544.782 346.954C543.522 339.784 542.257 332.501 542.927 325.248C543.596 317.994 546.466 310.634 552.042 306.307C554.589 304.333 557.631 303.026 559.8 300.605C563.774 296.166 563.741 288.971 561.281 283.448C558.822 277.926 554.409 273.686 550.103 269.603C548.216 267.809 546.162 265.932 543.637 265.592C540.07 265.111 536.913 267.794 534.061 270.103C522.093 279.812 507.251 285.539 492.163 286.273C497.194 281.611 502.229 276.948 507.26 272.286C510.255 269.51 513.532 266.005 513.024 261.839C512.568 258.105 509.12 255.519 505.663 254.571C502.206 253.623 498.556 253.837 495.043 253.137C486.173 251.362 479.255 244.007 474.182 236.146C469.11 228.284 465.233 219.509 459.211 212.421C446.08 196.962 424.43 191.415 412.43 174.968C406.366 166.66 403.204 156.081 396.037 148.813C393.023 145.755 389.16 143.329 384.974 143.227C380.788 143.13 376.39 145.906 375.453 150.198C374.922 152.639 375.513 155.201 375.259 157.69C375.01 160.179 373.316 162.921 370.948 162.712C369.573 162.59 368.47 161.516 367.487 160.505C359.138 151.915 350.789 143.329 342.445 134.739C320.416 112.074 306.256 81.748 284.329 58.9717C262.407 36.2003 235.606 17.5611 205.478 10.8814C201.827 10.0744 197.706 9.14099 195.735 5.80598C193.326 1.72716 195.444 -3.56707 195.029 -8.35082C194.54 -13.9708 190.603 -18.4872 186.874 -22.5417C170.125 -40.7433 151.193 -60.0824 127.217 -62.2215C116.726 -63.1549 104.828 -65.8093 94.3194 -66.4316C85.5412 -66.9518 76.6523 -67.4914 68.271 -70.3013C61.0204 -72.7321 54.3791 -76.7866 47.6454 -80.5154C39.7579 -84.8811 31.6628 -88.8433 23.4061 -92.3727C16.1094 -95.4841 4.97277 -97.1759 1.91747 -89.5579Z" fill="#E8F1FD" stroke="black" stroke-width="0.25" stroke-miterlimit="10" stroke-linecap="round" stroke-linejoin="round"/>
<path d="M712.205 731.481C702.776 736.751 708.591 754.54 700.141 761.404C698.419 762.804 696.296 763.534 694.487 764.802C687.426 769.756 686.383 781.813 678.463 785.026C676.903 781.341 673.174 778.585 669.361 779.008C665.554 779.431 662.291 783.553 663.154 787.482C664.322 792.795 670.788 794.156 675.957 794.443C693.278 795.396 710.594 796.349 727.915 797.307C730.694 797.457 733.624 797.666 735.923 799.314C742.052 803.709 739.347 814.045 742.799 820.958C746.122 827.613 754.176 829.5 761.233 830.637C782.832 834.113 804.482 837.035 826.146 839.928C844.409 842.368 857.991 858.8 878.091 858.504C886.569 858.377 894.812 855.776 903.161 854.24C964.475 842.947 1022.2 888.781 1084.21 894.498C1113.15 897.167 1142.5 890.974 1171.27 895.233C1210.56 901.052 1246.36 926.001 1286.03 926.682C1286.19 920.187 1277.89 917.829 1274.11 912.7C1267.43 903.648 1276.8 891.295 1277.87 879.89C1279.24 865.256 1265.74 853.161 1252.04 850.307C1238.35 847.453 1224.28 850.944 1210.35 851.906C1196.42 852.874 1180.8 850.458 1171.96 839.067C1169.34 835.679 1167.43 831.624 1164.28 828.77C1160.79 825.606 1155.79 823.89 1153.88 819.475C1151.87 814.837 1154.23 809.183 1152.62 804.375C1149.59 795.308 1137.33 796.859 1128.3 795.469C1114.92 793.408 1104.09 781.259 1090.58 780.598C1083.76 780.262 1077.16 782.946 1070.39 783.918C1063.63 784.89 1055.68 783.539 1052.02 777.467C1050.22 774.477 1049.67 770.656 1047.3 768.147C1042.67 763.252 1034.43 766.538 1030.19 771.798C1025.94 777.058 1023.53 783.957 1018.44 788.308C1011.97 793.835 1002.89 793.938 994.566 793.772C963.953 793.174 933.34 792.581 902.732 791.983C900.249 791.935 897.65 791.857 895.49 790.564C891.531 788.201 890.492 782.844 889.029 778.303C884.465 764.141 871.565 753.387 857.428 751.968C848.646 751.083 839.503 753.48 831.103 750.636C816.837 745.804 807.607 726.897 792.663 728.049C787.295 728.462 782.504 731.559 777.529 733.718C758.524 741.958 736.943 736.523 717.074 730.99L712.205 731.481Z" fill="#E8F1FD" stroke="black" stroke-width="0.25" stroke-miterlimit="10" stroke-linecap="round" stroke-linejoin="round"/>
<path d="M1288.55 885.968C1286.26 888.258 1285.47 892.07 1286.66 895.152C1288.67 900.354 1294.71 901.992 1299.82 903.601C1308.57 906.363 1317.85 912.561 1318.63 922.148C1319.01 926.771 1317.3 931.254 1315.89 935.648C1315.49 936.874 1315.41 938.697 1316.6 938.993C1317.05 939.105 1317.51 938.92 1317.93 938.721C1326.06 934.866 1330.3 925.357 1337.41 919.678C1341.22 916.63 1345.77 914.758 1349.65 911.808C1353.52 908.857 1356.84 904.243 1356.34 899.231C1356.08 896.649 1354.83 894.282 1353.29 892.259C1349.02 886.659 1342.24 883.285 1335.42 883.363C1329.87 883.426 1324.54 885.628 1319.04 886.382C1311.09 887.466 1294.63 879.901 1288.55 885.968Z" fill="#E8F1FD" stroke="black" stroke-width="0.25" stroke-miterlimit="10" stroke-linecap="round" stroke-linejoin="round"/>
<path d="M1387.69 899.356C1384.62 904.286 1384.49 910.528 1383.43 916.318C1382.37 922.108 1379.56 928.414 1374.14 929.901C1373.12 930.178 1371.87 930.436 1371.54 931.481C1371.23 932.439 1371.95 933.407 1372.65 934.092C1378.25 939.556 1386.28 941.156 1393.89 941.861C1400.64 942.488 1408.72 941.909 1412.28 935.832C1415.11 930.995 1413.78 924.646 1415.46 919.245C1416.48 915.973 1418.56 913.202 1420.15 910.198C1421.75 907.193 1422.88 903.581 1421.81 900.329C1420.89 897.543 1418.47 895.53 1415.85 894.49C1407.07 890.999 1393.52 889.993 1387.69 899.356Z" fill="#E8F1FD" stroke="black" stroke-width="0.25" stroke-miterlimit="10" stroke-linecap="round" stroke-linejoin="round"/>
<path d="M1430.99 930.307C1430.01 933.074 1428.63 935.816 1428.71 938.771C1428.85 943.837 1433.23 947.678 1437.7 949.549C1446.61 953.278 1456.66 951.941 1466.04 949.826C1485.43 945.456 1504.2 937.974 1521.48 927.726C1524.13 926.151 1527.24 924.464 1530.06 925.655C1531.36 926.199 1532.38 927.284 1533.43 928.256C1538.91 933.317 1546.47 935.786 1553.71 934.882C1556.27 934.561 1559.05 933.642 1560.34 931.289C1561.08 929.962 1561.24 928.334 1562.05 927.065C1565.56 921.591 1575.59 928.115 1579.49 922.937C1581.04 920.881 1580.71 917.92 1580.12 915.373C1578.81 909.728 1576.62 904.318 1573.65 899.422C1573.17 898.62 1572.62 897.794 1571.8 897.385C1568.8 895.868 1566.69 900.638 1564.07 902.816C1561.29 905.13 1556.58 903.997 1555.03 900.638C1554.33 899.121 1554.21 897.312 1553.27 895.946C1551.54 893.442 1547.87 893.574 1545.19 894.847C1542.51 896.121 1540.2 898.25 1537.36 899.077C1532.16 900.594 1526.79 897.351 1522.75 893.578C1518.71 889.806 1515.06 885.241 1510 883.243C1504.95 881.245 1497.89 883.316 1496.81 888.892C1495.91 893.559 1499.65 897.92 1503.77 899.908C1507.88 901.897 1512.53 902.402 1516.61 904.449C1520.7 906.496 1524.33 911.002 1523.25 915.626C1522.83 917.4 1521.77 918.936 1520.5 920.181C1514.62 925.952 1505.17 925.31 1497.79 921.941C1490.42 918.572 1484.14 912.976 1476.85 909.422C1468.22 905.212 1455.35 903.185 1445.92 905.572C1434.7 908.411 1434.41 920.652 1430.99 930.307Z" fill="#E8F1FD" stroke="black" stroke-width="0.25" stroke-miterlimit="10" stroke-linecap="round" stroke-linejoin="round"/>
<path d="M945.404 163.392C937.997 174.136 930.594 184.875 923.186 195.619C920.925 198.9 918.562 202.478 918.534 206.533C918.506 210.592 922.069 214.866 925.766 213.723C923.772 219.081 917.74 221.122 913.577 224.841C907.07 230.661 905.385 240.5 905.427 249.494C905.519 270.136 913.85 292.076 931.041 301.979C922.748 306.155 919.033 318.163 923.403 326.686C927.585 334.848 937.978 341.061 935.855 350.06C935.421 351.898 934.452 353.594 934.281 355.476C933.898 359.725 937.577 363.084 941.093 365.199C948.182 369.467 956.121 371.99 963.228 376.225C970.336 380.459 976.889 387.056 978.191 395.549C979.871 406.507 972.514 418.126 976.562 428.374C978.482 433.241 982.622 436.663 985.788 440.747C996.666 454.773 995.267 474.89 994.312 492.974C994.104 496.917 993.97 501.025 995.443 504.657C996.915 508.288 1000.49 511.293 1004.19 510.661C1006.97 510.184 1009.24 507.831 1012.03 507.481C1015.79 507.005 1018.95 510.17 1022.36 511.91C1026.8 514.18 1031.97 514.054 1036.91 513.879C1055.36 513.223 1073.81 512.566 1092.27 511.915C1094.2 511.847 1096.19 511.789 1097.98 512.557C1108.63 517.117 1097.5 538.911 1107.41 545.061C1106.51 550.214 1105.91 555.115 1109.67 558.542C1119.72 548.012 1135.6 548.221 1149.58 545.795C1163.57 543.374 1179.61 533.525 1178.17 518.673C1190.34 528.882 1206.35 533.86 1221.82 532.236C1217.19 539.013 1220.57 550.102 1228.08 552.766C1235.6 555.431 1244.66 548.751 1244.86 540.399C1255.17 550 1270.35 553.428 1283.49 549.115C1286.62 566.588 1287.49 584.503 1286.07 602.218C1312.16 592.928 1337.08 579.996 1359.98 563.865C1375.5 552.927 1391.81 535.596 1386.89 516.616C1397.72 511.993 1404.03 498.011 1400.61 486.246C1406.43 491.38 1415.63 482.284 1413.7 474.554C1411.77 466.824 1403.9 462.575 1396.55 460.572C1402.48 456.654 1407.2 449.877 1406.97 442.502C1406.73 435.127 1400.17 428.058 1393.27 429.356C1409.28 416.853 1427.17 399.725 1423.64 379.059C1421.86 383.955 1427.07 389.108 1432.05 389.015C1437.03 388.923 1441.32 385.52 1445.23 382.272C1455.84 373.449 1467.05 363.687 1470.64 349.963C1474.37 335.709 1468.96 320.439 1470.99 305.805C1474.96 277.19 1506.18 256.573 1503.61 227.783C1523.77 245.513 1554.84 247.846 1577.18 233.305C1546.75 214.832 1519.64 190.3 1497.72 161.389C1504.34 158.929 1507.57 150.548 1506.8 143.187C1506.03 135.832 1502.23 129.269 1498.51 122.987C1490.77 109.895 1483.03 96.8032 1475.3 83.7111C1466.54 68.8834 1457.77 54.0558 1449.01 39.2281C1454.99 46.078 1466.78 45.7425 1472.39 38.562C1475.35 42.4513 1480.52 46.253 1484.37 43.3604C1489.67 39.3788 1484.05 31.0705 1479.29 26.3937C1474.53 21.7169 1472.85 10.3992 1479.36 10.6812C1447.23 -6.92726 1409.01 -11.8666 1373.78 -2.97004C1368.3 -1.5845 1362.7 0.228881 1358.45 4.12783C1353.74 8.44487 1351.25 14.8086 1349.34 21.0703C1344.54 36.914 1342.57 53.7058 1343.55 70.3079C1343.74 73.604 1344.03 77.0654 1342.73 80.0698C1338.97 88.8012 1326.06 87.051 1319.45 93.6432C1310.09 102.977 1319.42 120.153 1314.94 132.881C1313.24 137.732 1309.63 141.51 1306.38 145.385C1294.24 159.862 1285.88 177.821 1282.46 196.8C1266.77 190.952 1248.69 192.673 1234.25 201.394C1230.29 203.786 1226.51 206.713 1222.1 207.943C1211.99 210.762 1201.99 204.175 1192.51 199.532C1169.87 188.453 1139.76 189.386 1123.34 209.192C1117.55 216.178 1113.33 225.415 1105.19 228.949C1095.25 233.262 1084.21 227.175 1073.48 226.48C1055.33 225.303 1038.71 239.698 1020.56 238.497C1010.41 237.822 1001.12 232.289 992.886 225.984C971.711 209.771 955.701 188.754 945.404 163.392Z" fill="#E8F1FD" stroke="black" stroke-width="0.25" stroke-miterlimit="10" stroke-linecap="round" stroke-linejoin="round"/>
</g>
</svg>
