<svg width="40" height="40" viewBox="0 0 40 40" fill="none" xmlns="http://www.w3.org/2000/svg">
<rect width="40" height="40" rx="8" fill="#1577EA"/>
<path d="M20 35C25.964 35 32 32.939 32 29V11C32 7.061 25.964 5 20 5C14.036 5 8 7.061 8 11V29C8 32.939 14.036 35 20 35ZM20 32C14.417 32 11 30.0575 11 29V27.098C13.3115 28.355 16.6655 29 20 29C23.3345 29 26.6885 28.355 29 27.098V29C29 30.0575 25.583 32 20 32ZM20 8C25.583 8 29 9.9425 29 11C29 12.0575 25.583 14 20 14C14.417 14 11 12.0575 11 11C11 9.9425 14.417 8 20 8ZM11 15.098C13.3115 16.355 16.6655 17 20 17C23.3345 17 26.6885 16.355 29 15.098V17C29 18.0575 25.583 20 20 20C14.417 20 11 18.0575 11 17V15.098ZM11 21.098C13.3115 22.355 16.6655 23 20 23C23.3345 23 26.6885 22.355 29 21.098V23C29 24.0575 25.583 26 20 26C14.417 26 11 24.0575 11 23V21.098Z" fill="#FBFBFB"/>
</svg>
