<?xml version="1.0" encoding="UTF-8"?>
<svg xmlns="http://www.w3.org/2000/svg" xmlns:xlink="http://www.w3.org/1999/xlink" width="126px" height="26px" viewBox="0 0 125 26" version="1.1">
<g id="surface1">
<path style=" stroke:none;fill-rule:evenodd;fill:rgb(11.764706%,27.45098%,55.686275%);fill-opacity:1;" d="M 74.3125 4.175781 L 75.757812 4.175781 C 76.496094 4.175781 76.96875 4.769531 76.785156 5.488281 L 76.574219 6.300781 L 73.761719 6.300781 Z M 74.3125 4.175781 "/>
<path style=" stroke:none;fill-rule:evenodd;fill:rgb(11.764706%,27.45098%,55.686275%);fill-opacity:1;" d="M 102.554688 17.332031 L 103.839844 12.398438 C 104.480469 9.933594 106.113281 8.050781 108.652344 7.425781 C 109.507812 7.214844 110.359375 7.160156 111.234375 7.160156 L 110.527344 9.875 L 109.597656 9.875 C 108.085938 9.875 107.113281 10.621094 106.730469 12.09375 L 105.367188 17.332031 Z M 102.554688 17.332031 "/>
<path style=" stroke:none;fill-rule:evenodd;fill:rgb(11.764706%,27.45098%,55.686275%);fill-opacity:1;" d="M 99.078125 12.703125 C 99.785156 12.550781 100.351562 12.386719 100.773438 12.207031 L 100.523438 13.164062 C 100.335938 13.878906 99.976562 14.4375 99.445312 14.84375 C 98.910156 15.253906 98.269531 15.457031 97.515625 15.457031 C 97.058594 15.457031 96.738281 15.355469 96.550781 15.152344 C 96.371094 14.921875 96.328125 14.617188 96.429688 14.234375 C 96.648438 13.394531 97.328125 13.085938 98.105469 12.894531 C 98.105469 12.894531 98.425781 12.832031 99.078125 12.703125 M 98.746094 9.183594 C 99.066406 9.082031 99.414062 9.03125 99.789062 9.03125 C 100.339844 9.03125 101.535156 9.113281 101.320312 9.949219 C 101.183594 10.460938 100.511719 10.789062 99.292969 10.945312 C 97.933594 11.085938 96.574219 11.308594 95.378906 12.015625 C 94.601562 12.476562 94.074219 13.238281 93.792969 14.308594 C 93.496094 15.457031 93.640625 16.28125 94.234375 16.777344 C 94.828125 17.277344 95.609375 17.527344 96.570312 17.527344 C 97.054688 17.527344 97.617188 17.492188 98.265625 17.429688 C 98.910156 17.363281 99.550781 17.191406 100.1875 16.910156 C 100.789062 16.65625 101.359375 16.242188 101.894531 15.667969 C 102.429688 15.097656 102.835938 14.296875 103.101562 13.277344 L 104.007812 9.792969 C 104.25 8.878906 104.046875 8.160156 103.398438 7.652344 C 102.78125 7.167969 101.71875 6.925781 100.21875 6.925781 C 98.878906 6.925781 97.769531 7.21875 96.894531 7.804688 C 96.113281 8.316406 95.574219 8.964844 95.261719 9.753906 L 97.953125 9.753906 C 98.160156 9.472656 98.421875 9.285156 98.746094 9.183594 Z M 98.746094 9.183594 "/>
<path style=" stroke:none;fill-rule:evenodd;fill:rgb(11.764706%,27.45098%,55.686275%);fill-opacity:1;" d="M 70.535156 18.832031 C 71.535156 14.953125 72.535156 11.074219 73.535156 7.191406 L 74.980469 7.191406 C 75.714844 7.191406 76.195312 7.785156 76.007812 8.507812 C 75.085938 12.089844 74.160156 15.675781 73.238281 19.261719 C 72.6875 21.402344 70.941406 21.777344 68.976562 21.777344 L 29.835938 21.777344 C 30.488281 19.25 32.769531 19.53125 33.398438 19.53125 L 69.664062 19.53125 C 70.117188 19.53125 70.402344 19.363281 70.535156 18.832031 "/>
<path style=" stroke:none;fill-rule:evenodd;fill:rgb(20%,50.588235%,76.470588%);fill-opacity:1;" d="M 35.296875 17.332031 L 33.050781 17.328125 C 31.695312 17.320312 31.019531 16.875 31.375 15.417969 L 34.304688 4.175781 L 35.75 4.175781 C 36.464844 4.175781 36.917969 4.785156 36.738281 5.472656 L 36.292969 7.195312 L 37.9375 7.195312 L 37.796875 7.730469 C 37.699219 8.109375 37.484375 8.421875 37.152344 8.667969 C 36.820312 8.910156 36.46875 9.03125 36.09375 9.03125 L 35.8125 9.03125 L 34.335938 14.695312 C 34.222656 15.128906 34.4375 15.34375 34.96875 15.34375 L 35.8125 15.34375 Z M 35.296875 17.332031 "/>
<path style=" stroke:none;fill-rule:evenodd;fill:rgb(11.764706%,27.45098%,55.686275%);fill-opacity:1;" d="M 88.078125 10.90625 L 92.464844 7.15625 L 95.839844 7.15625 L 91.011719 11.058594 L 93.234375 17.332031 L 89.859375 17.332031 L 88.789062 13.886719 C 88.5625 13.199219 88.292969 12.910156 87.96875 13.007812 C 87.648438 13.109375 87.460938 13.265625 87.410156 13.46875 L 86.402344 17.332031 L 83.59375 17.332031 L 87.019531 4.175781 L 88.464844 4.175781 C 89.160156 4.175781 89.683594 4.730469 89.5 5.4375 C 89.027344 7.257812 88.550781 9.082031 88.078125 10.90625 M 80.242188 12.703125 C 80.949219 12.550781 81.515625 12.386719 81.9375 12.207031 L 81.6875 13.164062 C 81.503906 13.878906 81.144531 14.4375 80.609375 14.84375 C 80.074219 15.253906 79.429688 15.457031 78.679688 15.457031 C 78.222656 15.457031 77.902344 15.355469 77.710938 15.152344 C 77.53125 14.921875 77.496094 14.617188 77.59375 14.234375 C 77.8125 13.394531 78.492188 13.085938 79.269531 12.894531 C 79.269531 12.894531 79.589844 12.832031 80.242188 12.703125 Z M 79.910156 9.183594 C 80.230469 9.082031 80.582031 9.03125 80.953125 9.03125 C 81.507812 9.03125 82.703125 9.113281 82.484375 9.949219 C 82.351562 10.460938 81.675781 10.789062 80.457031 10.945312 C 79.101562 11.085938 77.738281 11.308594 76.542969 12.015625 C 75.769531 12.476562 75.238281 13.238281 74.960938 14.308594 C 74.660156 15.457031 74.804688 16.28125 75.398438 16.777344 C 75.992188 17.277344 76.773438 17.527344 77.738281 17.527344 C 78.21875 17.527344 78.78125 17.492188 79.429688 17.429688 C 80.074219 17.363281 80.71875 17.191406 81.351562 16.910156 C 81.953125 16.65625 82.523438 16.242188 83.0625 15.667969 C 83.597656 15.097656 84.003906 14.296875 84.269531 13.277344 L 85.171875 9.792969 C 85.414062 8.878906 85.210938 8.160156 84.566406 7.652344 C 83.945312 7.167969 82.882812 6.925781 81.378906 6.925781 C 80.042969 6.925781 78.933594 7.21875 78.058594 7.804688 C 77.28125 8.316406 76.738281 8.964844 76.425781 9.753906 L 79.117188 9.753906 C 79.328125 9.472656 79.589844 9.285156 79.910156 9.183594 Z M 79.910156 9.183594 "/>
<path style=" stroke:none;fill-rule:evenodd;fill:rgb(11.764706%,27.45098%,55.686275%);fill-opacity:1;" d="M 113.582031 17.332031 C 112.683594 17.386719 111.730469 17.371094 110.71875 17.292969 C 109.703125 17.21875 109.355469 16.589844 109.660156 15.421875 L 112.589844 4.175781 L 114.035156 4.175781 C 114.746094 4.175781 115.203125 4.785156 115.023438 5.472656 L 114.574219 7.195312 L 116.222656 7.195312 L 116.082031 7.730469 C 115.886719 8.484375 115.148438 9.03125 114.378906 9.03125 L 114.097656 9.03125 L 112.621094 14.695312 C 112.507812 15.132812 112.71875 15.34375 113.253906 15.34375 L 114.097656 15.34375 Z M 119.804688 12.703125 C 120.511719 12.550781 121.082031 12.386719 121.5 12.207031 L 121.25 13.164062 C 121.066406 13.878906 120.707031 14.4375 120.171875 14.84375 C 119.636719 15.253906 118.996094 15.457031 118.246094 15.457031 C 117.789062 15.457031 117.46875 15.355469 117.277344 15.152344 C 117.097656 14.921875 117.058594 14.617188 117.15625 14.234375 C 117.375 13.394531 118.058594 13.085938 118.832031 12.894531 C 118.832031 12.894531 119.15625 12.832031 119.804688 12.703125 Z M 119.472656 9.183594 C 119.792969 9.082031 120.144531 9.03125 120.519531 9.03125 C 121.070312 9.03125 122.265625 9.113281 122.050781 9.949219 C 121.914062 10.460938 121.242188 10.789062 120.019531 10.945312 C 118.664062 11.085938 117.300781 11.308594 116.105469 12.015625 C 115.332031 12.476562 114.804688 13.238281 114.523438 14.308594 C 114.226562 15.457031 114.371094 16.28125 114.964844 16.777344 C 115.558594 17.277344 116.335938 17.527344 117.300781 17.527344 C 117.785156 17.527344 118.347656 17.492188 118.996094 17.429688 C 119.640625 17.363281 120.28125 17.191406 120.917969 16.910156 C 121.519531 16.65625 122.085938 16.242188 122.625 15.667969 C 123.160156 15.097656 123.566406 14.296875 123.832031 13.277344 L 124.738281 9.792969 C 124.976562 8.878906 124.777344 8.160156 124.128906 7.652344 C 123.507812 7.167969 122.445312 6.925781 120.945312 6.925781 C 119.605469 6.925781 118.5 7.21875 117.621094 7.804688 C 116.84375 8.316406 116.300781 8.964844 115.988281 9.753906 L 118.683594 9.753906 C 118.890625 9.472656 119.152344 9.285156 119.472656 9.183594 Z M 119.472656 9.183594 "/>
<path style=" stroke:none;fill-rule:evenodd;fill:rgb(20%,50.588235%,76.470588%);fill-opacity:1;" d="M 35.824219 17.332031 L 37.109375 12.398438 C 37.367188 11.402344 37.738281 10.570312 38.222656 9.890625 C 38.707031 9.21875 39.269531 8.671875 39.914062 8.265625 C 40.519531 7.886719 41.1875 7.605469 41.917969 7.425781 C 42.648438 7.246094 43.375 7.160156 44.097656 7.160156 C 44.152344 7.160156 44.214844 7.160156 44.300781 7.160156 C 44.378906 7.160156 44.449219 7.160156 44.503906 7.160156 L 43.796875 9.875 L 42.867188 9.875 C 42.089844 9.875 41.46875 10.054688 41.003906 10.410156 C 40.535156 10.765625 40.199219 11.324219 40 12.09375 L 38.636719 17.332031 Z M 47.96875 12.703125 C 48.679688 12.550781 49.246094 12.386719 49.667969 12.207031 L 49.417969 13.164062 C 49.230469 13.878906 48.871094 14.4375 48.335938 14.84375 C 47.800781 15.253906 47.160156 15.457031 46.40625 15.457031 C 45.953125 15.457031 45.632812 15.355469 45.441406 15.152344 C 45.261719 14.921875 45.222656 14.617188 45.320312 14.234375 C 45.539062 13.394531 46.222656 13.085938 46.996094 12.894531 C 46.996094 12.894531 47.316406 12.832031 47.96875 12.703125 Z M 47.636719 9.183594 C 47.957031 9.082031 48.308594 9.03125 48.683594 9.03125 C 49.234375 9.03125 50.429688 9.113281 50.210938 9.949219 C 50.078125 10.460938 49.402344 10.789062 48.183594 10.945312 C 46.828125 11.085938 45.46875 11.308594 44.269531 12.015625 C 43.496094 12.476562 42.96875 13.238281 42.6875 14.308594 C 42.390625 15.457031 42.535156 16.28125 43.125 16.777344 C 43.71875 17.277344 44.5 17.527344 45.464844 17.527344 C 45.949219 17.527344 46.511719 17.492188 47.15625 17.429688 C 47.804688 17.363281 48.445312 17.191406 49.078125 16.910156 C 49.679688 16.65625 50.25 16.242188 50.789062 15.667969 C 51.324219 15.097656 51.730469 14.296875 51.996094 13.277344 L 52.902344 9.792969 C 53.140625 8.878906 52.9375 8.160156 52.292969 7.652344 C 51.671875 7.167969 50.613281 6.925781 49.109375 6.925781 C 47.769531 6.925781 46.664062 7.21875 45.785156 7.804688 C 45.007812 8.316406 44.464844 8.964844 44.15625 9.753906 L 46.84375 9.753906 C 47.054688 9.472656 47.316406 9.285156 47.636719 9.183594 Z M 47.636719 9.183594 "/>
<path style=" stroke:none;fill-rule:evenodd;fill:rgb(11.764706%,27.45098%,55.686275%);fill-opacity:1;" d="M 20.6875 5.148438 C 18.695312 3.148438 15.945312 1.910156 12.90625 1.910156 C 9.867188 1.910156 7.113281 3.148438 5.125 5.148438 C 3.132812 7.152344 1.898438 9.917969 1.898438 12.976562 C 1.898438 13.992188 2.035156 14.972656 2.289062 15.90625 L 9.09375 9.066406 L 9.09375 9.070312 C 9.976562 8.1875 11.402344 8.1875 12.277344 9.070312 C 13.15625 9.953125 13.15625 11.386719 12.28125 12.269531 L 12.28125 12.273438 L 4.492188 20.105469 C 4.691406 20.347656 4.902344 20.578125 5.125 20.800781 C 7.117188 22.804688 9.867188 24.039062 12.90625 24.039062 C 15.945312 24.039062 18.695312 22.804688 20.6875 20.800781 C 22.683594 18.796875 23.914062 16.03125 23.914062 12.976562 C 23.914062 11.960938 23.777344 10.972656 23.523438 10.039062 L 16.628906 16.96875 L 16.625 16.96875 C 15.746094 17.851562 14.324219 17.851562 13.441406 16.96875 C 12.566406 16.082031 12.566406 14.648438 13.441406 13.765625 L 21.320312 5.84375 C 21.121094 5.601562 20.910156 5.371094 20.6875 5.148438 M 24.933594 8.617188 C 24.953125 8.667969 24.917969 8.582031 24.9375 8.628906 C 25.421875 9.988281 25.6875 11.449219 25.6875 12.976562 C 25.6875 20.070312 19.964844 25.824219 12.90625 25.824219 C 9.039062 25.824219 5.574219 24.097656 3.230469 21.371094 L 3.925781 20.671875 C 4.128906 20.914062 4.339844 21.144531 4.558594 21.367188 C 6.695312 23.515625 9.644531 24.84375 12.90625 24.84375 C 16.164062 24.84375 19.117188 23.515625 21.25 21.367188 C 23.386719 19.21875 24.710938 16.25 24.710938 12.976562 C 24.710938 11.726562 24.519531 10.523438 24.164062 9.394531 L 24.933594 8.617188 C 24.917969 8.574219 24.949219 8.664062 24.933594 8.617188 Z M 12.90625 0.125 C 16.773438 0.125 20.234375 1.851562 22.578125 4.578125 L 21.886719 5.273438 C 21.683594 5.035156 21.472656 4.804688 21.25 4.582031 C 19.117188 2.4375 16.164062 1.109375 12.90625 1.109375 C 9.644531 1.109375 6.695312 2.4375 4.558594 4.582031 C 2.425781 6.730469 1.101562 9.699219 1.101562 12.976562 C 1.101562 14.222656 1.292969 15.421875 1.648438 16.550781 L 0.878906 17.328125 C 0.878906 17.328125 0.878906 17.328125 0.875 17.320312 C 0.386719 15.960938 0.125 14.5 0.125 12.976562 C 0.125 5.878906 5.847656 0.125 12.90625 0.125 Z M 12.90625 0.125 "/>
<path style=" stroke:none;fill-rule:evenodd;fill:rgb(20%,50.588235%,76.470588%);fill-opacity:1;" d="M 60.652344 17.199219 L 59.28125 17.199219 C 58.511719 17.199219 58.085938 16.652344 58.277344 15.902344 L 59.597656 10.695312 C 59.867188 9.636719 59.273438 8.9375 58.203125 8.9375 C 57.105469 8.9375 56.222656 9.632812 55.953125 10.695312 L 54.300781 17.199219 L 51.558594 17.199219 L 53.074219 11.234375 C 53.886719 8.152344 55.789062 6.929688 58.667969 6.796875 C 59.953125 6.796875 61.875 7.230469 62.292969 8.660156 C 62.484375 9.300781 62.441406 10.160156 62.167969 11.234375 Z M 60.652344 17.199219 "/>
<path style=" stroke:none;fill-rule:evenodd;fill:rgb(20%,50.588235%,76.470588%);fill-opacity:1;" d="M 71.859375 10.15625 C 72.414062 7.617188 70.382812 6.765625 68.21875 6.792969 C 66.050781 6.820312 63.742188 7.78125 63.15625 10.082031 C 62.890625 11.117188 63.238281 11.953125 64.144531 12.449219 C 64.585938 12.691406 65.195312 12.910156 65.972656 13.105469 C 66.578125 13.324219 68.613281 13.425781 68.375 14.371094 C 68.171875 15.15625 67.101562 15.363281 66.421875 15.363281 C 65.433594 15.363281 64.390625 15.042969 64.644531 13.832031 L 61.960938 13.832031 L 61.929688 13.945312 C 61.644531 15.070312 61.804688 15.925781 62.421875 16.511719 C 63.003906 17.097656 64.046875 17.390625 65.546875 17.390625 C 67.125 17.390625 68.382812 17.109375 69.3125 16.546875 C 70.3125 15.9375 70.953125 15.070312 71.242188 13.945312 C 71.679688 12.25 70.621094 11.617188 69.140625 11.164062 C 68.613281 11 68.054688 10.886719 67.507812 10.757812 C 66.925781 10.617188 66.503906 10.460938 66.246094 10.292969 C 65.707031 9.933594 66.019531 9.347656 66.488281 9.085938 C 66.792969 8.933594 67.207031 8.863281 67.730469 8.859375 C 68.765625 8.84375 68.992188 9.203125 69.238281 9.589844 C 69.492188 9.988281 69.660156 10.15625 70.160156 10.15625 Z M 71.859375 10.15625 "/>
</g>
</svg>
